<svg xmlns="http://www.w3.org/2000/svg" width="224.225" height="312.808"><g transform="translate(-6703.887 2747.31)"><rect ry="10.63" rx="10.63" width="223.228" height="311.811" x="6704.386" y="-2746.811" fill="#fff" stroke="#000" stroke-width=".997"/><path d="M6722.22-2700.437v-2.813h2.586v-4.636h-12.925v-3.27l13.99-21.1 2.29.008v21.09h3.954v3.272h-3.953l-.076 4.636h2.166v2.813zm2.586-24.097l-8.88 13.377h8.88zm184.972 243.16v2.813h-2.585v4.63h12.925v3.27l-13.985 21.1-2.285-.01v-21.09h-3.953v-3.27h3.953l.076-4.64h-2.167v-2.813zm-2.585 24.097l8.88-13.377h-8.88z" fill="#d40000"/></g><path d="M9.254 61.493c-1.583-3.472-1.756-9.405 2.972-10.208 3.562-.458 5.01 1.198 5.3 3.742.142.743.56.79.694-.058.205-2.61 2.787-4.14 4.807-3.75 5.526.94 5.204 7.02 3.398 11.15-2.73 5.48-5.6 8.94-8.245 14.45-3.038-5.74-6.507-10.408-8.926-15.336zm36.242-34.93C52.64 26.088 56.364 32.19 57.09 37c.434.763.672.548.838-.043.35-6.174 5.875-11.22 10.992-10.53 8.328.108 13.39 9.375 11.967 17.218-1.74 9.582-6.9 15.35-10.808 21.293-4.43 6.153-10.38 15.04-12.29 19.317 0 0-6.05-9.204-13.92-20.03-5.26-7.238-9.48-15.082-9.87-21.835-.45-7.715 2.72-14.63 11.49-15.827zm109.532 0c7.144-.475 10.87 5.627 11.596 10.436.433.76.67.54.837-.05.35-6.176 5.88-11.22 11-10.53 8.33.11 13.39 9.373 11.97 17.22-1.74 9.58-6.9 15.35-10.808 21.29-4.422 6.153-10.373 15.04-12.29 19.317 0 0-6.05-9.203-13.92-20.03-5.26-7.237-9.472-15.08-9.864-21.834-.45-7.716 2.72-14.63 11.488-15.828zM45.496 282.903c7.144.474 10.868-5.627 11.595-10.436.44-.764.68-.55.84.042.35 6.17 5.88 11.22 10.99 10.53 8.33-.11 13.39-9.38 11.97-17.22-1.74-9.58-6.9-15.35-10.81-21.3-4.42-6.15-10.37-15.04-12.29-19.32 0 0-6.05 9.205-13.91 20.03-5.262 7.238-9.473 15.08-9.865 21.835-.45 7.716 2.72 14.632 11.49 15.83zm109.532 0c7.144.474 10.87-5.627 11.596-10.436.433-.764.67-.55.837.042.35 6.17 5.88 11.22 11 10.53 8.33-.11 13.39-9.38 11.97-17.22-1.74-9.58-6.9-15.35-10.808-21.3-4.422-6.15-10.373-15.04-12.29-19.32 0 0-6.05 9.205-13.92 20.03-5.26 7.238-9.472 15.08-9.864 21.835-.45 7.716 2.72 14.632 11.488 15.83zm41.445-31.297c-1.583 3.472-1.757 9.405 2.97 10.208 3.563.458 5.013-1.2 5.3-3.742.143-.743.563-.79.696.058.2 2.61 2.78 4.133 4.8 3.75 5.523-.945 5.2-7.028 3.4-11.155-2.73-5.48-5.6-8.938-8.25-14.452-3.04 5.74-6.51 10.405-8.927 15.333z" fill="#d40000"/></svg>