<svg xmlns="http://www.w3.org/2000/svg" width="224.225" height="312.808"><g transform="translate(-7150.344 2747.31)"><rect ry="10.63" rx="10.63" width="223.228" height="311.811" x="7150.843" y="-2746.811" fill="#fff" stroke="#000" stroke-width=".997"/><path d="M7159.083-2710.81c-.41-2.748-.402-9.846-.066-11.943 1.03-6.43 3.532-9.37 7.722-10.333 4.06-.935 9.78.106 11.04 5.482l-3.41.063c-1.84-3.64-6.498-2.67-9.118-1.09-2.093 1.26-3.038 6.52-2.634 6.842-.003 0 3.957-2.878 7.076-2.665 6.667.68 9.416 6.355 9.184 11.72-.21 6.45-2.293 11.602-9.36 11.946-6.72-.252-9.8-3.85-10.443-10.03zm16.57-1.706c.037-4.475-2.034-7.822-5.95-8.192-3.915-.37-7.863 3.382-7.59 7.943.275 4.576 2.08 8.43 6.827 8.41 5.106-.023 6.687-4.976 6.713-8.16zM7365.83-2471c.41 2.747.403 9.845.067 11.942-1.03 6.43-3.532 9.37-7.722 10.333-4.07.935-9.79-.106-11.044-5.482l3.41-.063c1.84 3.633 6.5 2.662 9.12 1.082 2.095-1.262 3.04-6.52 2.636-6.843.003 0-3.957 2.87-7.076 2.66-6.668-.68-9.417-6.36-9.185-11.72.21-6.45 2.293-11.607 9.36-11.95 6.72.253 9.8 3.85 10.443 10.03zm-16.57 1.705c-.036 4.475 2.035 7.822 5.95 8.192 3.916.37 7.864-3.382 7.59-7.943-.274-4.576-2.078-8.43-6.826-8.41-5.106.023-6.687 4.976-6.713 8.16z" fill="#d40000"/></g><path d="M9.15 59.872c-1.585-3.472-1.76-9.405 2.97-10.208 3.562-.458 5.01 1.2 5.3 3.742.142.743.56.79.694-.058.205-2.61 2.788-4.133 4.807-3.75 5.53.945 5.21 7.028 3.4 11.155-2.73 5.48-5.6 8.938-8.24 14.452-3.04-5.74-6.504-10.405-8.922-15.333zM44.437 28.86c7.144-.473 10.868 5.63 11.595 10.438.433.764.67.548.837-.043.34-6.174 5.87-11.22 10.99-10.53 8.33.11 13.39 9.376 11.96 17.22-1.74 9.58-6.9 15.35-10.81 21.292-4.42 6.152-10.373 15.04-12.29 19.317 0 0-6.05-9.205-13.917-20.03-5.263-7.238-9.474-15.082-9.866-21.835-.448-7.72 2.72-14.64 11.49-15.83zm111.533 0c7.143-.473 10.868 5.63 11.595 10.438.433.764.67.548.837-.043.35-6.174 5.874-11.22 10.992-10.53 8.328.11 13.39 9.376 11.967 17.22-1.73 9.58-6.9 15.35-10.8 21.292-4.42 6.152-10.37 15.04-12.29 19.317 0 0-6.05-9.205-13.92-20.03-5.26-7.238-9.47-15.082-9.862-21.835-.447-7.72 2.72-14.64 11.49-15.83zm0 98.895c7.143-.474 10.868 5.627 11.595 10.436.433.77.67.55.837-.04.35-6.17 5.874-11.22 10.992-10.53 8.328.11 13.39 9.38 11.967 17.22-1.73 9.58-6.9 15.35-10.8 21.3-4.42 6.153-10.37 15.04-12.29 19.318 0 0-6.05-9.204-13.92-20.03-5.26-7.24-9.47-15.08-9.862-21.834-.447-7.716 2.72-14.632 11.49-15.83zm-111.533 0c7.144-.474 10.868 5.627 11.595 10.436.433.77.67.55.837-.04.34-6.17 5.87-11.22 10.99-10.53 8.33.11 13.39 9.38 11.96 17.22-1.74 9.58-6.9 15.35-10.81 21.3-4.42 6.153-10.373 15.04-12.29 19.318 0 0-6.05-9.204-13.917-20.03-5.263-7.24-9.474-15.08-9.866-21.834-.448-7.716 2.72-14.632 11.49-15.83zm0 156.092c7.144.474 10.868-5.628 11.595-10.437.433-.763.67-.548.837.043.34 6.174 5.87 11.22 10.99 10.53 8.33-.108 13.39-9.376 11.96-17.22-1.74-9.58-6.9-15.35-10.81-21.292-4.42-6.15-10.373-15.03-12.29-19.31 0 0-6.05 9.208-13.917 20.03-5.263 7.24-9.474 15.08-9.866 21.838-.448 7.716 2.72 14.63 11.49 15.828zm111.533 0c7.143.474 10.868-5.628 11.595-10.437.433-.763.67-.548.837.043.35 6.174 5.874 11.22 10.992 10.53 8.328-.108 13.39-9.376 11.967-17.22-1.73-9.58-6.9-15.35-10.8-21.292-4.42-6.15-10.37-15.03-12.29-19.31 0 0-6.05 9.208-13.92 20.03-5.26 7.24-9.47 15.08-9.862 21.838-.447 7.716 2.72 14.63 11.49 15.828zm41.994-33.117c-1.583 3.472-1.757 9.405 2.97 10.208 3.563.458 5.013-1.198 5.3-3.742.143-.743.563-.788.696.058.204 2.61 2.787 4.133 4.806 3.75 5.527-.945 5.204-7.028 3.4-11.155-2.732-5.48-5.602-8.94-8.246-14.46-3.04 5.74-6.508 10.403-8.926 15.33z" fill="#d40000"/></svg>