<svg xmlns="http://www.w3.org/2000/svg" width="224.225" height="312.808"><g transform="translate(-6480.66 2435.498)"><rect ry="10.63" rx="10.63" width="223.228" height="311.811" x="6481.158" y="-2435" fill="#fff" stroke="#000" stroke-width=".997"/><path d="M6489.433-2395.65l3.027-.94c1.142 2.994 3.45 3.877 5.892 3.688 4.382-.34 5.836-5.15 6.165-9.4-1.708 1.774-4.274 2.676-6.46 2.588-6.982-.37-8.77-5.855-8.834-11.6-.194-4.848 1.847-8.357 5.348-9.965 1.86-.81 6.1-.81 7.96.15 4.29 2.22 5.87 6.05 5.58 15.19.01 7.53-1.62 16.29-9.83 16.48-4.746.65-8.35-2.98-8.84-6.18zm11.888-8.243c1.43-.886 2.23-1.716 2.87-2.962.53-1.023.7-1.553.56-3.67-.384-5.456-3.3-8.548-7.524-7.934-2.357.35-3.643 1.64-4.383 4.05-1.365 4.45.366 9.66 3.61 10.86 1.46.54 3.714.39 4.878-.34zm194.15 241.353l-3.02.942c-1.14-2.995-3.45-3.878-5.89-3.69-4.38.342-5.835 5.15-6.164 9.4 1.707-1.773 4.274-2.675 6.46-2.587 6.98.37 8.77 5.855 8.834 11.6.194 4.848-1.848 8.357-5.348 9.965-1.852.816-6.095.816-7.96-.15-4.282-2.215-5.867-6.047-5.58-15.19-.004-7.524 1.625-16.287 9.838-16.475 4.75-.644 8.354 2.98 8.84 6.185zm-11.88 8.244c-1.425.886-2.23 1.716-2.87 2.962-.523 1.023-.7 1.553-.55 3.67.384 5.456 3.3 8.548 7.524 7.934 2.356-.343 3.643-1.638 4.38-4.048 1.366-4.45-.365-9.657-3.61-10.857-1.46-.54-3.713-.384-4.88.34z" fill="#d40000"/></g><path d="M9.082 58.823c-1.583-3.472-1.757-9.405 2.97-10.208 3.563-.458 5.013 1.2 5.3 3.742.143.743.562.79.696-.058.204-2.61 2.787-4.14 4.806-3.75 5.527.94 5.204 7.02 3.398 11.15-2.73 5.48-5.6 8.94-8.245 14.45-3.037-5.74-6.507-10.4-8.925-15.33zm36.268-29.65C52.494 28.7 56.22 34.8 56.945 39.61c.434.764.67.55.837-.042.35-6.174 5.875-11.22 10.993-10.53 8.328.108 13.39 9.375 11.966 17.22-1.73 9.58-6.89 15.35-10.8 21.292-4.42 6.152-10.37 15.04-12.29 19.316 0 0-6.05-9.204-13.915-20.03-5.262-7.238-9.473-15.08-9.865-21.834-.448-7.716 2.72-14.632 11.49-15.828zm109.533 0c7.144-.474 10.868 5.628 11.595 10.437.433.764.67.55.837-.042.35-6.174 5.875-11.22 10.993-10.53 8.328.108 13.39 9.375 11.966 17.22-1.74 9.58-6.9 15.35-10.808 21.292-4.42 6.152-10.373 15.04-12.29 19.316 0 0-6.048-9.204-13.917-20.03-5.27-7.238-9.48-15.08-9.87-21.834-.45-7.716 2.72-14.632 11.49-15.828zm0 65.33c7.144-.473 10.868 5.63 11.595 10.438.433.77.67.55.837-.04.35-6.17 5.875-11.22 10.993-10.53 8.328.11 13.39 9.38 11.966 17.22-1.74 9.58-6.9 15.35-10.808 21.29-4.42 6.16-10.373 15.04-12.29 19.32 0 0-6.048-9.2-13.917-20.03-5.27-7.24-9.48-15.08-9.87-21.83-.45-7.714 2.72-14.63 11.49-15.83zm-54.82 33.154c7.144-.474 10.868 5.628 11.595 10.437.433.764.67.548.837-.043.35-6.17 5.875-11.22 10.993-10.53 8.328.11 13.39 9.38 11.966 17.22-1.74 9.59-6.9 15.35-10.808 21.3-4.42 6.15-10.373 15.04-12.29 19.32 0 0-6.048-9.205-13.917-20.03-5.27-7.238-9.48-15.08-9.87-21.835-.45-7.716 2.72-14.632 11.49-15.83zM45.35 94.504c7.144-.474 10.87 5.628 11.595 10.437.434.77.67.55.837-.04.35-6.17 5.875-11.22 10.993-10.53 8.328.11 13.39 9.38 11.966 17.22-1.73 9.58-6.89 15.35-10.8 21.29-4.42 6.16-10.37 15.04-12.29 19.32 0 0-6.05-9.2-13.915-20.03-5.262-7.24-9.473-15.08-9.865-21.83-.448-7.714 2.72-14.63 11.49-15.83zm109.533 124.39c7.144.475 10.868-5.627 11.595-10.436.433-.764.67-.548.837.043.35 6.18 5.875 11.22 10.993 10.53 8.328-.1 13.39-9.37 11.966-17.21-1.74-9.58-6.9-15.35-10.808-21.292-4.42-6.153-10.373-15.04-12.29-19.317 0 0-6.048 9.205-13.917 20.03-5.27 7.238-9.48 15.08-9.87 21.835-.45 7.716 2.72 14.633 11.49 15.83zm0 65.106c7.144.475 10.868-5.627 11.595-10.436.433-.764.67-.55.837.042.35 6.174 5.875 11.22 10.993 10.53 8.328-.108 13.39-9.375 11.966-17.22-1.74-9.58-6.9-15.35-10.808-21.292-4.42-6.152-10.373-15.04-12.29-19.317 0 0-6.048 9.205-13.917 20.03-5.27 7.24-9.48 15.082-9.87 21.835-.45 7.716 2.72 14.632 11.49 15.828zM45.35 284c7.144.475 10.87-5.627 11.595-10.436.434-.764.67-.55.837.042.35 6.174 5.875 11.22 10.993 10.53 8.328-.108 13.39-9.375 11.966-17.22-1.73-9.58-6.89-15.35-10.8-21.292-4.42-6.152-10.37-15.04-12.29-19.317 0 0-6.05 9.205-13.915 20.03-5.262 7.24-9.473 15.082-9.865 21.835-.448 7.716 2.72 14.632 11.49 15.828zm0-65.105c7.144.474 10.87-5.628 11.595-10.437.434-.764.67-.548.837.043.35 6.18 5.875 11.22 10.993 10.53 8.328-.1 13.39-9.37 11.966-17.21-1.73-9.58-6.89-15.35-10.8-21.292-4.42-6.153-10.37-15.04-12.29-19.317 0 0-6.05 9.205-13.915 20.03-5.262 7.238-9.473 15.08-9.865 21.835-.448 7.716 2.72 14.633 11.49 15.83zm152.547 30.785c-1.583 3.473-1.757 9.406 2.97 10.21 3.563.457 5.013-1.2 5.3-3.743.143-.743.563-.788.696.058.204 2.61 2.787 4.133 4.806 3.75 5.52-.945 5.2-7.028 3.39-11.155-2.73-5.48-5.6-8.938-8.246-14.452-3.04 5.74-6.508 10.405-8.926 15.333z" fill="#d40000"/></svg>