<svg xmlns="http://www.w3.org/2000/svg" width="224.225" height="312.808"><g transform="translate(-6480.66 2747.31)"><rect ry="10.63" rx="10.63" width="223.228" height="311.811" x="6481.158" y="-2746.811" fill="#fff" stroke="#000" stroke-width=".997"/><path d="M6489.607-2707.598l2.547-1.84c2.214 3.534 4.685 5.863 8.465 5.463 5.67-.382 8.02-6.22 6.83-10.623-1.15-3.945-5.85-5.87-9.58-3.763-.88.49-1.9 1.11-1.9 1.11l-1.33-2.17 8.764-10.2h-9.51v4.22h-3.65v-7.566h18.59v2.57s-4.98 5.07-6.628 7.846c4.054.15 7.322 2.67 8.49 6.66.688 2.1.38 6.902-.515 8.97-1.494 3.45-5.584 6.25-9.32 6.41-6.27.414-9.604-3.9-11.264-7.094zm206.33 233.384l-2.547 1.84c-2.214-3.533-4.685-5.863-8.465-5.462-5.674.382-8.023 6.22-6.836 10.623 1.14 3.945 5.84 5.87 9.57 3.763.88-.497 1.9-1.016 1.9-1.016l1.57 2.034-9.01 10.232h9.51v-4.22h3.65v7.566h-18.58v-2.568s4.98-5.07 6.627-7.847c-4.056-.14-7.324-2.66-8.494-6.65-.686-2.1-.377-6.9.517-8.97 1.494-3.45 5.584-6.25 9.322-6.41 6.27-.413 9.602 3.9 11.262 7.09z" fill="#d40000"/></g><path d="M10.24 61.163c-1.582-3.472-1.756-9.406 2.972-10.208 3.562-.46 5.012 1.198 5.3 3.742.142.743.562.788.695-.06.204-2.608 2.787-4.13 4.806-3.75 5.527.947 5.204 7.03 3.4 11.157-2.732 5.48-5.602 8.938-8.246 14.452-3.038-5.74-6.507-10.405-8.926-15.333zM100 29.235c7.143-.474 10.868 5.628 11.595 10.437.433.764.67.548.836-.042.35-6.175 5.88-11.22 11-10.53 8.33.108 13.39 9.375 11.97 17.218-1.738 9.582-6.9 15.35-10.807 21.293-4.422 6.16-10.373 15.04-12.29 19.32 0 0-6.05-9.2-13.92-20.03-5.26-7.24-9.472-15.08-9.864-21.83-.448-7.713 2.72-14.63 11.49-15.83zm.063 98.422c7.144-.474 10.868 5.628 11.595 10.437.433.764.67.548.837-.043.35-6.17 5.875-11.22 10.992-10.53 8.328.11 13.39 9.38 11.967 17.22-1.74 9.59-6.9 15.35-10.808 21.3-4.42 6.15-10.373 15.04-12.29 19.32 0 0-6.048-9.205-13.917-20.03-5.27-7.238-9.48-15.08-9.87-21.835-.45-7.716 2.72-14.632 11.49-15.83zm97.165 124.718c-1.583 3.472-1.757 9.405 2.97 10.208 3.563.458 5.013-1.2 5.3-3.742.143-.74.563-.78.696.06.204 2.61 2.787 4.14 4.806 3.75 5.527-.94 5.204-7.03 3.4-11.15-2.732-5.48-5.602-8.94-8.246-14.45-3.04 5.74-6.508 10.406-8.926 15.334zM100 283.832c7.143.474 10.868-5.628 11.595-10.437.433-.764.67-.548.836.043.35 6.174 5.88 11.22 11 10.53 8.33-.11 13.39-9.376 11.97-17.22-1.738-9.58-6.9-15.35-10.807-21.292-4.422-6.153-10.373-15.04-12.29-19.317 0 0-6.05 9.2-13.92 20.03-5.26 7.23-9.472 15.08-9.864 21.83-.448 7.71 2.72 14.63 11.49 15.83z" fill="#d40000"/></svg>