<svg xmlns="http://www.w3.org/2000/svg" width="224.225" height="312.808"><g transform="translate(-6703.887 2435.498)"><rect ry="10.63" rx="10.63" width="223.228" height="311.811" x="6704.386" y="-2435" fill="#fff" stroke="#000" stroke-width=".997"/><path d="M6712.014-2389.656v-31.506h3.11v31.506zm12.33-31.506c-2.995 0-5.402 2.686-5.402 6.022v19.462c0 3.336 2.407 6.022 5.402 6.022h1.745c2.99 0 5.4-2.686 5.4-6.022v-19.462c0-3.336-2.41-6.022-5.41-6.022h-1.746zm.9 2.978c1.77 0 3.192 1.337 3.192 3v19.724c0 1.665-1.423 3.006-3.19 3.006-1.77 0-3.193-1.34-3.193-3.006v-19.723c0-1.664 1.423-3 3.192-3zm194.742 249.65v31.507h-3.11v-31.506zm-12.33 31.507c2.994 0 5.402-2.686 5.402-6.022v-19.46c0-3.33-2.408-6.02-5.402-6.02h-1.745c-2.99 0-5.4 2.69-5.4 6.02v19.46c0 3.34 2.41 6.03 5.41 6.03h1.746zm-.9-2.978c-1.77 0-3.192-1.337-3.192-3v-19.724c0-1.66 1.423-3 3.19-3 1.77 0 3.193 1.34 3.193 3.01v19.72c0 1.664-1.423 3-3.192 3z" fill="#d40000"/></g><path d="M9.023 60.638c-1.583-3.472-1.757-9.406 2.97-10.208 3.563-.46 5.012 1.198 5.3 3.742.143.743.562.788.695-.06.205-2.608 2.788-4.13 4.807-3.75 5.526.947 5.204 7.03 3.398 11.157-2.73 5.47-5.6 8.93-8.245 14.45-3.038-5.74-6.507-10.41-8.925-15.34zm34.502-31.816c7.144-.475 10.868 5.627 11.595 10.436.434.764.67.55.837-.042.35-6.174 5.875-11.22 10.993-10.53 8.328.108 13.39 9.375 11.966 17.218-1.738 9.582-6.9 15.35-10.808 21.293-4.42 6.153-10.372 15.04-12.29 19.317 0 0-6.048-9.204-13.917-20.03-5.26-7.238-9.47-15.082-9.86-21.835-.45-7.72 2.72-14.64 11.49-15.83zm56.183 32.665c7.144-.475 10.87 5.627 11.595 10.436.434.764.67.55.837-.042.35-6.17 5.875-11.22 10.993-10.53 8.328.11 13.39 9.38 11.966 17.22-1.74 9.58-6.9 15.35-10.81 21.3-4.42 6.15-10.38 15.04-12.29 19.32 0 0-6.05-9.205-13.92-20.03-5.26-7.24-9.478-15.08-9.87-21.835-.45-7.716 2.72-14.632 11.49-15.83zm55.35-32.665c7.144-.475 10.868 5.627 11.595 10.436.433.764.67.55.837-.042.35-6.174 5.875-11.22 10.993-10.53 8.328.108 13.39 9.375 11.966 17.218-1.74 9.582-6.9 15.35-10.81 21.293-4.42 6.153-10.38 15.04-12.29 19.317 0 0-6.05-9.204-13.92-20.03-5.26-7.238-9.478-15.082-9.87-21.835-.45-7.72 2.72-14.64 11.49-15.83zm0 65.33c7.144-.474 10.868 5.628 11.595 10.437.433.76.67.54.837-.05.35-6.177 5.875-11.22 10.993-10.53 8.328.11 13.39 9.373 11.966 17.22-1.74 9.58-6.9 15.35-10.81 21.29-4.42 6.15-10.38 15.04-12.29 19.316 0 0-6.05-9.205-13.92-20.03-5.26-7.238-9.478-15.08-9.87-21.835-.45-7.716 2.72-14.632 11.49-15.83zm-111.533 0c7.144-.474 10.868 5.628 11.595 10.437.434.76.67.54.837-.05.35-6.177 5.875-11.22 10.993-10.53 8.328.11 13.39 9.373 11.966 17.22-1.738 9.58-6.9 15.35-10.808 21.29-4.42 6.15-10.372 15.04-12.29 19.316 0 0-6.048-9.205-13.917-20.03-5.26-7.238-9.47-15.08-9.86-21.835-.45-7.716 2.72-14.632 11.49-15.83zm111.533 124.39c7.144.475 10.868-5.627 11.595-10.436.433-.764.67-.55.837.042.35 6.174 5.875 11.22 10.993 10.53 8.328-.108 13.39-9.375 11.966-17.218-1.74-9.582-6.9-15.35-10.81-21.293-4.42-6.153-10.38-15.04-12.29-19.317 0 0-6.05 9.204-13.92 20.03-5.26 7.238-9.478 15.082-9.87 21.835-.45 7.715 2.72 14.63 11.49 15.827zm0 65.106c7.144.474 10.868-5.628 11.595-10.437.433-.76.67-.54.837.05.35 6.177 5.875 11.22 10.993 10.53 8.328-.11 13.39-9.373 11.966-17.22-1.74-9.58-6.9-15.35-10.81-21.29-4.42-6.15-10.38-15.04-12.29-19.316 0 0-6.05 9.205-13.92 20.03-5.26 7.238-9.478 15.08-9.87 21.835-.45 7.716 2.72 14.632 11.49 15.83zM99.24 251.095c7.145.475 10.87-5.627 11.596-10.436.433-.77.67-.55.837.04.35 6.17 5.875 11.22 10.992 10.53 8.328-.11 13.39-9.38 11.967-17.22-1.74-9.58-6.9-15.35-10.808-21.3-4.42-6.153-10.373-15.04-12.29-19.318 0 0-6.048 9.204-13.917 20.03-5.262 7.24-9.473 15.08-9.865 21.834-.448 7.716 2.72 14.632 11.49 15.83zm-55.715-32.553c7.144.475 10.868-5.627 11.595-10.436.434-.764.67-.55.837.042.35 6.174 5.875 11.22 10.993 10.53 8.328-.108 13.39-9.375 11.966-17.218-1.738-9.582-6.9-15.35-10.808-21.293-4.42-6.153-10.372-15.04-12.29-19.317 0 0-6.048 9.204-13.917 20.03-5.26 7.238-9.47 15.082-9.86 21.835-.45 7.715 2.72 14.63 11.49 15.827zm0 65.106c7.144.474 10.868-5.628 11.595-10.437.434-.76.67-.54.837.05.35 6.177 5.875 11.22 10.993 10.53 8.328-.11 13.39-9.373 11.966-17.22-1.738-9.58-6.9-15.35-10.808-21.29-4.42-6.15-10.372-15.04-12.29-19.316 0 0-6.048 9.205-13.917 20.03-5.26 7.238-9.47 15.08-9.86 21.835-.45 7.716 2.72 14.632 11.49 15.83zm154.313-32.152c-1.583 3.472-1.757 9.405 2.97 10.208 3.563.458 5.013-1.2 5.3-3.742.143-.743.562-.79.696.058.204 2.61 2.787 4.133 4.806 3.75 5.527-.945 5.204-7.03 3.398-11.156-2.73-5.48-5.6-8.937-8.245-14.45-3.038 5.74-6.507 10.404-8.925 15.33z" fill="#d40000"/></svg>