<svg xmlns="http://www.w3.org/2000/svg" width="224.225" height="312.808"><g transform="translate(-6480.66 2747.31)"><rect ry="10.63" rx="10.63" width="223.228" height="311.811" x="6481.158" y="-2746.811" fill="#fff" stroke="#000" stroke-width=".997"/><path d="M6489.607-2707.598l2.547-1.84c2.214 3.534 4.685 5.863 8.465 5.463 5.67-.382 8.02-6.22 6.83-10.623-1.15-3.945-5.85-5.87-9.58-3.763-.88.49-1.9 1.11-1.9 1.11l-1.33-2.17 8.764-10.2h-9.51v4.22h-3.65v-7.566h18.59v2.57s-4.98 5.07-6.628 7.846c4.054.15 7.322 2.67 8.49 6.66.688 2.1.38 6.902-.515 8.97-1.494 3.45-5.584 6.25-9.32 6.41-6.27.414-9.604-3.9-11.264-7.094zm206.33 233.384l-2.547 1.84c-2.214-3.533-4.685-5.863-8.465-5.462-5.674.382-8.023 6.22-6.836 10.623 1.14 3.945 5.84 5.87 9.57 3.763.88-.497 1.9-1.016 1.9-1.016l1.57 2.034-9.01 10.232h9.51v-4.22h3.65v7.566h-18.58v-2.568s4.98-5.07 6.627-7.847c-4.056-.14-7.324-2.66-8.494-6.65-.686-2.1-.377-6.9.517-8.97 1.494-3.45 5.584-6.25 9.322-6.41 6.27-.413 9.602 3.9 11.262 7.09z"/></g><path d="M109.91 69.433c.014-2.026-1.588-2.065-1.57-.586-.134 7.43-6.416 11.086-10.98 10.22-7.037-1.34-9.282-8.323-9.215-12.437.207-12.696 12.988-22.058 24.52-38.334 8.45 14.69 22.397 26.23 23.223 37.585 1.098 15.1-18.01 20.73-20.737 3.14-.17-1.24-1.64-1.8-1.52-.062.418 4.823-.17 6.83 5.27 18.72h-14.22c3.15-5.555 5.024-12.375 5.24-18.236zm.073 75.547c.015 2.024-1.587 2.063-1.57.585-.133-7.43-6.415-11.087-10.98-10.22-7.035 1.338-9.28 8.323-9.214 12.436.2 12.7 12.98 22.06 24.52 38.34 8.45-14.69 22.39-26.23 23.22-37.58 1.1-15.098-18.01-20.73-20.74-3.133-.18 1.244-1.64 1.8-1.53.066.414-4.822-.176-6.83 5.265-18.72h-14.22c3.15 5.556 5.025 12.376 5.24 18.237zm-.063 98.68c.014 2.026-1.587 2.064-1.57.586-.133-7.43-6.416-11.087-10.98-10.22-7.036 1.34-9.282 8.323-9.214 12.436.207 12.697 12.987 22.06 24.52 38.335 8.45-14.69 22.397-26.23 23.223-37.586 1.09-15.09-18.01-20.72-20.74-3.13-.18 1.25-1.64 1.8-1.53.07.41-4.82-.178-6.83 5.262-18.72h-14.22c3.15 5.558 5.024 12.378 5.24 18.24zM18.49 70.22c.01-.873-.894-.466-1.016-.19-1.164 1.984-2.865 2.446-4.548 1.73-1.668-.71-2.605-2.28-2.454-4.522.31-3.438 3.035-7.2 4.355-9.326 1.252-1.93 2.628-4.222 4.076-7.154 1.698 3.363 2.56 4.32 4.406 7.39 1.62 2.706 3.89 5.354 4.06 8.624 0 2.485-1.05 4.832-3.4 5.26-1.33.24-2.58-.442-3.506-2.038-.28-.406-.85-.194-.84.362.166 2.094.956 3.983 2.83 6.212H15.57c1.41-1.576 2.85-3.704 2.916-6.35zm186.983 173.1c.01.87-.895.463-1.018.19-1.163-1.987-2.864-2.45-4.547-1.733-1.668.71-2.605 2.28-2.454 4.522.31 3.43 3.035 7.2 4.355 9.32 1.25 1.93 2.62 4.22 4.07 7.15 1.7-3.364 2.56-4.32 4.4-7.392 1.626-2.704 3.893-5.353 4.068-8.62 0-2.486-1.046-4.83-3.4-5.26-1.33-.24-2.578.44-3.503 2.036-.28.406-.85.194-.84-.363.166-2.09.956-3.98 2.83-6.21h-6.887c1.41 1.577 2.85 3.704 2.917 6.35z"/></svg>