<svg xmlns="http://www.w3.org/2000/svg" width="224.225" height="312.808"><title>Vectorized Playing Cards 1.0</title><g transform="translate(-995.634 -1753.852)"><rect y="1754.351" x="996.133" height="311.811" width="223.228" rx="10.63" ry="10.63" fill="#fff" stroke="#000" stroke-width=".997"/><path d="M1025.792 1780.136h163.532l.3 261.366-163.967-.436s-.006-170.555.135-260.93zm116.157 259.485c-6.09-10.98-15.72-28.88-16-29.02-3.56 1.89-39.85 6.72-57.3 2.04-5.97 8.927-11.84 17.76-17.03 26.61zm-55.74-32.86c-.914.02-1.93.58-1.744.1.11-.28.366-3.095.48-4.103.272-.45.657.727.613 1.82-.026.625.277.178 2.344.286 2.235.116 4.066.533 4.825.696 2.642.57 7.756.16 9.95-1.424 1.184-.86 1.633.068.41.99-5.523 4.16-9.9 2.574-14.7 1.877-.715-.106-1.44-.25-2.18-.234zm2.35-3.94c-.346-.22-.57-.244-1.01-.04-1.696.786-1.25-.342-.03-1.48.556-.52.54-.782.12-1.33-.217-.274-.575-.31-.49-.722.366-1.783 2.885-4.48 5.7-5.685 1.17-.502 1.357.047-.124.91-2.277 1.33-3.014 2.466-1.726 2.004 2.5-.897 4.777-.265 7.97 1.32.915.452 1.33.54 2.11.46.574-.475 1.088.094 1.443.39.223.18.27.265.525.206 1.82-.427.73.725-1.754 2.53-4.452 3.124-9.307 4.6-12.733 1.433zm6.845.77c1.82-.545 4.04-1.683 5.4-2.87 1.653-1.442.72-1.223-1.18-.314-2.75 1.316-4.68 1.697-7.77 1.626-2.59-.06-2.51-.163-2.606.158-.33 1.126 3.233 2.276 6.157 1.4zm-5.025-4.396c.148-.485.26-1.13.13-1.34-.24-.38-.754-.1-1.41.72-.405.51-.35.58.05.98.2.136.35.236.47.305.554.234.643-.275.76-.665zm1.133.664c.795-2.693 2.58-2.64 3.85-.063l.9.005c-1.847-5.014-5.418-2.474-5.537.02.42.14.788.04.788.04zm6.66-.453c.842-.466.72-.784-.354-1.333-.764-.39-1.167-.47-1.306-.216.01.552.032 1.35.356 1.79.336.2.798 0 1.3-.24zm-11.8-7.67c-.155-.254-.128-.716.46-.986 3.61-1.66.98-5.164-1.81-2.536-.884.72-2.2 1.054-3.215.625-.956-.413-.974-1.573.295-1.82.415-.08 1.484-.307 1.88-.58 4.845-2.574 7.42 3.026 3.98 4.89-.707.41-1.457.64-1.59.406zm-13.58-5.086c-1.966-.884-2.235-3.958-.392-5.154 1.176-.796 2.375-1.013 5.608.575 2.283 1.123 3.59-.085 3.53 1.22-.035.794-.083 1.594-1.41 1.785-2.158.31-3.63-2.6-6.4-2.32-2 .193-1.748 2.57-.3 3.05 1.922.643.755 1.406-.63.843zm36.17.447c-.36.17-.53-.613-.375-1.032.982-2.315 1.886-4.155 2.777-6.324.71-1.73 1.19-2.47 1.51-2.47.326 0 .477.255-.068 1.32-.824 2.145-3.84 8.69-3.843 8.51zm-16.15-.6c-.87-.612-.724-1.525.266-.834 1.27.89 3.36-.735 2.93-2.27-.514-1.853-2.995-2.302-5.07-.642-3.28 2.62-6.872 2.755-6.872.707.005-.583-.078-.716 1.286-.807 1.584-.107 3.372-.828 4.26-1.366 3.986-2.412 8.226-.747 7.35 3.277-.398 1.9-2.74 2.82-4.156 1.945zm-14.615-5.94c-.324-.01-.915.317-1.085.19-.33-.244-.285-.96-.557-1.723-.485-1.356-.013-.93.84-.565 1.157.444 2.254.36 3.23.022 1.007-.346 2.33-.267 4.442.007 1.7.22 2.657.156 4.2-.283 1.676-.52 1.233-.332.953.694-.18.674-.41 1.577-.622 1.794-1.16-.644-2.04-.394-2.8.044-1.25.548-2.138.642-3.16.338-.966-.544-1.538-.5-2.31-.03-1.336.643-1.927-.42-3.13-.48zm24.986-2.82c.234-.41.575-.97.895-1.603 2.59-5.105 2.765-6.525.94-8.246-2.458-2.31-4.55-1.31-6.904 3.31-.57 1.12-.913 1.96-1.144 2.307-.267.4-.578.093-.73-.062-.29-.292 2.32-5.193 3.343-6.263 2.677-2.8 7.653-.56 7.336 3.25-.16 1.92-.523 2.97-2.29 6.485-.435.87-.815 1.61-1.046 1.963-.83.55-.64-.715-.403-1.134zm-24.4-.2c.407-1.82 6.277-2.66 7.824-.276.15.23.064.223-.6.04-2.985-.98-3.577-.922-6.437.2-.43.165-.734.233-.79.037zm22.396-.346c0-.17.217-.844.55-1.494 1.956-3.844 2.496-4.77 1.9-5.49-1.165-1.4-2.727-.182-4.163 3.83-.538 1.5-.903 1.18-1.165.943-.5-.456 1.717-5.125 2.79-5.82 2.424-1.53 4.334.24 3.262 3.376-.838 1.414-1.53 3.592-2.31 4.74-.37.512-.87.36-.868-.09zm-8.78-6.24c-.117-.195.11-.456.953-2.245 1.155-2.46 1.513-3.372 1.043-4.776-.838-2.504-3.993-3.118-5.91-1.475-.627.53-1.053 1.263-1.35 1.92-.69 1.527-1.27 3.5-1.68 3.914-.36.357-.86.43-.825-.197.456-1.328.67-2.358 1.75-4.304 2.684-5.8 10.425-3.116 8.613 2.99-.673 2.21-1.45 3.89-1.906 4.434-.256.3-.68.04-.69-.27zm-1.795-1.066c0-.19.29-.735.6-1.492 1.31-3.213 1.318-4.2-.59-4.24-1.14.146-1.31.61-2.313 3.148-.324.826-.504 1.413-.697 1.664-.206.27-.595.11-.755-.05-.41-.414 1.376-4.576 2.32-5.36 2.173-1.878 4.986.79 3.668 3.182-.617 1.67-1.15 2.806-1.51 3.324-.32.457-.72.393-.717-.17zm-46.23-37.504l-6.595-.45c1.17 7.01 1.23 14.73.047 20.21-1.01 4.68-1.02 8.125-.72 12.183.35 4.72 2.36 8.726 2.867 13.74.37 3.63-.44 7.42-1.162 11.03-1.205 6.035-.956 6.665-.78 13.746.166 6.562-.45 6.33-.83 5.944-.056-.06-.11-1.22-.1-2.6.008-1.38-.08-4.757-.157-7.1-.157-4.684.367-8.82.746-10.525.774-3.467 1.64-7.017 1.108-10.854-1.085-4.84-2.616-9.676-3.153-14.343-.66-5.754.964-11.528 1.502-15.707.52-4.038-.03-11.02-1.094-13.925-.184-.965-1.053-2.225-1.053-2.225-.994-.14-1.993-.28-3.388-.274-.075 27.713 0 55.436.025 83.15l6.15 5.68 6.32-5.98zm.446 31.785s9.388 5.377 19.736 10.66c-.983-6.045 2.14-6.956 5.076-7.66-.702-11.68 10.05-9.283 11.7.864l1.06.003c1.863-5.06 3.705-8.553 7.95-9.386 3.286-.647 6.53 1.425 7.35 6.305-.144-.345 10.9-6.45 11.206 6.452 5.02-3.1 8.598-.422 10.045 3.513 2.12-3.212 7.42-3.353 9.115-3.587.59-.676 1.63-1.063 3.52-1.05 1.623-.083 3.803-1.292 4.924.18 1.706.27 3.005-.04 4.463 1.083 1.16.878 2.453 2.834 4.384 1.485 3.682-1.764 7.82-2.56 11.112-4.688 0 0-.87-1.12-.616-.96.092.06.502.59 1.12.832.22.09 2.244-1.117 2.244-1.117-13.714-15.723-24.995-46.417-17.546-74.816.207-.484-.62-.67-1.03-.84.128-.22 2.14.073 1.286 1.88-.86 5.44-1.837 11.336-2.054 15.85-.005.55.045 1.04.045 1.04 30.75 14.113 26.98 44.684 19.08 55.325l1.245 1.65c.552.368 24.19-13.35 23.41-13.913l4.474-2.213-.727-59.948-17.69-1.346s.186-.503.41-.634c.162-3.66-.167-9.07.01-13.604.07-12.95.2-17.35.03-17.71-5.457-3.578-13.593-8.806-20.44-11.34.28.08-.11 5.364-.32 5.665-6.406 2.034-3.432 4.634-5.8 7.427-1.59 1.74-5.313 2.07-7.11-.016-2.15-2.068-3.155-6.813-3.155-6.813-3.39 3.61-2.695 7.966-7.234 9.606-7.294 3.6-9.61-7.165-9.186-6.916-2.793 2.682-10.64 4.863-11.484-6.46-3.528 3.23-7.48 1.626-9.158-2.35-2.153.076-4.567 1.754-6.746 2.662-2.02.89-4.608 1.413-6.528 1.374-2.4.29-4.38.277-6.543-.365-1.02.33-3.31-.653-4.02-2.06-1.08-1.265-2.026-1.34-3.055-1.11-3.506 1.84-7.264 2.28-11.4 4.205-.26.177.36.514.152.45-.09-.03-2.175 1.016-2.175 1.016 20.955 27.42 22.095 55.1 17.703 74.72-.17.68-.266 1.17.187 1.706-.666-.117-.677.08-.8-.347l2.178-16.47c.066-1.99.316-1.84-1.44-2.583-1.623-.685-3.16-1.346-4.5-2.166-5.11-3.765-10.883-8.402-13.697-14.19-8.03-12.436-5.38-27.276.634-39.035l-1.495-1.548c-17.563 8.756-27.932 18.2-27.932 18.2l.075 58.822 18.05 2.07zm-8.704-39.28c-.58-.637-2.05-.75-2.665-.265-.142.12-.445.744-.534.72-.82-.21-1.385-.377-1.494-1.064l.867-1.307c.685-1.036 1.675-1.4 3.344-1.79.592-.138 1.486-.264 1.8-.398 1.255-.54 1.692-1.706.422-1.183-.927.253-2.223.17-2.395-.675-.143-.696-.736-.968-1.4-.886-1.22.29-2.34.927-3.42 1.566-.48.29-1.39.94-1.39.94-.143.226-.673-1.41-.18-1.887.614.073 1.14.08 1.74-.158 1.49-.594 2.93-1.308 4.435-1.88.96-.375 1.047-.344.794-1.02-.126-.25-.237-1.08-.07-1.515.174-.462.154-.694-.144-.892-.677-.45-2.302-.03-4.588 1.064-.698.332-1.157.466-1.597.82.285-.72.12-.853.11-1.607.935.117 1.775-.252 2.52-.643.614-.32 1.303-.633 2.99-.85.463-.06.253-1.74-.272-2.224-.496-.46-1.54-.47-2.803-.097-1.13.256-2.53.52-3.31 1.723-.98.922.023-1.53 1.81-2.507.78-.015 2.507-.383 2.913-.473.69-.15.8-1.76-.202-2.45-.625-.543 2.28-.558 2.22-.392-.034.097-.06.785.16.96 1.25.375 1.24 1.39 1.35 1.82 1.437 2.348 2.144.876 3.13.067-.206 5.11 1.59 5.69 1.827 6.012-2.467 4.58-.607 4.69 1.705 5.742 0 0-.878.355-1.463.32-.92-.057-2.684 1.03-3.454 1.67-.424.352-.437.057-2.135.01-1.6-.047-1.717.072-2.447.393-1.44.635-1.432 1.235-.025 1 1.498-.254 2.966.652 3.138 1.885.12.234.014.646-.01.63-.312-.056-1.02.06-1.007-.09.01-.146 0-.705-.277-1.1zm2.188-6.193c.406-.258.476-.993.123-1.29-.32-.27-1.69-.127-2.075.22-.874.683.723 1.828 1.953 1.07zm.876-3.076c.502-.39.564-1.33.13-1.874-.74-.924-2.67-.37-2.774.795-.11 1.24 1.595 1.896 2.647 1.08zm-.628-4.22c.09-1.02-.923-1.665-1.856-1.18-1.16.6-.457 1.87 1 1.794.803-.04.803-.04.855-.612zm-3.4-4.136c-.542.268-.57.9-.056 1.31 2.036 1.12 1.416-1.88.055-1.31zm142.28 6.09c-.894-3.28-3.36-.024-3.363.02-.088-3.36.55-4.86-1.98-6.005 2.54-3.833 2.01-4.36-.684-5.83.247.02 3.575-.723 4.145-2.616.128.09 5.225 1.34 5.86-1.43-1.537.695-4.562.8-4.597-2.18.286-.086 1.004.06.944.156-.4 1.91 3.093 2.383 3.665.874 0 0 1.174.78 1.69.9.058.04-1.59 2.315-3.09 2.658-2.71.892-3.643 1.132-3.647 1.67 0 .206.442.24 1.25.403 1.68.12 1.643.48 1.864 1.03.194.49.384.59.945.54 1.92-.632 2.88-.97 4.22-2.3.166-.03.355 1.4.46 1.45.012-.226-1.36.17-3.474 1.4-1.722 1.007-2.397 1.15-2.616 1.424-.164.2.255.834.3 1.522.036.577-.354.857-.067 1.04.332.206.846.17 1.52-.006 1.49-.36 2.587-.94 3.926-1.766-.285.537.192 1.898.192 1.898s-.66-.462-1.205-.222c-1.05.46-2.744 1.084-3.2 1.19-.444.105-.637.16-.81.31-.213.18-.177.612-.18 1.247-.004.446-.132.858.15.992.625.2 1.888.135 3.174-.31.55-.24 1.71-.87 1.71-.87l-.36 1.88c-.49-.547-1.89-.144-2.827.224-.473.15-.614.444-.734.855-.21.703.24 1.187.755 1.417.345.154.874.09.874.09-2.43.92-1.948 1.26-3.365.563-.613-.66-1.213-1.36-1.447-2.214zm2.542.005c-.403-.463-1.104-.73-1.513-.546-.363.19-.232.593-.116.9.305.852 2.44.58 1.63-.356zm-1.417-2.345c.57-.744-.056-1.744-1.11-1.75-.73-.005-1.12.45-1.11 1.02.016 1.077 1.75 1.35 2.223.73zm-1.17-2.833c1.057-.287 1.38-1.305.65-2.04-.517-.528-2.144-.59-2.58-.12-1.11 1.213.135 2.645 1.93 2.158zm.88-3.726c.62-.313.74-.84.193-1.435-.992-.842-2.726-.186-2.166 1.04.275.602 1.22.782 1.975.398zm-126.94-28.27c.93-.335 1.604-1.054 2.585-1.61.66-.36.462-.3-.384-.792-.664-.307-2-1.65-2.12-1.33-.307.572-.26 3.706-.08 3.732zm23.55 32.825c.04-.64.116-1.603.1-2.31.124-1.346-.12-.953-.85-.513-.54.35-1.41.878-1.75 1.047-1.344.664-1.184.7.71 1.605 1.584.707 1.762.637 1.79.17zm-1.843-3.152c1.283-.804 1.71-1.22 1.77-2.123.007-1.04-.114-1.42-1.03-.7-3.123 2.457-6.338-2.36-3.48-5.04.584-.544 1.325-1.4 1.33-1.615.048-1.552-1.707-.045-3.14 2.087-1.59 1.94-2.578 4.365-1.185 6.693 1.113 1.704 3.594 2.042 5.733.7zm-7.097-3.134c-.056-.76.16-1.61.26-1.866.35-.89.335-1-1.256-.26-.633.21-1.39.38-1.682.377-1.3-.005-.977.4.89 1.95 1.87 1.55 1.93 1.69 1.79-.2zm4.428-7.447c.198-.468-.214-.648-.61-.56-.03.007-.712.513-1.513 1.14-2.427 1.904-4.207 2.126-5.412.676-1.22-1.47-.71-3.213 2.02-5.21 1.204-.88 1.493-.94.914-1.324-.44-.294-.467-.25-2.198.918-3.488 2.35-4.532 3.957-4.183 6.296.072.96.577 1.462 1.067 1.836 3.328 2.934 7.94-1.11 9.92-3.774zm3.52 1.388l-.21-3.235c-3.546-3.045-6.91-8.243-8.072-12.55-1.185-3.83-.24-11.817-.063-11.224l-1.915-3.612c-1.668 3.835-2.397 9.68-.582 15.64 1.54 5.055 4.623 11.18 10.842 14.98zm-14.936-1.884c1.13-2.155 1.16-1.92-1.014-1.94-2.486-.02-2.208-.323-.808 1.79 1.123 1.695.933 1.843 1.82.15zm1.493-2.95c1.43-.46 1.104-.355 3.004-1.584 2.18-1.412 2.27-2.183.08-1.096-2.81 1.396-5.277 1.04-6.193-.784-.817-1.625.887-3.65 3.692-4.443.96-.27 1.46-.5 1.463-.917.007-1.272-4.768.428-6.736 2.35-3.8 3.714-.477 8.12 4.68 6.47zm-6.14-5.783c.127-.194.47-.658.784-1.14 1.344-1.555.213-1.09-.98-1.516-.63-.232-1.28-.462-1.65-.406-.715.11.24 1.48.47 2.37.643 1.975.57 1.915 1.373.695zm5.084-3.558c2.407-.237 2.65-.468 2.655-.965.003-.494-.294-.4-1.503-.23-3.2.44-5.32-.37-5.777-2.07-.473-1.754 1.695-3.413 4.584-3.315 1.565.052 2.607-.487 1.654-1.004-.493-.27-4.803-.21-5.78.07-2.86.83-4.03 2.417-3.77 4.61.4 2.71 1.886 3.49 5.51 3.297.695-.035 1.58-.313 2.43-.395zm1.86-8.83c.004-.424-.683-.485-2.955-.82-3.026-.448-4.378-3.236-2.554-4.91.69-.64 2.34-.91 3.257-.745 1.993.36 3.213.77 3.232.095 0-.6-.58-.643-4.32-1.43-5.66-1.19-8.77 4.337-4.24 7.04 1.714 1.03 7.57 1.613 7.58.77zm1.405-7.91c0-.21-.183-.376-.61-.54-.624-.245-1.042-.29-2.447-1.23-1.87-1.255-2.436-3.7-1.19-5.06 1.21-1.273-.967-2.773-2.7-1.34-1.804 1.49-1.65 3.83.423 5.683 1.91 1.706 6.517 3.48 6.523 2.484zm-9.168-.33c1.966-.92 3.38-.39 1.874-1.66-.845-.78-1.566-2.994-2.153-1.115-.45 1.12-.78 3.094-.794 3.29.133.132.103-.097 1.07-.518zm69.564-4.77c-2.24-.556-3.77-3.145-3.2-5.633.32-1.406 1.65-4.72 1.913-4.926.99-.78.854.258-.053 2.06-.83 1.84-1.47 3.32-1.217 4.417.364 1.558.998 2.748 2.626 3.144 1.143.28 2.222-.197 2.953-.71.965-.68 1.88-2.423 2.97-4.836.35-.68.82-2.76 1.4-1.49.28.66-2.05 5.038-2.92 6.147-1.097 1.394-2.95 2.213-4.475 1.825zm13.504-1.466c1.09 1.04 2.936 1.564 4.14 1.19 2.954-1.035 4.296-3.813 3.178-8.28-.563-2.503-1.05-4.06-1.54-4.37-.24-.15-.5.13-.73.48-.204.31.11.747.447 1.925 1.41 4.962 1.042 7.207-.68 8.155-2.5 1.376-4.643-.21-5.37-3.75-.117-.547-.46-1.663-.46-1.663-.19-.493-1.74-.384-1.177 1.264.17 1.277 1.35 4.32 2.19 5.048zm12.674-13c-.04-1.745-3.73-9.32-3.98-8.518 0 0-.017 1.77.127 2.468.055.264.247.508.404.788 3.204 5.69 2.71 9.7-.07 10.58-.95.427-1.155.85-.73 1.29.856.927 3.005-.907 3.423-1.573 1.052-1.493.906-4.218.822-5.034zm-53.7-1.287c1.21-1.343 3.86-5.98 4.674-8.41 2.514-7.24 5.156-15.565 5.887-23.26.08-.972.13-2.45.18-2.576-.197-.214-1.443-.1-1.86.11-.2.26-.07.837-.14 1.59-1.127 8.65-3.2 16.532-6.28 24.555-1.35 3.486-2.6 5.78-4.22 8.204-.287.42-.647.86-.79 1.104-.41.59-.104.975.37.726.846-.477 1.574-1.39 2.18-2.046zm-4.12 2.105c3.853-5.28 6.593-11.62 8.723-19.106 1.346-4.843 2.53-9.744 3.24-14.74.147-1.065.265-1.78.056-2.097-.52-.14-1.495-.05-1.83.208-.208.31-.07.933-.26 2.37-.494 3.717-1.23 7.45-2.48 12.335-3.29 10.813-6.313 16.867-10.285 22.164-.32.445-.606.734-.577.923.04.276.426.253 1.06-.14.822-.645 1.765-1.21 2.35-1.918zm-5.876 2.806c1.886-1.067 5.207-5.704 7.553-10.7 2.633-5.896 4.837-12.556 6.28-18.324.625-2.528 1.515-8.84 1.388-9.256-.15-.49-1.994-.08-1.74.26 0 0-1.83 10.15-3.8 15.74-3.657 10.385-6.82 17.43-10.225 20.817l-1.327 1.314s.018.387.302.446c.678.124 1.13-.07 1.568-.296zm-2.886-.415c4.252-2.37 9.24-13.45 13.305-27.357.696-2.38 1.97-10.35 1.97-10.35s-1.694.064-2.02.42c-.33.48-.278 1.706-.75 4.62-1.83 8.795-4.59 16.82-8.738 24.75-1.793 3.515-4.773 6.825-6.655 7.768-1.05.527-1.36 1.107-.59 1.15 1.3.047 1.413.317 2.356-.187zm58.31 123.88c-3.19-.01-5.903 3.042-8.32 6.88-5.136 7.86-8.59 20.996-9.43 27.976l1.94-.362c-.29.133 3.624-18.582 9.586-26.595 3.224-5.057 3.088-5.13 4.898-5.597 2.288-.588 4.123 1.88 2.988 3.37-.41.5-.86.13-.734-.586.405-2.29-2.944-2.73-3.88-.48-1.076 2.584 1.786 4.89 4.582 3.874 2.496-.88 3.543-4.36 1.79-6.934-.9-.87-2.207-1.642-3.42-1.546zm-16.8-.32c-3.82 4.785-5.715 9.702-8.06 16.416-2.346 6.71-4.03 13.27-4.76 20.798l2.06-.265c-.074-4.84 5.245-27.884 12.72-36.516.417-.547.75-1 .72-1.128-.414-1.165-2.186.238-2.68.696zm8.44-1.786c-4.952 4.043-8.91 12.883-11.52 21.055-2.82 8.833-4.083 16.927-3.87 16.927l1.966-.29c-.146-.512 5.53-31.636 16.06-37.303.914-.453 1.105-.91.335-1.11-1.186-.165-2.14.223-2.97.718zm5.546.02c-10.816 1.42-17.883 34.503-18.12 37.25-.002.042-.04.256-.04.256l2.155-.445.03-.16c1.482-8.453 2.926-14.38 6.297-22.02 2.628-5.663 6.253-12.903 11.67-13.605.44-.058.856.12.702-.393-.33-.81-1.95-.914-2.696-.89zm-64.454-10.42c-3.906 1-4.034 5.673-1.43 11.644.196.45.16.7.36.87.445.39.794-.15.844-.51.074-.54-.158-1.27-.57-2.332-1.61-4.133-1.226-6.515.37-7.568 4.09-2.1 5.19 2.213 5.806 4.198.15.484.204 1.15.47 1.185.817.113 1.206-.176 1.193-.176 0 0-1.084-3.715-1.744-5.11-1.07-2.26-3.61-2.73-5.3-2.2zm-28.355 4.41l-.04 49.254-7.48 7.014c-3.21-2.746-7.43-7.047-7.43-7.047l.134-83.266-2.41-.194c-.59 35.78-.17 72.088-.2 107.93l22.125.166 18.31-28.54s.232-.34.305-.52c.225-.55.2-1.37.09-4.406-.046-1.234.093-2.18-.09-2.47-.185-.294-.575-.084-.94.08-.37.165-.592.106-.392-.33.112-.248.48-.79.795-1.31 1.03-1.685 1.28-2.224.932-4.09-.085-.46-.507-.85-.874-1.39-3.08-4.54-4.336-11.27-2.806-16.2.488-2.18.312-2.62-.74-4.32zm96.85-52.96c-2.01-1.03-1.972-1.01-1.984.942.01 1.46.04 1.81.588 1.614.792-.4 1.762-.77 2.494-1.08 1.397-.48-.378-1.096-1.098-1.48zm7.964 5.07c-1.56-1.243-.986-1.1-1.428 1.706-.268 1.693-.612 1.737 1.144 1.176.996-.345 3.045-.128 2.126-1.296.006.02-1.538-1.33-1.844-1.59zm-62.728 43.065c-2.396 1.446-4.842 8.457-4.842 8.457-8.37.995-11.87 9.214-12.245 16.067-.296 5.41-.663 11.73-.116 12.28 5.484-2.46 7.6.38 8.12-.384.235-.336-1.22-1.446-3.046-2.44-.426-.23-1.08-.648-1.33-.854-.67-.55 1.33-.078 2.59.78 1.61 1.094 1.88.866 1.18-2.33-.76-3.476-.883-3.9 1.79-5.28 1.07-.55 1.68-1.018 2.446-1.876.615-.685.77-.852.546.156-.39 1.746-1.946 2.51-3.347 3.217-.7.358-.987 1.076-.99 1.693-.005.628.72 4.025 1.053 5.11.31 1.03.424 2.064.663 3.115.63 2.73.67 3.266.35 5.245-.184 1.16-.28 1.825-.214 2.527.06.638.15 1.505.15 1.505 0-.03-1.496-1.533-4.773-.244-2.36.93-4.23-.04-5.55-.725-.306 1.073-.237 2.24-.2 3.473 13.624 2.49 25.26 2.156 35.06 1.13.252-2.892 1.49-12.092 4.08-20.39 1.08-3.45 2.3-7.09 3.678-9.52.94-1.654 1.897-2.77 2.236-2.963.105-.066.115-.1.113-.145 0-.093 0-.17-.005-.26-.036-.538-.166-1.37-.63-1.74-1.13-.9-2.934.26-3.527 2.27-.52 1.202-2.89 6.41-3.06 6.322-.14-.09-.47-.096-.35-.498.907-2.11 2.154-4.34 2.856-6.236.97-2.728 3.08-4.168 4.657-2.448.54.59.76 1.13 1.007 1.32.187.14.44.043.593-.19.595-.895-.783-2.926-2.262-3.334-2.133-.59-3.723.966-6.143 6.01-1.4 2.91-1.65 3.642-1.87 3.42-.05.02-.42.02-.284-.547.29-1.213 2.143-4.736 3.486-6.97 1.99-3.31 5.68-3.577 7.234-.706.237.39.25.902.512 1.25.477.617 1.26.495 1.455-.516-.21-.67-1.51-3.085-2.41-3.506-2.076-1.425-4.595-1.145-6.715.746-.48.428-.983 1.3-2.39 4.152-2.07 4.574-2.126 4.59-2.692 3.854.834-2.225 3.026-5.84 3.91-8.06.17-.33.203-.685.19-1.026-.052-1.612.212-4.463-3.202-6.488-2.91-1.567-6.75.082-8.06 3.167-1 2.363-1.735 3.986-2.24 4.32-.71.47-.577-.184-.507-.422 1.01-2.137 2.43-4.3 2.655-6.45.147-5.823-5.76-7.976-9.6-5.037zm-30.498-109.12c4.61-2.14 7.766-3.22 12.463-4.603.638-.28.74-.343.065-1.676-2.976-5.89 5.19-10.582 7.965-4.802.37.77.455 1.197.82.83.682-.896 1.493-2.166 2.336-3.615 3.125-4.84 4.54-10.358 6.204-15.228.69-2.863 1.656-5.854 1.93-8.923-6.2-10.782-10.515-21.157-17.094-30.757l-43.38-.03-.163 86.676c12.13-10.117 20.388-13.776 28.86-17.876zm48.833-3.185c.53-.55.985-1.473 2.87-5.342.338-.69.876-1.762 1.095-2.26.283-.91 1.343-1.48.826.15-.117.352-.32.827-.64 1.458-.627 1.13-1.223 2.51-1.67 3.41-2.412 4.835-2.297 7.65.398 9.748 2.014 1.924 6.243 2.14 8.493-.965.338-.502.638-1.146.736-1.382.98-2.37 1.7-3.557 1.886-3.792 1-1.27 1.16.303-.336 2.725-1.713 2.777-1.742 5.785-.26 7.902 2.195 3.136 6.365 3.225 8.983.71 1.36-1.596 2.442-3.624 3.313-6.216.192-.578.39-1.005.533-1.34.214-.52.53-.71 1.34-.87 5.573-1.066 10.25-6.783 10.913-13.024.09-.84.33-2.333.415-3.22.174-1.77.18-10.93.004-11.476-.093-.296-.26-.45-.62-.448-.28.003-.675.1-1.24.303-1.838.654-2.69.82-4.458.19-.584-.21-.987-.28-1.226-.26-.78.067.256 1.183 2.526 2.417.97.528 1.74 1.24.952 1.187-.23-.016-2.97-1.43-3.35-1.66-1.247-.767-.92.196-.28 2.73.865 3.4.367 4.36-2.32 5.69-.502.25-1.167.77-1.505 1.1-1.427 2.104-1.06.554-.34-.567 1.225-1.286.473-1.72-2.04-.83-2.867 1.01-4.163.27-4.965-1.32-.906-1.805.8-4.12 2.223-4.076.46.015.376.18-.3.644-.82.56-1.21 1.1-1.297 2.053-.175 1.95 1.22 2.776 3.168 1.47.92-.617 1.644-1.043 2.34-1.2.692-.158 1.73.1 1.725.65 0 .23-.03.786.017.91.182.616 1.17-.257 1.6-.567 1.466-1.096 1.418-1.312 1.018-3.09-.656-2.49-.986-4.765-1.61-7.29-.335-1.32-.39-2.813-.188-4.16.102-.675.365-2.063.418-3.013.053-.95-.006-2.31.03-2.307 1.456 1.113 2.05 1.308 3.47.768 2.2-.9 3.59-.805 5.444.08.684.33 1.31.56 1.31.56l.083-2.857s-1.714-.353-4.886-.77c-9.547-1.253-29.138-1.52-29.867-.366-.185.29-.37 2.333-.89 5.17-1.155 5.897-2.45 11.773-4.183 17.527-.356 1.175-.695 1.647-.514 1.68.074.017.43-.44.593-.63.926-1.07.215 1.475-1.187 4.54-.126.276-.23.58-.23.673 0 .186-.88 2.32-1.49 3.61-.377.805-.69 1.046-.687.53.427-1.762 1.553-4.045 1.716-5.62-.99 1.426-2.427 3.778-3.51 5.18-.205.38.01.495.183.96.654 1.747 2.237 1.9 3.15.324.51-.88 2.096-4.2 2.647-5.65.568-1.496.967-2.284 1.156-2.38.376-.197.45.652-.224 2.065-2.04 4.285-2.914 6.69-3.913 7.574-.773.69-2.114.645-2.86-.58-1.263-2.075-2.34-1.387-1.182.74 1.2 2.2 3.936 2.405 5.365.425.474-.654 2.694-4.89 3.39-6.61.39-.963.807-1.71.946-1.765.747-.284-.104 1.91-2.245 6.306-.694 1.7-1.808 3.48-3.316 4.03-3.666.8-4.16-1.133-5.436-3.34-.62-.547-1.18.33-.945 1.3.383 1.575 1.102 2.19 2.212 2.98 2.32 1.476 5.544.46 6.712-1.22zm16.35 9.2c-.333-.735-.285-1.48-.115-2.177.384-1.57 1.02-3.09 1.763-4.415 1.203-.568.284 1.695.134 2.03-1.45 3.025-1.59 4.195-.235 4.544 1.16.3 1.783-.41 2.88-3.12.563-1.39.79-2.007.987-2.09.425-.167.628.003.6.428-.723 1.78-1.29 3.652-2.482 5.13-1.168.975-2.924.98-3.534-.326zm-10.885-2.323c-.505-.1-1.37-.75-1.97-1.3-2.05-1.875-1.71-4.47.83-9.345.2-.377.936-1.85 1.174-2.335.426-.868.844-.53.84.045 0 .16-.635 1.507-1.277 2.757-2.808 5.485-2.71 7.72.016 9.027 2.662 1.273 3.855.54 5.98-3.647 1.227-3.143 1.832-3.195 1.765-2-.005.445-1.49 3.46-2.45 4.86-1.39 2.03-2.596 2.39-4.91 1.94zm.202-2.645c-1.047-.644-1.474-2.252-.856-3.57.563-1.084 2.003-5.244 2.68-5.48 1.087-.036.507.875-.84 3.433-1.596 3.39-1.54 4.296-.31 4.815 1.14.48 1.68-.503 3.36-4.47.266-.62.635-1.267.85-1.13.268-.02.73.18-.152 1.976-.207.43-.563 1.33-.956 2.17-1.15 2.45-2.45 3.077-3.774 2.26zm18.87-7.192c-.46-.235-2.617-1.082-2.298-1.783.04-.064.163-.012.23.03 1.97 1.32 4.426 1.658 6.99-.176.43-.38.75-.123.51.354-.776 1.536-4.228 2.193-5.435 1.58zm-6.343-2.227c.06-.15.24-.59.397-1.18.237-.89.18-1.54.39-1.43.896.486 2.495.497 3.278.02.86-.522 2.6-.682 3.236-.27.905.59 1.37.315 2.002-.18.716-.56.73-.32 2.024.13.957.33 1.333.558 1.74.485.155-.03.47-.38.57-.363.31.056.348.938.635 1.944.255.89.11 1.105-.69.57-.592-.395-2.3-.582-4.08-.04-1.313.405-1.62.24-2.582.08-2.408-.407-4.145-.72-5.94.317-.96.554-1.305.84-.98-.08zm-5.984-4.4c-1.167-2.336 1.516-5.43 3.874-4.34.78.364 1.476 1.736.32 1.106-5.364-1.08-4.024 6.76 1.735 2.62 3.825-2.54 6.533-2.93 6.76-.477-.11.902-.91.76-1.52.84-1.586.22-2.173.48-4.01 1.266-2.797.88-5.53 1.6-7.163-1.017zm20.982 1.08c-1.31-.336-2.446-.852-3.81-1.1-1.35-.234-1.96-.94-1.717-1.886.257-.984 1.61-1.09 3.64.15 2.258 1.376 3.89 1.71 4.717 1.19 1.67-1.047.77-2.754-.823-3.19-1.197-.332-.318-.796.967-.414 2.074.782 2.118 4.523-.014 5.3-.713.26-1.97.19-2.96-.05zm-18.266-12.384c1.523-.94 2.994-1.78 3.517-2.34.275-.295 1.04-1.283.446-.98-3.106 1.86-6.71.314-9.32-.96-1.256-.586-.948-.327-1.91-.263-.654.045-1.18.18-1.295-.285-.054-.205-.42-.12-.65-.142-.968-.096-.358-1.37 1.67-2.777 2.39-1.66 4.475-2.743 6.545-3.19 2.15-.463 4.342-.2 5.95 1.346.62.594.564.99 1.13.625 1.29-.83 1.3.273.21 1.296-.745.703-.472.894.44 1.56.437.32.08.625-.164 1.09-.09.284-.02.595-.063.81-.205 1-4.758 4.528-6.406 5.13-1.132.21-.54-.642-.105-.92zm3.16-6.484l-.754.01c-.86 2.623-2.45 3.517-3.77.37l-.607.06c-.027 2.666 4.563 4.34 5.13-.44zm-4.97 2.46c-.31-.523-.66-1.722-.987-1.74-.89-.036-2.115.123-1.825.67.46.87 3.172 1.675 2.81 1.07zm6.084-.47c.818-.49.992-.83.458-1.37-.688-.7-1.048-.342-1.264.773-.184.96-.05 1.116.81.6zm-11.092-1.843c5.48-2.478 7.56-2.798 9.786-2.185.517.142.974.43 1.26.413 1.07-.065.39-1.257-1.525-1.94-2.188-.78-3.574-.426-7.775 1.76-2.46 1.28-4.46 3.174-1.745 1.95zm15.884-3.007c-.08-.147-.41-1.132-.508-1.492-.092-.36-.18-.73-.28-.73-2.543.407-4.78-.07-5.38-.21-3.845-.917-7.56-.73-10.334.353-.68.264-1.52.693-1.6.77-.22.203-.544-.03-.54-.285 0-.3 1.702-1.645 2.775-2.176 3.266-1.617 6.71-1.89 10.49-.877 2.466.943 4.054.79 5.63.102.773-.338.224.498-.02 1.607-.17.768.016 1.426.05 1.86.095 1.05-.025 1.574-.285 1.078zm57.284 221.438v-86.85c-14.418 10.62-41.688 21.697-41.688 21.697 3.433 6.986-4.13 12.964-8.47 5.87-4.466 5.006-10.617 22.537-10.835 28.358 0 0 11.877 20.707 17.673 30.928zm-79.415-28.6c.397-4.36 1.33-11.75 4.24-20.352 1.22-3.61 2.69-7.75 4.77-11.458.83-1.297.888-1.798.003-1.33-.555.29-3.1 3.152-3.443 3.875-3.9 8.213-5.704 18.08-7.13 25.61-.324 1.695-.42 3.8-.42 3.8zm2.853-.354c.93-10.592 4.83-24.894 10.698-34.215.55-.89 1.23-1.66 1.206-1.967-.074-.903-2.332.66-4.084 3.337-1.955 3.873-3.915 8.004-5.415 12.577-2.114 6.457-3.66 12.42-4.26 20.516zm5.638-.884c.59-6.104 2.486-11.704 4.077-17.314 1.947-6.86 4.544-11.91 7.57-16.456.97-1.456 2.116-2.82 3.205-4.21.14-.17.277-.47.245-.596-.7-.122-1.253.095-1.793.397-.755.42-1.817 1.488-2.437 2.277-4.31 5.487-6.63 11.894-8.78 18.37-2.068 6.214-3.557 12.193-3.848 17.822zm-38.713-4.68c.868-.066 1.426.097 1.678-.133.246-.23.165-.844.244-1.63.166-1.68-.01-1.588-1.06-.5-1.74 1.795-4.917 2.487-6.807 1.4-.95-.55-1.614-.93-1.704-.473-.107.53.04.937.446 1.22 2.29 1.04 4.46.326 7.2.11zm-2.045-1.285c1.204-.4 2.43-1.04 3.12-2.022.657-.934.646-1.07.15-.89-2.453 1.203-4.06 1.815-6.25 1.483-2.968-.45-3.09-.073-1.13 1.152 1.282.8 2.346.824 4.11.28zm-4.355-3.753c.46-.337.58-1.714.21-1.792-.377-.08-.92.604-1.056 1.16-.15.74.397.928.846.633zm4.59-.06l.79-.07c-.402-3.453-4.16-3.602-4.85.346l.593.09c.776-3.15 3.047-3.06 3.47-.364zm2.48-.555c1.15-.64.75-1.43-.8-1.735-1.017-.24-.96.593-.433 1.72.262.56.445.453 1.23.015zm-8.847-4.233c-.01-.384-.168-1.005-.35-1.38-1.325-2.706-2.056-5.905-1.906-9.88.11-2.85.144-3.73-.45-3.734-.83.398-1.318 5.7-.263 10.114.743 3.114 3.023 6.98 2.97 4.88zm-.032-4.315c-.08-1.49.25-4.826.086-5.553-.214-.957-.782-1.82-1.103-2.05-.497-.36-.62.326-.45 2.115.405 4.195 1.08 7.372 1.47 5.486zm.42-7.64c.328-.587.2-1.21-.52-2.615-2.84-5.527-3.207-9.305-.24-10.677.33-.154.54-.183.76-.305.935-.516.58-1.455-.82-1.07-3.863 1.074-4.625 4.68-1.368 11.36 1.66 3.334 1.915 3.8 2.19 3.31zm.704-3.133c.05-.232.15-1.135.19-1.32.036-.185-.35-.717-.77-1.783-1.094-2.783-1.117-3.938.072-4.745.386-.227.783-.238.843-.498.09-.404.084-1.067-.16-1.26-1.703.01-2.49 1.004-2.79 1.947-.45 1.49.02 3.677 1.36 6.385.65.846.987 2.39 1.253 1.27zm1.3-3.6c.91-1.837.046-4.215-1.21-3.404-.813.528-.855 1.085-.355 2.61.61 1.864.967 1.994 1.563.795zm3.195-4.912c.364-.36.04-.877-.634-2.905-.576-1.735-.312-2.922.788-3.264 1.58-.39 2.138 2.184 2.47 3.27.17.84.724 1.07 1.214.486.136-.162.176-.297-.058-1.212-1.02-3.99-2.35-5.26-4.495-4.265-1.985.92-1.724 2.98-.283 7.316.194.58.32 1.01.46 1.07.115.05.34-.294.544-.494zm1.76-1.355c.472-.463.444-.253-.095-1.92-.613-1.9-.94-2.293-1.6-1.64-.403.4-.2.843.265 2.396.54 1.805.682 1.91 1.433 1.167zm82.42-6.5c3.136-2.16 1.843-6.03-2.287-7.47-.49-.17-1.026-.372-1.195-.453-1.898-.91-3.374-1.192-3.38-.48 0 .418.568.63 2.388 1.513 2.69 1.31 3.3 2.82 1.97 4.723-.956 1.374.837 2.946 2.5 2.17zm2.846-4.713c.274-1.108.68-2.058.87-2.703.27-1.01-.074-.777-.745-.62-1.726.895-2.964.41-2.123 1.64.93 1.637 1.703 2.9 2.003 1.68zm-.213-3.872c2.154-1.286 2.632-4.64.626-6.24-.48-.38-1.31-.884-2.316-1.19-2.04-.62-4.99-.903-6.07-.576-.23.27-.24.7-.01.824.3.11.846.184 1.63.263 3 .304 4.48 1.195 4.336 3.317-.146 2.188-1.9 3.028-5.066 2.337-1.703-.37-2.496-.19-1.813.206.814.47 2.56 1.09 4.28 1.43 1.474.256 3.15.355 4.4-.373zm-10.345-.55c2.424-5.43 3.7-19.67-10.16-29.963l.46 2.85c8.165 7.136 10.127 16.224 8.435 24.56zm12.373-9.733c-.867.56-1.593 1.144-2.707 1.64-.67.298-.685.37.22.863.44.24 1.16.676 1.437.974.48.514 1.044.71 1.256.524-.024-.808.254-3.48-.21-4.003zm-4.102 1.03c2.81-.885 4.31-2.232 3.99-4.485-.47-3.305-3.24-4.004-8.435-2.71-2.5.62-2.72 1.79-.35 1.186 2.993-.76 5.344.39 5.026 2.576-.185 1.886-1.705 2.984-4.375 2.985-1.41 0-1.844.125-1.653.632.13.343 4.642.183 5.8-.18zm-4.635-7.853c4.59-1.57 6.723-4.008 5.675-6.74-1.236-3.216-5.24-3.25-9.266-.255-1.88 1.37-1.59 1.88.23 1.18 2.36-1.082 3.88-1.25 4.847-.39 1.75 1.554.57 4.263-2.08 5.234-1.28.532-1.693.825-1.695 1.21-.004.606.23.46 2.29-.244zm7.74-.05c.12-.95-.96-4.255-1.426-3.495-.124.2-.553 1.133-1.095 1.617-1.578 1.41-1.28.877.29 1.31.87.24 2.1.85 2.23.567zm-12.14-7.056c4.64-2.68 6.41-6.508 4.008-9.05-2.163-2.287-5.746-.956-9.074 3.2-1.527 1.906-.38 1.667 1.677-.146 2.4-2.11 5.448-1.09 5.43 1.544-.005 1.127-1.602 3.02-3.113 3.9-.47.273-.54.69-.374.965.18.294.556.104 1.45-.41zm8.135-2.798c-.243-.72-1.99-3.814-2.364-3.708-.395.794-.424 1.838-.9 2.678-.645 1.266-.563 1.067 1.497 1.06 1.533-.004 1.72.21 1.766-.03zm-13.638-3.497c3.897-4.034 4.24-8.756.59-9.843-2.025-.6-5.26.857-5.27 2.363-.005.936.17 1.107.99.77 3.446-1.277 6.176 2.024 3.01 5.82-.77 1.1-.87 1.374-.647 1.6.263.265.476.166 1.326-.713zm41.987-34.485v-106.9h-22.814l-18.12 28.217-.028 6.984c0 .24.412.39.678.09 1.03-.793.633.04-.552 1.838-1.196 1.818-.83 3.315.48 5.255 2.775 4.11 4.22 11.66 3.04 15.65-.445 1.506-.544 2.114-.253 2.957.332.965.537 1.48 1.5 2.1.838.583 7.73 3.26 18.83 10.378l-.053-50.217 7-6.683 7.39 7.047.257 82.906c.005.876 1.72 1.275 2.65.367zm-4.002-83.036l-6.187-5.745-6.115 5.66c-.032 27.004.155 82.428.155 82.428l6.08.438s.444-1.263-.125-4.53c-.855-4.905-.8-10.895.57-20.006.856-5.59.006-10.436-1.29-15.54-1.126-3.4-1.166-6.55-.96-9.59.43-4.85 1.77-8.514 1.934-15.493.09-3.98-.1-7.873.05-12.78.06-.657.335-.576.385.1.186 4.444.36 8.66.4 13-.134 5.64-1.518 11.446-1.67 16.61-.114 3.576-.17 4.813 1.343 9.17 2.38 6.84.815 17.356.787 17.543-1.01 6.736-1.74 15.353 1.666 21.8l3.3.293zm-42.568 50.943c1.826-.834 2.187-2.31 1.204-5.87-.174-.632-.374-1.386-.443-1.673-.21-.88-.606-.975-1.134-.277-.315.416-.024.513.46 2.468.733 2.958.308 3.936-.794 3.93-.975-.007-1.736-.81-2.015-2.727-.094-.653-.234-1.1-.392-1.362-.266-.44-.586-.36-.843.128-.334.627.293 3.213 1.126 4.466.906 1.266 1.528 1.526 2.838.926zm-.497-2.652c.39-.726-.095-2.52-.346-3.69-.23-.654-.494-.813-.93-.707-.645.16-.613.864-.38 2.026.478 2.365.736 2.664 1.656 2.374zm5.55-4.266c2.086-1.187 2.286-3.235.882-6.96-.576-1.525-1.29-2.6-1.687-2.61-.153.97-.3 1.49-.123 1.87.164.353.438.895.634 1.35 1.187 2.746.867 4.33-.28 5.19-1.07.8-.394 1.474.573 1.164zm-68.36-1.432c4.9-1.046 9.316-8.894 12.1-15.893 2.533-7.053 5.23-14.8 5.655-21.26 0 0-1.855.084-2.08.465-.21.378-.304 1.19-.5 2.34-1.278 5.947-2.29 10.46-4.52 16.048-1.548 3.878-3.236 8.267-7.424 14.164-1.375 1.65-2.95 2.67-4.93 2.943-.5.07-1.35-.023-1.562.127-.375.265-.037.864.93 1.106.87.218 1.75.077 2.33-.04zm67.5-.92c.745-.792.82-1.733-.02-3.723-.236-.56-.343-.875-.62-.797-.59.164-1.28 1.71-.875 3.02.53 1.71.84 2.21 1.51 1.5zm-69.21-1.246c1.434-.19 3.252-1.33 4.565-3.11 2.7-3.52 4.56-7.528 5.94-10.64 1.106-2.51 3.104-7.925 3.646-9.886 1.154-4.168 1.785-6.856 2.31-9.838.05-.274.095-.71.014-.854-.57-.156-1.815-.063-2.197.32-.688 4.78-2.287 9.58-3.456 13.567-1.97 6.785-7.59 17.637-10.65 18.15-1.65.274-3.537-1.153-3.233-2.62.186-.9.31-1.24.752-1.47 1.066-.37 1.69.35.516.826-1.358 1.18 1.085 2.978 2.585 1.72 2.545-2.13-1.192-6.21-4.25-4.332-3.39 2.076-2.52 5.673-.39 7.383 1.076.86 2.32.983 3.845.78zm23.993-4.87c2.095-2.144 3.667-4.916 4.81-8.38 2.48-7.786 4.534-16.71 5.28-23.7 0 0-1.79-.184-2.187.193-.28.264-.014.52-.775 5.625-1.275 7.448-3.14 14.844-5.83 21.245-1.104 2.586-1.42 2.904-2.196 4.25-1.087 1.9-.684 2.38.9.76zm46.446-16.23c-.196-.1-.18-.035-.26.02-.287.2-.1 1.19.55 2.728 1.704 2.746 1.903 8.075 1.792 10.077-.036.6-.1.947.084 1.48.184.526.5 1.136 1.01.114.564-3.946.12-8.076-1.394-11.42-.535-1.19-1.06-2.35-1.784-2.998zm1.312 11.633c.3-1.06-.255-5.27-.94-6.75-.277-.598-.776-.644-.716.033.007 1.46-.15 4.23.007 5.053.747 1.715 1.327 2.806 1.65 1.66zm-3.866-17.007h-.803c.03 2.752-2.42 3.52-3.325.21l-.725.168c.964 4.668 5.32 2.53 4.856-.38zm-4.895 2.074c-.42-1.22-.245-1.667-1.307-1.12-.81.42-1.296.87-.154 1.417 1.014.43 1.725.478 1.46-.295zm6.136-.702c.336-.678.296-1.29-.21-1.293-.39-.004-.5.31-.61.964-.2 1.174.292 1.39.82.327zm.426-4.575c.31-.098.223-.534.14-1.088-1.328-1.84-4.61-1.278-5.79-.91-1.364.44-1.705.274-2.63-.15-.767-.14-.875.044-1.06.41-.165.32-.194.93-.248 1.994-.043.898-.01 1.316.303 1.035 1.218-1.087 2.625-2.447 4.68-2.53 2.486-.103 4.61 1.28 4.61 1.24zm-9.04 2.49c0 .37.315.14 1.125-.367 2.95-1.744 4.656-1.497 7.18-.665.56.186.91-.4.3-.9-2.997-2.453-6.688-.89-8.603 1.934zm10.68-11.306l15.987-26.356-89.073-.065 15.125 27.982c12.332-2.843 32.633-6.48 57.96-1.56z" fill="#131f67"/><path d="M1067.615 2014.89c1.887-2.807 11.23 2.192 11.724 4.173 5.52-4.34 12.24-4.656 17.64.776 5.552-6.06 11.5-5.65 17.69-2.14-.69-1.37 7.91-7.41 13.14-3.57l14.14 25.103-90.58.29c5.35-8.007 10.09-17.57 16.24-24.643zm-39.565-130.953c-.492-1.36-2.48-15.306 2.562-15.654 8.15 3.603 18.555 16.49 23.375 24.365 5.974 9.758 12.01 32.198 8.677 31.218-.48-.142 10.288 10.61 11.03 11.66 1.22 1.725-18.154 33.896-21.354 32.742-.968-.35-7.42-4.19-7.42-4.19l.185-10.733s10.14-19.96 10.7-26.628c.213-2.52-6.975-6.834-7.304-7.705-.81-2.17-.72-10.23-4.91-13.75-2.31-1.4-4.49-.954-6.83-.656-9.5-1.583-4.58-17.557-8.71-20.67zm158.992 7.165l.057 3.96c-6.26 1.36-17.33-3.926-20.67 4.59.41 9.198 2.48 13.323 3.92 16.1 1.08 2.495 8.69-.35 11.37 2.165 7.69 9.44 5.876 22.01 5.944 33.336l-3.337 1.68c-23.06-13.56-40.766-55.69-43.22-67.683-.156-7.7 21.156-32.445 21.156-32.445.047-.054 7.763 4.684 7.763 4.684.186.07-.165 32.47-.163 32.32 6.095.31 12 .902 17.168 1.283zm-46.848-29.615c-11.83 16.917-15.832 42.2-15.072 59.836 1.534 26.33 20.35 49.805 19.09 52.023-.213-.154-.71.108-.898-.06-4.334-3.843-7.36-3.17-9.577-3.205-4.236-.06-5.407 1.2-7.837 1.44-6.206.617-5.703.77-10.967-1.204-6.643-5.402-15.54-9.544-22.622-11.722-5.67.51-14.33 3.184-17.6 1.02 22.77-41.907 19.36-68.734-4.21-112.657 1.957.572 2.26 2.392 3.72 2.84 4.848 1.87 11.52 1.16 15.526-.58 4.344-1.95 8.446.906 8.39.81 8.555 6.024 18.906 9.91 24.294 12.595 1.59.82 3.603-.473 5.36-.83 3.6-.725 6.69-2.262 9.377-1.362.863.29 2.15.643 3.034 1.068zm-53.156-54.84c-1.16-2.15-13.015-24.644-13.015-24.644l88.19.53-13.23 21.7c-1.25 1.18-7.464 4.462-13.804-2.972-.12 1.07-9.41 7.68-17.4-.28-4.806 4.36-9.707 6.88-17.79 1.98-.18 1.37-6.485 7.5-12.96 3.697z" fill="#e2cf00"/><path d="M1096.687 2019.336c-8.544-7.99-17.44-.778-17.236-.32-3.38-3.43-6.68-6.24-11.14-4.86 0 0 0-1.202.037-1.23 13.29 2.428 33.648 3.057 57.443-1.912l1.222 2.55c-6.382-2.265-9.67.79-12.5 4.354-10.242-6.378-12.74-.782-17.816 1.418zm19.93-92.925l6.045-.11c1.14 17.56 15.826 44.428 16.18 44.428-1.024-1.42-10.72-.3-10.65-.12-5.33-14.208-11.185-28.4-11.575-44.188zm-35.257 41.66s-1.945-5.03-3.11-7.184c6.348-10.824 11.554-22.027 14.224-34.486l4.323.04c-1.28 17.2-15.064 43.32-15.437 41.633zm77.767-2.3c9.52-17.157 7.878-41.89-19.134-55.556 0 0 .704-18.13 2.713-18.17.453.14 12.226-.15 12.226-.15 3.084-7.56 8.048-16.703 14.983-22.876l.174 20.264c-5.14.507-8.27 2.143-9.82 6.15l-7.11 1.584c.52 20.355 8.19 39.163 30.93 56.056-5.438 4.663-24.017 14.134-23.94 13.97zm-113.97-12.79l.202-21.1c3.45-.744 6.16.254 9.01-5.92 0 0 4.78 2.266 6.363 3.1-4.467 7.985-8.324 16.515-15.585 23.92zm45.284-37.36l.24-10.71 10.187.29c-.864 3.635-1.134 7.267.02 10.9zm23.24-.13c.698-3.504 1.19-7.03-.25-10.75l11.03.19-.26 10.668zm-20.97-20.95c-1.832-21.01-16.25-44.79-16.45-44.283 1.7.272 4.69 1.112 6.336.334 1.993.33 3.72.104 3.814-.08.132-.735 13.4 30.506 11.63 43.983-.213.458-4.896.488-5.328.05zm25.49.187c1.556-9.706 5.572-27.46 15.06-41.86 1.077 2.557 1.982 5.186 3.46 7.575-7.15 10.393-11.56 22.273-14.233 34.4zm-65.935-5.232c-4.34-8.842-22.397-22.765-21.473-21.36 7.474-6.69 15.81-10.94 24.13-15.234 0 0 1.48 1.4 1.256 1.754-5.115 8.053-7.595 25.116-2.642 34.895 4.76 10.443 13.204 16.62 21.81 21.466-.664 6.53-.99 11.25-2.597 17.744 0 0-5.41-2.84-9.845-4.67-.706-12.334-3.26-23.365-10.64-34.597zm47.82-86.66c6.366 3.874 12.066 3.466 17.59-1.793 6.94 6.286 14.44 3.36 17.61.523 2.934 3.3 6.756 5.133 12.346 4.04l-1.384 2.904c.33-1.543-38.545-4.06-57.356 1.2 0 0-1.1-2.19-.98-2.21 1.64-.1 7.088 1.916 12.178-4.67z" fill="#d40000"/><path d="M1001.678 1765.348v2.957l2.842-.154v25.53l-3.072.016v3.034h8.525v-3.034h-2.228v-7.34l3.72-4.837 4.882 12.175h-3.072v3.03h9.33v-3.032h-2.586l-6.52-15.595 6.67-9.94h2.09v-2.805h-8.99v2.805h2.82l-8.35 12.187v-12.187h2.23v-2.803zm71.05 15.958l15.716 29.244s.46-.085.69-.13c21.782-4.253 39.034-4.834 57.563-1.58l16.472-27.225c-29.98-.34-90.45-.31-90.45-.31zm1.752 1.245l87.39.1-4.916 8.06c-2.943-.91-4.584.44-4.996 3.26 0 0-.364-.16-1.047-.23-4.3-.465-4.85 5.206-.83 5.89 1.03.175 1.2-.03 1.2-.03-3.58 3.01-5.62.98-7.31-.013-.04.35-3.21 2.73-6.2-.114 4.28.427 4.95-3.857 2.9-5.487-.43-.42-.86-.75-.86-.75 1.01-.875 1.23-2.04.58-3.373-1.294-2.68-5.36-2.527-5.982.4-.242 1.14-.25 1.34-.25 1.34-3.283.214-3.95 3.31-2.822 5.03.643.977 2.053 1.19 3.356 1.123-1.756 2.485-5.775 1.64-7.565-.41-2.843 3.34-6.085 2.935-7.703 1.145 1.1-.012 1.86-.03 2.868-.96 1.723-1.595.876-4.422-1.56-5.213-.475-.153-.816-.184-.84-.187.015-.026.06-.18.166-1.034.605-4.93-6.787-4.442-6.073.41.083.562.235.863.235.863s-.785-.045-1.234.162c-4.105 1.89-1.276 7.1 1.897 5.76.3-.125 1.12-.53 1.24-.52-3.93 4.866-7.23 1.415-8.097.886-2.655 3.933-7.264 1.25-7.36.974.288.08 1.15-.1 1.974-.516 2.597-1.354 1.86-4.836-.164-5.594-.62-.217-1.37-.24-2.214-.173 0 0 .064-.877-.02-1.186-1.276-4.74-7.177-2.37-5.726 1.635.128.35.47.705.47.705s-.8.486-1.155.807c-2.82 2.533.05 6.71 3.34 4.973.424-.227.836-.698.955-.67-1.55 2.827-3.9 3.814-7.25 1.473-2.067 3.273-5.44 1.913-6.39.273 3.15.288 5.197-5.746-.86-5.942-.47-1.638-.45-4.135-4.286-3.705zm-20.448 3.52c-3.287 8.72-12.568 16.61-17.942 26.42-6.073 9.94-4.166 20.1 4.1 21.86 4.33.92 9.983-3.242 10.487-7.73.103-.912.44-1.4 1.056-1.32.48.06.436 1.24.254 2.66-.663 4.66-3.19 12.06-6.46 15.47l15.206.01c-.61-.346-6.288-7.44-5.736-16.043.01-1.537.01-2.05.69-2.043.548 0 .554.255.716 1.765 1.025 9.55 12.9 10.585 16.628 1.453 1.89-4.61-.09-12.81-5.05-19.825-3.77-6.17-10.18-13.347-13.94-22.67zm6.7 57.36c.034.02.057.03.06 0zm56.425-50.52c.694 0 1.253.568 1.253 1.26 0 .695-.56 1.26-1.253 1.26-.693 0-1.257-.564-1.257-1.258s.564-1.257 1.257-1.257zm19.527.15c.735 0 1.33.6 1.33 1.337s-.595 1.33-1.33 1.33c-.735 0-1.33-.595-1.33-1.33 0-.735.595-1.334 1.33-1.334zm-38.276 1.457c.71 0 1.282.573 1.282 1.28 0 .71-.573 1.288-1.282 1.288-.708 0-1.286-.577-1.286-1.285 0-.71.578-1.28 1.286-1.28zm54.83 1.58l-1.112 1.977c-1.23-1.077-.382-2.49 1.113-1.98zm-70.118 2.726l-1.107-2.045c1.982.134 1.398 1.553 1.107 2.045zm33.874-1.114c7.5 8.546 14.226 6.02 18.624.337 1.887 4.843 6.09 8.19 13.325 4.935-.437.775-1.536 2.14-1.536 2.14-6.393 1.724-9.567-1.285-12.033-4.15-6.505 5.4-12.63 4.09-17.684-.673-4.314 5.43-11.3 6.596-17.765 2.163-2.956 4.36-7.196 6.123-12.528 3.94 0 0-1.13-1.78-1.23-1.89.774.647 10.593 4.723 12.99-5.08 3.42 5.8 14.626 6.11 17.837-1.723zm.754 3.515c8.436 7.89 17.29 1.07 17.515.587.133.44 4.948 6.188 11.89 4.028l-1.128 1.935c-13.063-2.21-25.08-3.63-52.6.42 0 0 4.393-1.3 6.615-4.806 1.237.802 10.784 6.13 17.708-2.16zm-106.657 2.24c-.76 1.86-2.02 3.782-3.07 5.5-4.93 7.66-5.22 8.395-5.61 11.1-1.1 5.29 5.15 7.43 7.14 3.82.9-1.527 1.46-.534 1.06.91-.25 2.538-2.84 5.48-2.84 5.424l7.57.057s-3.248-3.306-3.197-5.96c.004-1.213.65-1.25 1.44-.16 2.26 3.12 6.47.61 6.5-3.824.016-2.717-.81-4.24-5.73-11.56-1.07-1.6-2.253-3.615-3.253-5.306zm77.09 4.3s3.68.43 3.96.504c.33.25-3.09 1.187-3.1 1.12zm7.45 37.637c-.22.01-.5.26-.96.71-.993.98-1.22 1.11-2.19 1.25-.73.105-2.27.99-3.2 1.843-.25.23-.732.422-1.31.522l-1.53.264c-.34.06-.712.166-.825.235-.49.3-1.29.345-2.184.13-.864-.21-1.002-.202-1.954.09-1.384.428-2.292.43-2.974 0-.68-.426-1.764-.586-2.45-.363-1.016.33-3.65-1.25-3.643-2.18.002-.21-1.496-1.33-1.87-1.332-1.336-.197-13.06 4.43-13 4.7 14.396 17.78 26.514 44.87 17.385 78.02l-1.613-.773c1.353-6.025 1.89-12.09 2.306-18.25-27.02-11.664-29.348-38.792-18.86-55.92l-1.78-1.895c-6.356 3.39-12.814 5.316-28.523 18.493l.044 21.33c.037 19.285.027 38.075.027 38.075 5.686.63 11.947 1.143 18.12 1.675 0 0-.08 19.07-.22 26.53-.12 6.31.116 5.912.116 5.912l20.45 10.78c-1.434-5.676 2.11-7.932 5.08-7.696-1.31-5.475 1.946-7.98 5.665-7.28 2.513.474 3.39 1.86 4.83 6.436.233.744.554 1.74.554 1.74l1.432-.054c1.794-3.85 2.993-8.753 7.213-9.39 5.523-.83 7.58 2.965 7.58 6.76 5.35-4.717 11.762-1.066 11.345 5.98 2.694-1.73 7.257-3.297 10.13 3.38 1.08-.23 1.634-1.433 3.154-1.81.57-.12 1.857-.81 1.857-.81l.017-.233s1.194-.414 2.796-.677c1.375.515.974.498 1.715-.416.826-.423 2.164-.7 3.197-.61 1.085.098 1.567.176 2.2-.1.99-.43 1.91-.54 2.5.11.42.47 1.025.243 1.68.217 1.302-.052 3.04.484 3.583 1.657.8.815 2.55 1.64 2.55 1.64l1.414-.325.163-.522 11.583-4.42c-23.618-25.863-23.002-60.17-17.44-77.537l2.137 1.03c-1.13 5.148-2.417 10.43-2.25 18.107 21.27 9.482 31.85 33.992 18.955 55.387l1.364 1.76c5.36-2.25 18.854-9.825 23.52-13.942l.99.083s2.828-1.83 4.076-2.807l.17-56.775-.99.257-.178-3.32-17.536-1.39c.225-.166.39-.234.44-.566l-.1-31.43c-.65-.997-15.335-9.6-20.796-11.61-.22 0-.068.37.01 1.266.268 3.084-1.814 5.828-4.225 5.833-.866 0-1.016.37-.973 2.14.06 2.516-.85 4.21-3.5 5.164-3.142 1.134-5.268-.51-7.017-6.975-.46-1.697-1.357-1.273-2.218 1.047-.427 1.15-1.81 3.947-2.635 5.42-.635 1.13-1.64 1.635-3.01 2.237-1.065.524-3.372.433-4.702-.24-2.41-1.228-3.346-2.7-4.04-6.34-.09-.48-.405-.44-1.187.15-4.256 3.207-10.243-.11-10.21-5.655.01-1.63-.055-1.694-1.01-.913-2.887 2.358-6.81 1.162-8.38-2.554-.37-.87-.565-1.257-.85-1.248zm-24.47 1.97c.3-.014 1.24 1.233 1.24 1.233.866.955 2.028 1.44 3.236 2.15.113-.17 14.096 18.597 16.474 44.472l6.504.033c-1.213-25.143-8.147-37.227-11.33-44.98l2.334-.74c5.23 10.022 11.607 30.363 11.395 48.172h-10.742c-1.515-17.838-8.45-35.23-18.152-48.423-.673-1.015-1.202-1.72-1.01-1.9.018-.015.037-.02.057-.02zm-4.11 2.654l1.09 3.42s.13-.8.465-1.1c2.123-1.913 4.154.605 3.197 4.02-.22 1.05-.643 3.126-.643 3.126s-2.135-1.094-3.208-1.445c-2.96-1.256-3.95-3.734-1.687-4.016.38-.05 1.16-.08 1.16-.08-.94-.74-3.016-2.43-3.016-2.43zm9.936.385c.894.506 3.2 1.054 4.527.556 1.07-.402 1.886-.18 3-.086.638.054 1.91-.226 1.91-.226 6.36 13.38 10.734 29.252 11.463 43.77l-5.004.03c-1.89-15.424-7.857-31.09-15.432-42.71-.335-.508-.78-1.317-.466-1.336zm20.895.23c1.937.023 3.963 1.953 5.065 5.11.61 1.76.85 1.654 1.673 1.37 2.113-.724 4.362 1.595 1.53 1.98-2.778.46-1.192 5.898-1.43 6.377-1.125.198-3.242-4.423-3.186-5.8.136-3.37-3.03-6.185-4.996-4.77-.932.67-.83 1.145-1.12.9-.884-.74-1.063-2.79-.027-3.952.747-.84 1.61-1.225 2.49-1.215zm57.534 1.16s.11 4.43-.06 5.41c-.33 2.954-4.186 3.265-4.34.903-.63.944-1.06 2.118-1.312 3.173l-2.734-1.884c1.04-.746 2.03-1.4 2.8-2.323-2.03.152-3.163-1.604-1.805-3.098 1.507-1.71 5.676-1.896 7.454-2.184zm-100.6 1.403l1.21 1.363c-10.78 19.11-6.98 43.535 19.04 56.37-.17 5.862-.92 11.792-2.32 17.294l-9.6-4.656c.064-21.608-12.17-42.206-31.7-55.745 7.086-5.696 14.926-10.697 23.37-14.63zm78.606.163c.456 2.52 2.845 7.09 3.02 6.83-.027-.15-9.944 12.7-14.254 34.194l-3.68.014c2.412-14.324 7.228-27.838 14.912-41.04zm30.56.6l1.96 1.183c-10.277 8.602-17.044 19.51-22.014 31.27l-2.597-1.23c7.704-17.06 15.32-24.637 22.65-31.227zm2.74 1.903c.54.033 1.177.713 2.166 1.256.967.53.726.81-1.095 2.208-2.15 1.65-2.354 1.58-2.335-.777.013-1.563.408-2.605 1.16-2.684.037-.005.07-.008.108-.006zm-2.365 2.43c.114-.01.205.03.265.122.16.624.143 2.05-.11 3.46-.202.93-2.964 3.26-3.95 4.18-.394.26-.575.166-.647-.296.03-.732.1-1.706.114-2.698.005-.305-.06-.625.217-.86 1.354-1.596 3.324-3.87 4.115-3.91zm5.13.756c.018 0 .03 0 .04.01.255.15.21 3.355.034 3.566-.8.208-2.96-.132-3.51-.427-.12-.375 2.92-3.17 3.435-3.15zm-96.253 1.036l.747 3.14s.213-.42.27-.503c1.485-2.277 3.3-.943 3.27 2.216-.01.997-.92 4.986-.92 4.986s-5.588-2.68-6.027-3.86c-.43-1.157.183-2.176 1.21-2.27.385-.043.788-.075 1.23 0l-2.4-2.452zm63.945.42l2.534.935c-5.284 8.6-10.74 17.09-14.71 36.46h-10.62c1.482-11.836 4.493-23.47 9.865-34.795 0 0 2.087-.64 3.264-1.024 0 0-8.78 20.09-9.8 33.005l5.13.11c2.74-12.583 7.863-25.63 14.34-34.69zm-20.112.31c1.428-.052 2.48.95 2.4 2.73-.017 1.63-.167 1.867-1.32 1.217-1.513-.856-2.71-.874-4.065.095-.744.53-1.476.97-1.476.97s.656-2.83 1.658-3.72c.96-.853 1.95-1.263 2.81-1.295zm-5.447 4.187c-.105.956-.388 1.395-.64 2.21 0 0 .83-.324 1.23-.51 1.886-.88 3.853.75 3.824 2.66.086 1.274-1.3 2.8-2.946 2.813-.576.005-1.184-.176-1.77-.614.424 2.333.51 3.412-1.197 4.583-1.427.95-4.435-.136-4.266-2.745l.106-1.61-1.444.187c-4.035.162-4.106-4.805-.85-5.586 1.3-.308 2.713.76 2.713.76-.62-1.22-.63-3.316.2-4.284 2.05-2.38 5.292-.213 5.04 2.13zm35.235-3.1c.22 1.857.96 3.884.747 5.62-.315 2.216-2.2 3.53-3.68 2.09-.185-.18-.516-.55-.516-.55-.67.848-1.086 3.24-1.086 3.24l-2.616-1.61s1.818-1.275 2.32-2c.14-.203.206-.587.206-.587-1.456.456-2.69-1.032-2.294-2.346.787-2.15 4.7-2.95 6.916-3.86zm18.282 1.342c.978-.03 2.494.246 3.69.373.92.16.41.68-1.65 2.687-1.894 1.845-1.835 1.67-3.294 1.647-3.405-.06-4.002.017-2.02-2.124 1.04-1.12 1.948-2.133 2.694-2.51.158-.044.355-.07.58-.08zm-6.145.39c.04 0 .077.016.11.046.225.21.15 1.17.124 2.592-.027 1.51-.01 1.51-.644 2.303-.808 1.01-1.478 2.04-2.32 3.016-.73.79-.706.704-1.14-1.197-.425-1.845-.19-2.42 2.187-5.094.803-1.03 1.376-1.684 1.68-1.67zm10.64 1.05l.028 3.74c-7.03 6.874-11.81 14.607-15.057 23.13l-2.444-.975c4.24-10.89 10.59-19.38 17.476-25.897zm-60.95 2.26c-1.164 0-2.104.94-2.104 2.102 0 1.16.94 2.104 2.103 2.104 1.16 0 2.104-.945 2.104-2.107 0-1.164-.945-2.104-2.107-2.104zm-.016.662c.805 0 1.457.65 1.457 1.45s-.65 1.456-1.45 1.456c-.8 0-1.448-.652-1.448-1.455 0-.8.646-1.453 1.45-1.453zm-78.114.885c21.93 14.07 31.766 35.885 31.722 54.624l-1.24-.556c-1.284-26.48-15.677-42.76-31.234-53.296zm129.85.202c.496 0 1.17.08 2.15.19 1.815.095 2.04.21.79 1.644-.346.394-1 1.216-1.467 1.835-.463.615-1.027 1.26-1.286 1.35-.38.13-3.57-.02-4.48-.144-.3-.04.09-.346 1.645-2.564 1.193-1.7 1.32-2.26 2.445-2.312.065 0 .13-.003.203 0zm9.134.72s.437 12.07.12 19.764c-5.002-.186-7.94 1.713-9.162 5.308l-5.256-2.6c3.858-9.905 9.015-16.797 14.3-22.473zm-15.483.276c.287.005.45.594.53 1.753.33 2.073.29 2.314-.573 3.646-.43.664-1.022 1.6-1.31 2.084-.502.845-.86 1.096-.984.687-.684-2.24-.9-3.625-.66-4.077.4-.74 2.27-3.393 2.53-3.74.186-.237.34-.355.47-.353zm-125.11.227c17.63 10.916 30.53 29.56 31.06 52.08 0 0-3.755-1.762-6.075-3.052l-.12-2.19 1.225-.04.393 2.47 2.693-.085-.715-6.16-4.212.4-.85-3.49 1.278-.27.706 2.25 2.74-.723-1.457-5.484-4.236 1.158-1.353-3.706 1.406-.505 1.14 2.217 2.576-.898-2.434-5.5-3.893 1.835-1.977-3.59 1.52-.812 1.224 2.137 2.41-1.25-2.98-5.06-3.694 2.065-1.856-2.785 1.147-.8 1.27 1.466 2.117-1.5-3.243-4.36-3.536 2.77-2.616-3.03 1.206-1.023 1.8 1.614 2.013-1.757-3.855-4.205-3.37 3.072-2.51-2.18 1.23-1.36 1.564 1.194 1.666-1.972-4.193-3.456-3.146 3.11-3.013-1.99v-1.482c.98.377 2.015.817 2.94 1.31l1.56-2.362-4.5-3.038zm49.1.93l.667 3.85c.632-1.045 1.136-1.766 2.505-1.362 1.64.67 1.665 3.148.27 6.938-.26.704-.575 1.31-.575 1.31s-.72-.297-1.2-.627c-1.006-.69-2.7-1.468-3.567-2.833-.91-1.43-.93-3.43.74-3.26.33.003.98.16.98.16l-2.5-3.188zm-50.07 1.15l3.054 1.97-.632 1.15-2.42-1.09zm76.538.907c.885 1.235-2.227 4.88 1.844 6.334 0 0 .1.84-.75 1.35-1.99 1.45-4.85-1.196-3.966-3.917.567-1.74 2.207-3.76 2.87-3.77zm8.45.113s1.226.898 1.472 1.134c2.267 2.173 2.29 5.29.236 6.38-1.367.723-2.91.14-3.448-.913-.25-.488.16-.997.68-.994.98.007 1.725-1.87 1.436-3.84-.115-.78-.38-1.77-.38-1.77zm26.745.726s.27 2.66.656 3.843c1.19 3.312-.33 5.328-2.554 4.22-.318-.16-.88-.88-.88-.88l-.22 3.807-3.163-.92c.686-1.1 1.67-1.886 2.407-3.12 0 0-.474-.02-.888-.02-1.89.062-2.59-2.03-.608-3.757 1.476-1.27 5.247-3.176 5.247-3.176zm16.535.88c.383 0 .86.03 1.517.03 2.008 0 2.523-.27 1.638.98-.343.487-1.184 1.84-1.433 2.305-.508.936-.61 1.23-1.45 1.416-1.22.24-2.605.075-4 .14-.303-.015.32-1.054.667-1.7.853-1.58 1.37-2.67 2.104-3 .287-.13.577-.165.96-.17zm-6.2 1.227c.242-.014.42.42.652 1.32.54 2.095.677 2.147-.19 3.867-.44.868-1.188 2.34-1.495 2.948-.788 1.56-.833 1.548-1.33.15-.952-2.68-1.035-2.403.538-5.413.984-1.88 1.47-2.853 1.826-2.87zm-115.69.733l2.835 2.272-.805.783-1.57-1.158-2.32 2.48 3.81 3.475 3.228-3.178 2.766 2.89-.847.714-1.622-1.568-2.425 2.074 3.624 4.28 3.65-2.782 2.29 3-.935.586-1.492-1.45-2.376 1.65 2.956 4.164 3.724-2.136 2.114 3.48-1.176.565-1.2-1.91-2.675 1.54 2.528 4.876 4.025-1.68 1.618 3.72-1.23.5-1.03-2.236-2.708 1.07 1.814 5.117 4.08-1.17.99 3.8-1.26.35-.62-2.107-2.598.625 1.085 5.136 4.152-.26.493 4.15-1.29.06-.32-2.48-2.647.033c.015.873.116 2.654.116 2.654l-1.597-.74c-2.376-15.79-10.845-28.947-23.464-38.11l-.066-1.884 3.072 1.95s2.817-2.51 3.303-3.15zm121.195 3.68c.88-.008.49.674-.58 2.715-1.196 2.277-1.41 2.325-3.65 2.87-2.722.665-2.643.814-1.17-2.327.57-1.21.98-2.27 1.5-2.676.686-.528 2.008-.326 3.445-.54.18-.03.33-.044.455-.045zm-127.42.67c13.103 8.455 21.387 25.94 22.415 36.543 0 0-.356-.238-1.07-.566-.995-.46-1.24-.757-1.528-2.2-2.596-12.966-9.914-23.968-19.76-31.735zm118.17 2.165c.555-.115 1.564 3.865 1.26 4.7-.214.6-2.164-.817-2.873-1.12-.354-.15 1.24-3.502 1.613-3.58zm-63.192.183l-.06 4.126s.495-.59.752-.777c.976-.71 2.465.275 2.52 1.493.08 1.69-.176 2.377-1.53 4.724-.42.727-1.05 1.65-1.05 1.65s-1.6-1.14-3.346-2.88c-1.89-1.88-1.53-4.392.122-4.4.493-.004.934.164 1.367.3-.36-1.214-1.69-3.574-1.69-3.574zm51.22 3.09s.858 1.125 1.84 4.09c.94 2.83-.505 4.96-2.466 3.89-.35-.19-.72-.604-.72-.604-.14 1.37.104 3.84.14 3.86l-3.166-.556s1.738-2.76 1.863-3.44c0 0-.195.152-1.064.152-3.18-.003-2.52-3.784 1.152-5.88.55-.316 2.423-1.518 2.423-1.518zm18.224.05c.685-.034.36.632-.4 2.186-.84 1.72-.63 1.57-2.41.663-2.488-1.215-2.34-1.405.81-2.256.997-.37 1.637-.58 2-.594zm-45.11.5c2.49.015 4.325 2.473 3.96 5.966-.636 5.995-.27 5.625.38 6.223 1.19 1.09-.42 1.745-1.837.706-.988-.724-1.31-1.438-1.264-4.748.05-3.804-.156-4.773-1.516-4.44-.85.207-1.116.93-1.022 3.494.13 3.6-.107 4.506-1.474 5.66-1.473 1.14-3.064.122-1.717-.63.615-.69.73-1.574.494-3.75-.26-1.85-1.34-8.518 3.99-8.486zm61.586 3.024c.31-.006.626-.002.944.01 4.792.18 16.914 1.166 16.914 1.166l.105 3.58c-.543.333-9.59-1.046-16.245-.92-1.556.027-2.657.714-3.782.137 1.08.45.98 5.85-3.778 4.54-4.035-1.45-2.07-6.904 3.092-8.28.883-.12 1.802-.213 2.74-.23zm-26.676 2.4l10.36 5.107c1.45 19.445 8.16 39.99 31.025 55.564-3.706 2.65-12.998 9.16-23.618 13.614l-.87-.93c12.61-21.447 3.087-45.05-18.994-55.73.06-5.95.807-11.825 2.097-17.63zm36.436 3.26c1.987-.078 2.504.15 2.674 1.05.16.85.79 1.05 1.54.778 1.827-.663 2.94 2.57 1.43 4.004-.938.89-.774 1.235-.005 1.24 1.902.01 1.85 2.504-.088 3.917-.805.588-.794.85.046 1.27 1.406.694 1.123 2.067-.663 3.197-.97.614-1.003.765-.2.984 2.02.55-.04 3.43-2.25 2.92-.91-.21-1.77-.014-2.637.55-2.366.988-2.763 1.184-5.32.866-2.24-.41-3.244-1.15-3.823-3.12-1.316-4.004-2.735-8.442-2.75-12.815-.2-2.683 4.3-5.11 6.433-5.216 1.737-.26 3.73.367 5.615.384zm-141.682.066c2.38 0 4.31 1.93 4.31 4.31s-1.93 4.31-4.31 4.31-4.31-1.93-4.31-4.31 1.93-4.31 4.31-4.31zm47.904 1.267l-.39 3.77s.632-.494.78-.62c1.123-.936 2.895.11 2.493 1.57-.13 1.287-2.35 5.108-3.235 5.91 0 0-3.56-3.88-3.94-4.64-.848-1.683.31-3.44 1.846-2.695.22.107.854.577.854.577l-1.126-3.578zm-47.62.305c-1.522.052-2.97.987-2.773 2.232.13.532.94-.236 1.74-.74.614-.385 1.35-.446 2.05-.143.62.22.885.79 1.244 1.233.304.373.637.678.825.495.16-.2.094-.446.052-.668-.327-1.7-1.73-2.453-3.14-2.41zm116.08.586l1.54.788c2.076 27.482 15.97 43.64 30.573 53.262l-1.16.7c-17.92-11.48-30.36-32.047-30.952-54.75zm2.334 1.13s3.87 1.98 5.894 2.894l.076 2.49-1.353.047-.46-2.338-2.812.2.88 5.75 4.54-.558.634 3.474-1.535.32-.79-2.134-2.602.633 1.685 5.586 4.09-1.32 1.28 3.654-1.373.5-.88-2.14-2.696.94 2.083 5.453 4.257-1.367 1.718 3.413-1.29.57-1.233-2.12-2.558 1.305 2.994 5.092 3.843-2.016 1.795 2.72-1.41.947-1.284-1.666-2.07 1.363 3.316 4.523 3.31-2.484 2.477 2.857-1.093.97-1.69-1.713-2 1.786 3.946 4.328 3.43-2.973 2.432 2.266-.72.76-1.636-1.02-2.166 2.303 4.142 3.604 3.288-3.605 2.79 2.053v1.517l-2.492-1.264-1.67 2.517 4.16 3.15-.026 1.237c-23.757-14.174-30.008-36.157-31.22-52.508zm-48.64.273c1.028-.03 2.112.935 3.904 3.01 5.005 5.8 3.67 14.77-2.877 19.45-.95.68-1.334.62-2.5-.38-6.712-5.768-7.1-13.48-1.122-20.256 1.04-1.17 1.8-1.8 2.6-1.825zm23.996.8c1.236 1.89 2.795 3.84 2.97 6.14-.086 2.27-1.62 2.69-3.204 1.364-.2 1.193.48 3.518.48 3.518l-2.87-.307s1.125-1.967 1.17-3.197c-1.993 1.386-3.515-.424-3.245-1.884.57-2.484 2.61-4.158 4.7-5.64zm-23.91 1.48c-.233.02-.48.18-.852.48-1.748 1.404-3.12 3.15-3.835 4.96-1.504 3.823-.522 8.133 2.87 11.477 1.725 1.7 2.332 1.58 4.974-1.93 2.21-2.94 2.67-6.74 1.31-10.04-.67-1.61-1.87-3.18-3.32-4.32-.556-.44-.845-.65-1.147-.628zm55.22.707l2.23 1.092c2.842 18.743 12.052 30.177 22.373 38.06l-.02 1.74-2.77-2.147-3.314 3.47-2.69-2.204 1.01-.98 1.53.975 1.96-2.195-3.85-3.434-3.36 2.91-2.8-2.88.85-.71 1.936 1.69 2.165-1.92-3.745-4.2-3.35 2.54-2.338-3.1 1.017-.606 1.224 1.68 2.582-1.61-2.73-4.2-3.895 2-1.994-3.59 1.136-.545 1.29 2.018 2.423-1.166-2.44-4.954-3.98 1.314-1.464-3.898 1.135-.42 1.004 2.305 2.69-.865-1.83-5.33-4.11 1.163-1.02-3.92 1.273-.273.667 2.115 2.83-.568-1.038-5.08-4.21.53c-.14-.86-.76-3.185-.75-4.063l1.296-.108.41 2.236 2.834-.095zm-55.07.41c1.545.21 3.43 3.18 3.856 4.26.812 2.132.88 4.605.14 6.522-.61 1.57-2.425 4.35-3.578 5.13-.93.506-1.71.13-3.04-1.673-2.625-3.567-3.133-7.86-1.06-10.8 1.583-2.244 2.757-3.442 3.68-3.44zm58.058.922l1.12.53c1.372 10.86 7.81 25.764 20.475 34.68v1.363c-9.85-7.07-18.894-19.267-21.594-36.573zm-58.253.74c-4.412 3.326-3.706 8.53-.364 12.04 3.6-2.384 4.87-8.818.365-12.04zm-67.32.22c2.487-.056 4.065.81 4.823 2.536 1.18 2.68 1.34 3.19 1.58 4.593.14.803.35 2.015.47 2.692 1.294 7.28.34 10.025-4.08 11.16-1.32.34-3.16.45-4.443.14-.337-.082-1.572-.09-2.543-.12-1.93-.063-2.518-.267-3.486-1.052-.35-.28-.685-.51-1.104-.574-2.206-.35-2.865-2.37-1.19-3.866.953-.85 1.048-.963.96-1.11-.05-.08-.457-.15-.908-.152-2.223-.012-2.2-2.3.04-3.934 1.063-.777 1.543-1.51.84-1.33-2.03.478-2.744-2.485-.625-3.404 1.13-.63 1.94-1.16.85-1.217-.912.08-1.66-.596-1.38-1.39.34-.965 2.198-1.842 3.27-1.514.836.254 1.65.49 2.174.113 1.27-.91 1.838-1.32 2.93-1.47.633-.082 1.297-.1 1.83-.1zm73.953.56l10.226.195-.3 10.026-9.63-.18s2.11-4.48-.293-10.042zm-22.91.23l9.794.12c-1.615 3.78-1.01 7.66-.42 9.85l-9.585-.15zm16.355.013c2.63 1.532 3.354 7.114-.3 9.984-3.48-3.575-2.782-7.927.3-9.985zm-24.16 4.357l2.626.248-.933 3.76s.423-.446.562-.49c3.372-1.584 3.614 2.005.18 5.246-.76.716-1.98 1.696-1.98 1.696s-.953-1.447-1.712-2.75c-.864-1.316-1.45-2.72-1.3-3.468.21-1.083 1.514-1.8 2.345-1.138.41.325.884.82.884.82zm46.878 2.76s1.1 1.13 1.77 1.863c2.32 2.537 2.72 4.91 1.544 5.63-1.01.463-1.636.147-2.448-.512.17 1.57 1.414 3.895 1.384 3.9l-3.463.554s.856-3.15.785-4.34c0 0-.71.55-1.027.685-2.26.824-3.38-1.743-1.52-4.3 1.556-2.15 2.974-3.477 2.974-3.477zm47.277 4.753c2.323 0 4.205 1.883 4.205 4.205s-1.88 4.204-4.204 4.204c-2.32 0-4.2-1.882-4.2-4.205 0-2.323 1.88-4.205 4.2-4.205zm2.074 1.925c-.18.04-.33.457-.35 1.377-.21 1.886-1.78 2.646-3.493 1.77-.69-.352-1.28-.876-1.283-.474 0 .218.556 1.34.95 1.726 1.456 1.308 4.997.998 4.916-2.05-.035-1.434-.43-2.414-.73-2.347zM1103 1920.7c.458-.03 1.037.157 1.408.54 1.147.784 1.365 1.787 1.44 5.57.062 3.34-.006 3.42.545 3.828 1.35.99 2.16-.52 1.775-3.903-.37-3.254.803-5.622 2.77-5.61.97.007 1.15.576.414 1.3-.777.768-.965 1.704-.72 3.587.622 4.826.083 7.195-1.945 8.175-2.115 1.02-4.836-.15-5.313-2.822-.304-1.78-.3-3.894-.09-5.885.04-2.093-.01-2.332-.74-3.532-.515-.805-.13-1.21.457-1.247zm-53.202 1.563c1.167 0 2.382.677 3.11 2.176 1.75 3.614-2.045 6.59-5.527 6.823-6.04.09-13.222-.782-19.29-1.59l.098-3.417c5.568.32 11.844.773 18.606 1.09-.77-3.18 1.055-5.08 3.005-5.085zm31.784.702l3.363.744-2.14 3.5c.634-.28 1.073-.47 1.708-.24 1.37.497 1.39 2.234.384 3.857-.793 1.176-3.03 2.584-4.554 3.45-.86-1.84-2.75-5.06-2-6.82.4-.936 1.51-1.39 2.54-.88.34.204.994.537.994.537zm7.95.096l10.254.12c-1.49 10.368-4.404 24.21-10.15 35.49l-2.414.628c5.066-11.212 8.437-21.726 10.012-33.48h-5.126c-2.947 12.615-7.31 24.306-14.02 34.464l-2.98-.97c7.17-11.365 12.85-24.05 14.43-36.25zm23.387.185h11.43c2.1 21.108 9.23 35.513 19.844 49.763 0 0-.67.15-1.063-.02-1.1-1.373-2.11-2.213-3.76-2.635-8.92-12.84-14.905-30.8-16.35-44.533h-6.795c.776 17.25 5.556 31.396 11.916 45.096l-3.45.633c-5.11-12.26-10.71-22.93-11.77-48.304zm17.78 2.607c.94.728 1.958 1.44 2.915 2.136 2.574 1.806 2.54 5.22.04 5.203-.266 0-.884-.04-.884-.04s1.023 2.24 1.667 3.37c-1.044.28-3.22.688-3.22.688s.31-2.198.247-4.02c0 0-.416.468-.762.63-1.66.694-3.063-.755-2.856-2.467.28-2.31 2.855-5.5 2.855-5.5zm-76.353.413l5.625 2.792c-3.834 8.726-8.224 16.896-14.573 23.107l.16-20.164c3.465-.1 7.02-.13 8.783-5.736zm38.467.315h3.46c-1.534 16.1-12.17 37.877-14.17 40.502l-.656.493c.04-.02-1.363-4.936-2.958-6.705 6-8.093 12.29-23.65 14.324-34.29zm24.337 0h5.23c1.63 12.83 5.595 26.686 15.644 43.517 0 0-1.006.1-1.784-.365-1.713-1.064-2.903.342-3.926.287-1.6-.086-1.864-.18-3.514.21-8.294-17.49-10.647-31.26-11.646-43.65zm-56.46 2.88l1.868.88c-4.014 9.284-7.61 16.663-17.12 25.722l-.034-2.7c6.68-6.47 11.184-15 15.29-23.904zm2.718 1.296c.885.333 1.89.88 2.72 1.33.28.11.206.36.21.624-.354.88-1.91 1.27-2.5 1.44-.714.202-1.416.344-1.543.374-.814.194-.556-.622.327-2.41.397-.8.554-1.34.787-1.355zm3.73 1.97c.56-.035 2.816 1.212 3.3 1.66.17.53-.317 1.363-1.03 2.905-1.096 2.37-1.314 2.423-1.64.476-.058-.332-.385-1.44-.58-2.175-.46-1.707-.504-2.69-.05-2.86zm4.085 1.915s1.313.638 1.74.918c-5.856 17.54-21.45 32.038-21.37 31.704l-2.433-1.43c10.38-9.38 17.985-20.452 22.064-31.19zm-6.19.25c.57.01.074.71-.69 2.396-.725 1.656-.963 2.24-1.64 2.505-.97.35-2.37.363-3.61.58-.53.09-.308-.313.51-1.972.957-1.946 1.01-2.35 2.514-2.755.87-.134 2.04-.754 2.92-.747zm2.056 3.485c.602 2.173.59 2.6.186 3.356-.76 1.416-1.75 3.067-2.02 3.514-.684 1.115-.878.883-1.284-1.836-.25-1.688-.47-2.446-.285-3.18.34-.83 1.355-2.79 1.93-3.935.82-2.445 1.262 1.862 1.47 2.08zm10.78-1.896l3.072 1.005-2.41 2.91s1.01-.183 1.127-.135c2.417.16 2.016 2.563.144 4.017-.774.71-4.6 2.447-4.6 2.447-.407-2.15-1.25-3.524-1.05-5.73.143-1.19.25-2.262 1.705-2.295.766-.04 1.077.74 1.575 1.37zm55.69 2.604s1.85.957 3.566 2.277c2.237 1.72 2.62 3.746.383 4.526-.26.09-.994.052-.994.052.617 1.073 2.08 2.67 2.08 2.67-.733.512-1.77.913-2.914 1.27 0 0-.285-2.67-.558-3.7 0 0-.297.583-.663.81-2.154 1.342-3.845-1.185-2.687-4.38.703-1.942 1.785-3.524 1.785-3.524zm-23.69.45c5.382-.13 2.23 8.68-.46 8.11-.045-.08 2.22-5.213-.83-6.03-1.4-.374-.193-2.1 1.29-2.083zm-8.82.622c1.67-.01 2.887 1.17 1.29 1.91-2.513 1.168-1.017 3.965-.96 5.55.035.97-2.24-.845-2.72-2.813-.625-2.544-.336-4.43 2.39-4.646zm-39.798.927c.37 0 .65.03.743.1.157.417-.594 1.716-1.69 3.38-.583.886-.833 1.135-1.19 1.345-.85.476-2.04.352-3.03.422-1.48.02-1.22-.01.42-2.56.73-1.14 1.19-2.07 1.626-2.368.087-.057 2.007-.32 3.12-.32zm1.94 1.84c0 3.186 1.08 4.23.286 5.236-.974 1.566-2.215 3.28-2.666 3.82-.76.913-.674.74-.873-1.646-.143-1.73-.3-2.887-.075-3.427.65-1.563 1.424-2.31 2.23-3.97.63-1.34 1.1-1.115 1.1-.015zm42.47 1.597c1.562.02 2.527 1.68 2.456 3.205l-.07 1.46c2.02-.774 4.526-.02 4.637 1.96.187 3.36-2.286 2.97-4.38 2.83.212.08.52 3.032-.723 4.163-1.953 2.185-5.595-.048-4.68-3.255.19-.666.23-1.084.23-1.084s-1.305.47-1.766.45c-3.96-.17-3.66-5.77.32-5.11.814.13 1.364.33 1.364.33s-.087-.357-.22-.857c-.58-2.155.635-4.123 2.826-4.094zm79.252 1l2.137 1.226v2.38l-3.04-2.246zm-128.04 1.59c.84-.01 1.503.057 1.373.26-.004.423-1.845 2.985-2.934 4.155-.93 1-1.06.856-3.33.745-.892-.044-1.475-.05-1.45-.29 1.046-1.37 2.487-3.137 3.484-4.61.393-.12 1.775-.25 2.857-.26zm2.08 1.12c.157-.004.205.336.2 1.08 0 .56.08 2.29.16 3.04.15 1.367.15 1.365-.437 2.18-.715.767-1.443 1.896-2.363 2.775-1.38 1.53-1.24 1.62-1.22-1.656.02-2.56-.174-2.56.344-3.16.284-.33 1.163-1.407 1.742-2.248.88-1.276 1.344-2.012 1.574-2.015zm13.17.45l2.842 1.516-2.847 2.885s.71 0 .95.045c1.83.356 1.69 2.294-.15 3.74-1.13.714-5.01 2.127-5.01 2.127-.134-1.63-.48-3.13-.413-4.876.027-.806.1-1.683.72-2.38.427-.473 1.142-.75 2.145-.1.524.47.8 1 .8 1zm33.534.983c-1.114 0-2.016.903-2.016 2.016s.9 2.012 2.016 2.012c1.115 0 2.018-.904 2.018-2.017s-.903-2.016-2.016-2.016zm31.767.475s3.72 1.4 5.395 2.934c1.562 1.305.825 3.455-.728 3.5-.11 0-.77-.097-.77-.097.527.803 2.29 2.767 2.29 2.767l-2.875 1.165s-.46-2.214-.816-3.456c-1.002 2.31-3.474.808-3.64-.634-.397-2.112.5-4.177 1.145-6.177zm-31.767.18c.776 0 1.404.626 1.404 1.4 0 .775-.63 1.402-1.403 1.402s-1.4-.628-1.4-1.403.627-1.4 1.4-1.4zm-54.89 2.864c1-.01 2.25.04 2.81.072.428.33-.464 1.346-2.187 3.155-1.383 1.45-1.587 1.25-3.26 1.26-2.81.02-2.88.04-1.59-1.426 1.41-1.605 2.236-2.64 2.89-2.974.22-.056.73-.08 1.334-.086zm3.42 1.412c.298-.06.217.7.17 2.415l-.08 2.91-2.187 2.1c-2.53 2.26-2.226 2.403-2.21.29.015-1.68-.003-2.866.36-3.61 1.104-1.33 2.254-2.51 3.51-3.78.197-.197.337-.31.436-.328zm55.523.726c.607-.05 2.16 2.604 2.55 4.828.885 5.08 3.93 7.488 6.07 5.448.87-1.197.97.11.926.737-.45 6.435-7.743 3.756-8.573-2.636-2.56 1.662-4.95-1.694-3.42-1.64 3.607-1.148 2.62-4.46 2.447-6.735zm-8.45.048c.357 2.226-3.656 6.04-5.914 3.364-1.148-1.36-.102-4.167 1.36-2.44 1.613 1.195 3.178-.19 4.554-.926zm-55.143 3.052c.824-.017 2.02.14 2.54.068.735.074.21.43-1.384 1.88-1.372 1.252-1.763 1.81-1.92 1.264-.076-.847-.043-1.85-.038-3.045.125-.118.425-.16.8-.17zm18.71 1.48l2.45 1.784-2.43 2.236c2.18-.108 2.37 1.933 1.545 3.07-.534.798-2.6 1.638-4.664 1.973-1.244.2-2.257.35-2.257.35s-.047-.957-.08-2.55c-.073-3.253.15-4.534 1.4-5.17.896-.452 2.41.26 2.784 1.09.123.276.446.755.446.755zm-15.754.176c.01 0 .016 0 .02.007.138.186-.36 5.48-.36 5.48l-3.548-1.996s3.59-3.426 3.887-3.49zm93.88.626c2.526 1.19 4.42.96 6.12 2.433 1.48.774 1.04 2.907-.04 3.383-.488.15-1.295.066-1.295.066.89 1.1 2.85 2.494 2.85 2.494l-3.11 1.3s-.427-2.096-.82-3.24c-.57 1.7-2.486 1.66-3.58.86-.773-.592-1.093-2.58-.724-4.3.098-.455.596-3 .596-3zm11.366 17.255c3.21 4.52 4.997 8.316 5.496 13.984.294 3.496.193 4.15-.635 4.14-.53 0-.76-.263-.756-.86.055-9.49-11.635-11.72-15.985-3.523-2.55 4.804-1.294 11.175 4.19 19.85 5.044 8.217 11.54 14.46 15.24 23.3 3.664-8.777 11.016-16.163 16.27-24.624 7.59-10.88 4.96-22.346-4.405-23.552-4.298-.553-9.007 3.753-9.55 8.21-.124.992-.335 1.285-.88 1.203-.73-.11-.458-2.07-.14-4.69.867-5.007 2.635-9.18 5.5-13.437zm45.346 12.544c.083-.02 2.38 3.18 2.706 4.38.267.976.47 1.986.303 2.41-.2.51-.68.12-1.278-.673-1.64-2.178-4.86-1.483-6.173 1.347-.947 2.04-.42 4.667 1.34 7.648 2.102 3.89 7.246 10.88 7.4 11.517.14-.55 3.415-6.486 6.053-10.42 1.39-2.378 2.434-4.39 2.497-7.53-.32-3.91-4.997-5.52-7.085-2.486-.674.98-1.075 1.28-1.3.48-.15-.54.323-1.706.57-2.952.21-1.04 2.233-3.744 2.28-3.72zm-73.327 19.494c-30.67 7.27-55.584 2.775-58.056 1.916l-1.955 2.912c-.237.495-.383 1.974-1.71 2.376l-1.985 2.965.39.413-1.763 1.537.43.512-1.283 1.863-.506-.053-2.967 4.507.45.502-6.81 10.663 92.145.03c-5.357-10.104-11.088-20.01-16.384-30.145zm-.557 1.31l.55 1.523c-1.524-.19-3.303-.28-5.11-.36 1.587-.33 3.18-.73 4.562-1.164zm-5.35 1.326c-2.93 1.343-4.686 2.96-6.033 4.664-1.675-1.302-3.81-2.225-6.353-2.803zm-51.78.74l1.303.146s-.436.34-.75.27c-.236-.054-.554-.42-.554-.42zm58.697.756l.83 1.64c-1.993-1.056-10.53-3.48-12.953 5.01-2.55-3.447-13.06-8.44-18.39 2.18-1.515-2.88-10.34-11.157-18.39-.607-3.17-6.56-5.82-7.108-11.642-6.21 4.14-3.98 9.96.16 12.427 3.544 6.946-5.76 12.75-4.03 17.824.656 6.546-7.126 13.073-5.41 17.665-1.833 3.226-4.746 6.377-6.177 12.634-4.382zm-53.61.044c4.127.556 8.254.81 12.38 1.012-2.39.876-4.837 1.63-6.783 3.393-1.473-2.06-3.52-3.255-5.596-4.41zm29.77.657c-2.252 1.06-4.68 2.657-6.624 4.33-2.1-1.71-4.26-3.186-6.612-3.93 4.32.21 9.104.02 13.24-.4zm100.46 2.31c-.003.018-.003.026 0 .03.005-.005.003-.014 0-.03zm-74.04 1.06s-.832.14-1.1.21c-3.643.97-2.85 6.105.898 6.104.357 0 1.243-.14 1.243-.14-.07 3.478.987 4.326 4.538 4.13l6.02 10.76-89.042-.382 5.657-9.046c2.844.334 4.63-1.25 4-3.662 0 0 1.75.535 2.24.538 3.22.02 4.05-4.918.965-5.774-.342-.092-1.204-.19-1.31-.22 1.412-3.523 5.29-1.442 6.4.02 2.5-2.053 5.262-1.133 6.446 1.528 0 0-.465-.26-.61-.364-2.926-2.14-5.65 2.294-2.783 4.34.283.2.88.374.88.374s-.35.284-.67.82c-1.486 2.503.91 5.55 3.804 4.767 2.22-.87 2.25-2.54 2.25-4.38 0 0 .77.06 1.453.066 2.668.03 3.43-3.382 1.8-4.97-.88-.856-2.033-.79-2.604-.9 3.072-3.017 5.156-.935 7.324.456.327-.01 3.763-4.136 7.847-.08-1.982-.52-4.012.763-4.04 2.83.04 1.324.99 2.5 3.043 2.592-.22.668-.37 1.166-.38 1.814-.04 2.165 1.645 3.513 3.78 3.18 1.79-.228 3.11-2.27 2.475-3.97-.287-.766-.682-1.047-.682-1.047 4.814.6 4.73-5.495.988-5.865-.89-.09-1.57.296-2.464 1.115 2.2-4.5 6.227-3.598 7.734-1.758 2.065-1.5 4.916-3.553 8.326.1-.562-.12-1.354-.146-2.04.036-2.7.715-2.712 4.15-.57 5.192.6.294 1.34.465 2.135.435-.714 2.886 2.49 4.946 4.755 3.565 1.625-.99 2.05-3.327.292-5.46 2.958-.132 3.25-3.82 1.54-5.112-1.34-1.013-2.917-.532-4.06.807-.368-1.06 2.556-4.74 6.686-2.087 2.188-1.834 4.36-2.4 6.84-.567zm1.29 2.88l1.158 2.105c-.77.076-1.873-.75-1.157-2.103zm-14.927 2.138c.724 0 1.31.588 1.31 1.31 0 .725-.586 1.31-1.31 1.31-.724 0-1.31-.585-1.31-1.31 0-.722.586-1.31 1.31-1.31zm-54.044.078c.173.705.25 1.407-1.03 1.54zm130.9.61v2.934h2.4l6.78 15.61-6.506 10.132h-2.675v2.603h9.312v-2.608h-2.722l8.276-12.634v12.635h-2.375v2.606h8.42v-2.606h-3.07v-25.743h3.07v-2.93h-8.42v2.932h2.37c.06 2.525.072 4.7 0 7.224-1.183 1.58-2.41 3.506-3.71 4.993l-5.233-12.217h3.39v-2.933zm-115.85.66c.664 0 1.2.536 1.2 1.2 0 .662-.536 1.2-1.2 1.2-.66 0-1.2-.538-1.2-1.2 0-.664.54-1.2 1.2-1.2zm19.974.374c.702 0 1.27.57 1.27 1.27 0 .703-.57 1.273-1.27 1.273-.7 0-1.27-.57-1.27-1.273s.57-1.27 1.27-1.27z"/></g></svg>