<svg xmlns="http://www.w3.org/2000/svg" width="224.225" height="312.808"><g transform="translate(-6034.202 2747.31)"><rect ry="10.63" rx="10.63" width="223.228" height="311.811" x="6034.701" y="-2746.811" fill="#fff" stroke="#000" stroke-width=".997"/><path d="M6041.936-2700.745v-2.737h2.66l5.665-29.272h3.23l6.246 29.272h2.148v2.737h-7.317v-2.737h1.975l-.787-4.486h-7.387l-.57 4.486h1.98v2.737zm13.178-10.416l-3.21-15.68-3.005 15.67zm195.58 230.09v2.733h-2.66l-5.665 29.273h-3.23l-6.246-29.27h-2.148v-2.737h7.317v2.737h-1.975l.787 4.49h7.386l.57-4.488h-1.976v-2.736zm-13.178 10.412l3.208 15.67 3.007-15.67z"/></g><path d="M110.824 167.75c.015-2.026-1.587-2.064-1.57-.586-.133 7.43-6.415 11.087-10.98 10.22-7.035-1.34-9.28-8.323-9.214-12.436.207-12.697 12.988-22.06 24.52-38.335 8.45 14.69 22.398 26.23 23.223 37.586 1.098 15.09-18.01 20.72-20.737 3.13-.176-1.25-1.64-1.8-1.526-.07.415 4.82-.175 6.83 5.266 18.72h-14.222c3.15-5.558 5.026-12.378 5.24-18.24zM18.022 70.31c.01-.873-.896-.466-1.018-.192-1.163 1.986-2.865 2.448-4.548 1.732-1.667-.71-2.604-2.28-2.454-4.522.31-3.438 3.035-7.2 4.355-9.326 1.252-1.93 2.628-4.222 4.077-7.154 1.697 3.363 2.558 4.32 4.405 7.39 1.62 2.706 3.89 5.354 4.06 8.624 0 2.484-1.05 4.83-3.4 5.26-1.33.24-2.58-.443-3.506-2.038-.28-.406-.85-.195-.84.362.166 2.093.956 3.983 2.83 6.212H15.1c1.41-1.576 2.85-3.704 2.917-6.35zm188.38 172.574c.01.87-.896.464-1.018.19-1.163-1.986-2.865-2.448-4.548-1.732-1.667.71-2.604 2.28-2.454 4.522.31 3.438 3.035 7.2 4.355 9.327 1.252 1.93 2.628 4.23 4.077 7.16 1.697-3.36 2.558-4.32 4.405-7.39 1.62-2.702 3.89-5.35 4.06-8.62 0-2.484-1.05-4.83-3.4-5.26-1.33-.24-2.58.44-3.506 2.037-.28.408-.85.196-.84-.36.166-2.094.956-3.984 2.83-6.21h-6.887c1.41 1.574 2.85 3.7 2.916 6.347z"/></svg>