<svg xmlns="http://www.w3.org/2000/svg" width="224.225" height="312.808"><g transform="translate(-6257.43 2435.498)"><rect ry="10.63" rx="10.63" width="223.228" height="311.811" x="6257.929" y="-2435" fill="#fff" stroke="#000" stroke-width=".997"/><path d="M6264.773-2397.45c.16-4.375 1.77-6.018 4.944-8.31-2.53-1.794-3.598-4.436-3.383-6.686.522-5.447 4.81-8.172 9.485-8.054 4.67.12 8.7 3.764 9.01 7.722.273 3.443-.77 5.103-3.258 6.915 2.953 2.442 4.84 4.05 4.77 8.36-.073 4.31-3.807 9.44-10.316 9.598-6.51.157-11.42-5.17-11.26-9.545zm18.173.015c.28-3.962-3.29-6.635-7.314-6.677-3.922-.04-7.43 3.247-7.432 6.804 0 3.82 4.564 5.896 7.51 5.907 3.584.01 6.995-2.63 7.236-6.04zm-1.288-14.173c.077-3.338-3.057-5.73-6.29-5.634-2.874.086-5.92 2.24-5.922 5.03-.003 3.49 3.462 5.233 6.417 5.3 2.68.06 5.736-2.176 5.795-4.696zm192.656 250.868c-.16 4.376-1.77 6.02-4.944 8.31 2.53 1.795 3.598 4.437 3.382 6.687-.52 5.447-4.81 8.172-9.485 8.054-4.675-.11-8.704-3.76-9.018-7.72-.28-3.44.77-5.1 3.25-6.91-2.956-2.44-4.84-4.05-4.77-8.36.07-4.31 3.804-9.44 10.313-9.6 6.51-.153 11.422 5.17 11.262 9.55zm-18.173-.014c-.27 3.962 3.29 6.636 7.32 6.677 3.926.04 7.43-3.246 7.43-6.804 0-3.83-4.56-5.9-7.51-5.91-3.58-.02-6.99 2.62-7.23 6.03zm1.29 14.174c-.08 3.337 3.06 5.73 6.29 5.633 2.88-.086 5.92-2.24 5.92-5.03.01-3.49-3.46-5.233-6.41-5.3-2.68-.06-5.733 2.176-5.792 4.697z"/></g><path d="M52.968 68.333c.015-2.026-1.587-2.065-1.57-.586-.133 7.43-6.415 11.086-10.98 10.22-7.035-1.34-9.28-8.323-9.214-12.437.207-12.696 12.988-22.058 24.52-38.334 8.45 14.69 22.397 26.23 23.223 37.585 1.098 15.1-18.01 20.73-20.737 3.14-.176-1.24-1.64-1.8-1.526-.062.415 4.823-.175 6.83 5.266 18.72H47.728c3.15-5.555 5.026-12.375 5.24-18.236zm111.532 0c.016-2.026-1.586-2.065-1.568-.586-.134 7.43-6.416 11.086-10.98 10.22-7.037-1.34-9.282-8.323-9.215-12.437.207-12.696 12.988-22.058 24.52-38.334 8.45 14.69 22.397 26.23 23.223 37.585 1.098 15.1-18.01 20.73-20.737 3.14-.176-1.24-1.64-1.8-1.526-.062.414 4.823-.175 6.83 5.266 18.72H159.26c3.15-5.555 5.026-12.375 5.24-18.236zm-55.35 50.124c.016-2.026-1.586-2.065-1.568-.586-.134 7.43-6.416 11.09-10.98 10.22-7.036-1.33-9.282-8.32-9.215-12.43.207-12.693 12.988-22.06 24.52-38.33 8.45 14.69 22.398 26.23 23.223 37.586 1.098 15.098-18.01 20.73-20.737 3.13-.176-1.242-1.64-1.8-1.526-.064.415 4.823-.175 6.83 5.266 18.72H103.91c3.15-5.555 5.027-12.375 5.24-18.236zM52.968 168.58c.015-2.025-1.587-2.063-1.57-.585-.133 7.43-6.415 11.087-10.98 10.22-7.035-1.34-9.28-8.323-9.214-12.436.207-12.7 12.988-22.06 24.52-38.34 8.45 14.69 22.397 26.23 23.223 37.58 1.098 15.098-18.01 20.73-20.737 3.13-.176-1.24-1.64-1.8-1.526-.063.415 4.823-.175 6.832 5.266 18.72H47.728c3.15-5.555 5.026-12.375 5.24-18.236zm111.532 0c.016-2.025-1.586-2.063-1.568-.585-.134 7.43-6.416 11.087-10.98 10.22-7.037-1.34-9.282-8.323-9.215-12.436.207-12.7 12.988-22.06 24.52-38.34 8.45 14.69 22.397 26.23 23.223 37.58 1.098 15.098-18.01 20.73-20.737 3.13-.176-1.24-1.64-1.8-1.526-.063.414 4.823-.175 6.832 5.266 18.72H159.26c3.15-5.555 5.026-12.375 5.24-18.236zm.01 75.724c.016 2.026-1.585 2.064-1.567.586-.134-7.43-6.417-11.087-10.98-10.22-7.037 1.34-9.283 8.323-9.215 12.436.207 12.697 12.987 22.06 24.52 38.335 8.45-14.69 22.397-26.23 23.223-37.58 1.1-15.1-18-20.73-20.73-3.13-.173 1.245-1.64 1.8-1.523.067.414-4.823-.175-6.832 5.265-18.72h-14.22c3.148 5.555 5.024 12.375 5.238 18.236zm-55.348-49.3c.015 2.026-1.587 2.065-1.57.586-.133-7.428-6.415-11.086-10.98-10.218-7.035 1.337-9.28 8.322-9.214 12.435.207 12.696 12.988 22.06 24.52 38.335 8.45-14.69 22.397-26.23 23.223-37.586 1.1-15.098-18-20.73-20.73-3.133-.173 1.243-1.64 1.8-1.523.065.415-4.822-.175-6.83 5.266-18.72H103.93c3.15 5.556 5.025 12.375 5.24 18.237zm-56.182 49.3c.014 2.026-1.588 2.064-1.57.586-.134-7.43-6.416-11.087-10.98-10.22-7.037 1.34-9.282 8.323-9.215 12.436.207 12.697 12.988 22.06 24.52 38.335 8.45-14.69 22.397-26.23 23.223-37.58 1.098-15.1-18.01-20.73-20.737-3.13-.17 1.245-1.64 1.8-1.52.067.418-4.823-.17-6.832 5.27-18.72H47.74c3.15 5.555 5.024 12.375 5.24 18.236zM18.325 72.464c.01-.87-.895-.464-1.017-.19-1.164 1.986-2.865 2.448-4.548 1.73-1.668-.707-2.604-2.28-2.454-4.52.31-3.44 3.035-7.2 4.355-9.326 1.26-1.93 2.63-4.223 4.08-7.154 1.7 3.363 2.56 4.32 4.41 7.39 1.628 2.705 3.89 5.354 4.07 8.623 0 2.485-1.046 4.832-3.4 5.26-1.33.242-2.578-.442-3.503-2.037-.28-.407-.85-.195-.84.362.167 2.093.957 3.983 2.83 6.21h-6.89c1.41-1.574 2.85-3.702 2.916-6.347zM207.14 245.21c.01.872-.895.465-1.017.19-1.163-1.985-2.865-2.447-4.548-1.73-1.667.708-2.604 2.28-2.454 4.52.31 3.44 3.04 7.2 4.36 9.327 1.25 1.93 2.63 4.222 4.08 7.154 1.7-3.36 2.56-4.32 4.407-7.39 1.626-2.7 3.89-5.35 4.067-8.62 0-2.48-1.046-4.83-3.4-5.26-1.33-.24-2.58.44-3.503 2.04-.282.41-.85.198-.84-.36.166-2.092.956-3.98 2.83-6.21h-6.887c1.41 1.577 2.85 3.705 2.914 6.35z"/></svg>