<svg xmlns="http://www.w3.org/2000/svg" width="224.225" height="312.808"><g transform="translate(-6257.43 2435.498)"><rect ry="10.63" rx="10.63" width="223.228" height="311.811" x="6257.929" y="-2435" fill="#fff" stroke="#000" stroke-width=".997"/><path d="M6290.313-2378.38c9.92-9.682 16.436-20.238 22.667-30.39 5.464 11.17 13.306 20.943 21.786 30.39-9.073 9.368-16.105 19.386-21.76 29.917-6.267-10.796-12.865-20.572-22.693-29.918zm0 100.248c9.92-9.682 16.436-20.238 22.667-30.39 5.464 11.17 13.306 20.943 21.786 30.39-9.073 9.368-16.105 19.386-21.76 29.917-6.267-10.795-12.865-20.57-22.693-29.917zm0 98.598c9.92-9.68 16.436-20.237 22.667-30.39 5.464 11.17 13.306 20.944 21.786 30.39-9.073 9.37-16.105 19.387-21.76 29.918-6.267-10.796-12.865-20.572-22.693-29.918zm56.183-148.723c9.92-9.68 16.436-20.237 22.667-30.39 5.464 11.172 13.306 20.944 21.786 30.39-9.08 9.37-16.11 19.387-21.76 29.918-6.27-10.79-12.87-20.57-22.7-29.91zm55.35-50.123c9.92-9.682 16.435-20.238 22.666-30.39 5.465 11.17 13.306 20.943 21.787 30.39-9.08 9.368-16.11 19.386-21.76 29.917-6.27-10.796-12.87-20.572-22.7-29.918zm0 100.248c9.92-9.682 16.435-20.238 22.666-30.39 5.465 11.17 13.306 20.943 21.787 30.39-9.08 9.368-16.11 19.386-21.76 29.917-6.27-10.795-12.87-20.57-22.7-29.917zm0 98.598c9.92-9.68 16.435-20.237 22.666-30.39 5.465 11.17 13.306 20.944 21.787 30.39-9.08 9.37-16.11 19.387-21.76 29.918-6.27-10.796-12.87-20.572-22.7-29.918zm-55.35-49.3c9.92-9.68 16.436-20.236 22.667-30.39 5.464 11.17 13.306 20.944 21.786 30.39-9.08 9.37-16.11 19.387-21.76 29.92-6.27-10.797-12.87-20.573-22.7-29.92zm109.398 45.198c4.064-3.966 6.733-8.29 9.285-12.448 2.23 4.575 5.45 8.578 8.92 12.448-3.72 3.838-6.6 7.942-8.92 12.256-2.567-4.423-5.27-8.427-9.296-12.256zm-188.814-185.857c4.063-3.966 6.732-8.29 9.284-12.45 2.238 4.577 5.45 8.58 8.925 12.45-3.72 3.837-6.6 7.94-8.92 12.255-2.57-4.422-5.27-8.427-9.3-12.255zm-2.307-27.957c.16-4.375 1.77-6.018 4.944-8.31-2.53-1.794-3.598-4.436-3.383-6.686.522-5.447 4.81-8.172 9.485-8.054 4.67.12 8.7 3.764 9.01 7.722.273 3.443-.77 5.103-3.258 6.915 2.953 2.442 4.84 4.05 4.77 8.36-.073 4.31-3.807 9.44-10.316 9.598-6.51.157-11.42-5.17-11.26-9.545zm18.173.015c.28-3.962-3.29-6.635-7.314-6.677-3.922-.04-7.43 3.247-7.432 6.804 0 3.82 4.564 5.896 7.51 5.907 3.584.01 6.995-2.63 7.236-6.04zm-1.288-14.173c.077-3.338-3.057-5.73-6.29-5.634-2.874.086-5.92 2.24-5.922 5.03-.003 3.49 3.462 5.233 6.417 5.3 2.68.06 5.736-2.176 5.795-4.696zm192.656 250.868c-.16 4.376-1.77 6.02-4.944 8.31 2.53 1.795 3.598 4.437 3.382 6.687-.52 5.447-4.81 8.172-9.485 8.054-4.675-.11-8.704-3.76-9.018-7.72-.28-3.44.77-5.1 3.25-6.91-2.956-2.44-4.84-4.05-4.77-8.36.07-4.31 3.804-9.44 10.313-9.6 6.51-.153 11.422 5.17 11.262 9.55zm-18.173-.014c-.27 3.962 3.29 6.636 7.32 6.677 3.926.04 7.43-3.246 7.43-6.804 0-3.83-4.56-5.9-7.51-5.91-3.58-.02-6.99 2.62-7.23 6.03zm1.29 14.174c-.08 3.337 3.06 5.73 6.29 5.633 2.88-.086 5.92-2.24 5.92-5.03.01-3.49-3.46-5.233-6.41-5.3-2.68-.06-5.733 2.176-5.792 4.697z" fill="#d40000"/></g></svg>