<svg xmlns="http://www.w3.org/2000/svg" width="224.225" height="312.808"><g transform="translate(-6480.66 2747.31)"><rect ry="10.63" rx="10.63" width="223.228" height="311.811" x="6481.158" y="-2746.811" fill="#fff" stroke="#000" stroke-width=".997"/><path d="M6570.482-2689.092c9.92-9.68 16.436-20.237 22.667-30.39 5.46 11.17 13.302 20.944 21.782 30.39-9.073 9.37-16.105 19.387-21.76 29.918-6.267-10.796-12.865-20.572-22.693-29.918zm0 197.102c9.92-9.68 16.436-20.236 22.667-30.388 5.46 11.17 13.302 20.943 21.782 30.39-9.073 9.368-16.105 19.386-21.76 29.917-6.267-10.8-12.865-20.576-22.693-29.92zm0-98.635c9.92-9.68 16.436-20.237 22.667-30.388 5.46 11.17 13.302 20.942 21.782 30.388-9.073 9.37-16.105 19.387-21.76 29.918-6.267-10.795-12.865-20.57-22.693-29.918zm106.973 93.287c4.064-3.966 6.733-8.29 9.285-12.45 2.24 4.577 5.45 8.58 8.925 12.45-3.717 3.838-6.598 7.94-8.914 12.255-2.563-4.422-5.27-8.427-9.292-12.255zm-186.987-186.212c4.064-3.966 6.733-8.29 9.285-12.45 2.24 4.577 5.45 8.58 8.925 12.45-3.717 3.838-6.597 7.94-8.914 12.256-2.567-4.423-5.27-8.427-9.296-12.256zm-.86-24.048l2.546-1.84c2.214 3.534 4.685 5.863 8.465 5.463 5.67-.382 8.02-6.22 6.832-10.623-1.147-3.945-5.846-5.87-9.58-3.763-.88.493-1.897 1.11-1.897 1.11l-1.33-2.17 8.765-10.194h-9.51v4.218h-3.65v-7.565h18.59v2.57s-4.98 5.07-6.627 7.846c4.055.148 7.323 2.67 8.492 6.658.687 2.1.378 6.902-.516 8.968-1.495 3.452-5.585 6.25-9.32 6.412-6.27.414-9.605-3.902-11.265-7.094zm206.33 233.384l-2.548 1.84c-2.214-3.533-4.685-5.863-8.465-5.462-5.674.382-8.023 6.22-6.836 10.623 1.143 3.945 5.842 5.87 9.575 3.763.88-.497 1.898-1.016 1.898-1.016l1.573 2.034-9.01 10.232h9.51v-4.22h3.65v7.566H6676.7v-2.568s4.98-5.07 6.627-7.847c-4.056-.144-7.324-2.665-8.494-6.655-.686-2.098-.377-6.9.517-8.968 1.494-3.45 5.584-6.25 9.322-6.41 6.27-.415 9.602 3.9 11.262 7.092z" fill="#d40000"/></g></svg>