<svg xmlns="http://www.w3.org/2000/svg" width="224.225" height="312.808"><g transform="translate(-6703.887 2435.498)"><rect ry="10.63" rx="10.63" width="223.228" height="311.811" x="6704.386" y="-2435" fill="#fff" stroke="#000" stroke-width=".997"/><path d="M6737.235-2377.695c9.92-9.68 16.437-20.237 22.668-30.388 5.464 11.17 13.305 20.942 21.786 30.388-9.08 9.37-16.11 19.387-21.76 29.918-6.27-10.795-12.87-20.57-22.7-29.918zm0 65.33c9.92-9.68 16.437-20.236 22.668-30.39 5.464 11.17 13.305 20.944 21.786 30.39-9.08 9.37-16.11 19.387-21.76 29.92-6.27-10.797-12.87-20.573-22.7-29.92zm0 66.898c9.92-9.682 16.437-20.237 22.668-30.39 5.464 11.17 13.305 20.943 21.786 30.39-9.08 9.368-16.11 19.386-21.76 29.918-6.27-10.79-12.87-20.57-22.7-29.91zm0 65.105c9.92-9.68 16.437-20.237 22.668-30.39 5.464 11.17 13.305 20.944 21.786 30.39-9.08 9.37-16.11 19.387-21.76 29.918-6.27-10.796-12.87-20.57-22.7-29.918zm56.185-162.968c9.92-9.682 16.435-20.238 22.666-30.39 5.464 11.17 13.306 20.942 21.786 30.39-9.073 9.368-16.105 19.385-21.76 29.917-6.267-10.796-12.865-20.572-22.693-29.918zm-.47 128.34c9.922-9.68 16.437-20.236 22.668-30.388 5.465 11.17 13.306 20.942 21.786 30.39-9.073 9.367-16.105 19.385-21.76 29.917-6.266-10.8-12.865-20.58-22.693-29.92zm55.818-162.705c9.92-9.68 16.436-20.237 22.667-30.388 5.465 11.17 13.306 20.942 21.787 30.388-9.074 9.37-16.106 19.387-21.76 29.918-6.267-10.795-12.866-20.57-22.694-29.918zm0 65.33c9.92-9.68 16.436-20.236 22.667-30.39 5.465 11.17 13.306 20.944 21.787 30.39-9.074 9.37-16.106 19.387-21.76 29.92-6.267-10.797-12.866-20.573-22.694-29.92zm0 66.898c9.92-9.682 16.436-20.237 22.667-30.39 5.465 11.17 13.306 20.943 21.787 30.39-9.074 9.368-16.106 19.386-21.76 29.918-6.267-10.79-12.866-20.57-22.694-29.91zm0 65.105c9.92-9.68 16.436-20.237 22.667-30.39 5.465 11.17 13.306 20.944 21.787 30.39-9.074 9.37-16.106 19.387-21.76 29.918-6.267-10.796-12.866-20.57-22.694-29.918zm52.525-6.044c4.064-3.966 6.732-8.29 9.285-12.45 2.238 4.577 5.45 8.58 8.925 12.45-3.717 3.837-6.598 7.94-8.914 12.255-2.57-4.43-5.27-8.43-9.3-12.26zm-188.816-185.858c4.064-3.966 6.733-8.29 9.286-12.45 2.238 4.577 5.45 8.58 8.924 12.45-3.716 3.838-6.597 7.94-8.913 12.256-2.568-4.423-5.27-8.427-9.297-12.256zm-.463-17.392v-31.506h3.11v31.506zm12.33-31.506c-2.995 0-5.402 2.686-5.402 6.022v19.462c0 3.336 2.407 6.022 5.402 6.022h1.745c2.99 0 5.4-2.686 5.4-6.022v-19.462c0-3.336-2.41-6.022-5.41-6.022h-1.746zm.9 2.978c1.77 0 3.192 1.337 3.192 3v19.724c0 1.665-1.423 3.006-3.19 3.006-1.77 0-3.193-1.34-3.193-3.006v-19.723c0-1.664 1.423-3 3.192-3zm194.742 249.65v31.507h-3.11v-31.506zm-12.33 31.507c2.994 0 5.402-2.686 5.402-6.022v-19.46c0-3.33-2.408-6.02-5.402-6.02h-1.745c-2.99 0-5.4 2.69-5.4 6.02v19.46c0 3.34 2.41 6.03 5.41 6.03h1.746zm-.9-2.978c-1.77 0-3.192-1.337-3.192-3v-19.724c0-1.66 1.423-3 3.19-3 1.77 0 3.193 1.34 3.193 3.01v19.72c0 1.664-1.423 3-3.192 3z" fill="#d40000"/></g></svg>