<svg xmlns="http://www.w3.org/2000/svg" width="224.225" height="312.808"><g transform="translate(-6257.43 2747.31)"><rect ry="10.63" rx="10.63" width="223.228" height="311.811" x="6257.929" y="-2746.811" fill="#fff" stroke="#000" stroke-width=".997"/><path d="M6347.418-2689.863c9.92-9.682 16.436-20.237 22.667-30.39 5.464 11.17 13.306 20.943 21.786 30.39-9.07 9.368-16.1 19.386-21.75 29.918-6.27-10.796-12.865-20.572-22.693-29.918zm0 198.808c9.92-9.682 16.436-20.237 22.667-30.39 5.464 11.17 13.306 20.943 21.786 30.39-9.07 9.368-16.1 19.386-21.75 29.918-6.27-10.796-12.865-20.572-22.693-29.918zm107.02-6.655c4.062-3.967 6.73-8.29 9.284-12.45 2.238 4.576 5.45 8.58 8.925 12.45-3.717 3.836-6.598 7.94-8.914 12.254-2.567-4.422-5.27-8.427-9.296-12.255zm-187.725-186.273c4.064-3.966 6.733-8.29 9.285-12.45 2.24 4.577 5.45 8.58 8.925 12.45-3.717 3.838-6.598 7.94-8.914 12.256-2.57-4.423-5.27-8.427-9.3-12.256zm-.473-16.19l.164-2.02c.51-6.24 1.874-8.346 9.622-14.855 3.76-3.16 4.994-4.718 5.168-6.526.49-4.26-3.35-5.59-5.855-5.614-3.25-.03-6.91 1.91-5.17 6.414l-3.638 1.068c-.734-4.2.017-8.142 3.426-9.893 4.546-2.28 10.38-1.38 13.323 2.21 1.978 2.42 2.428 5.75 1.368 8.36-3.1 6.67-13.62 9.61-14.49 17.32h11.63v-4.293h3.428v7.907zm206.608 218.536l-.165 2.02c-.51 6.238-1.875 8.345-9.622 14.854-3.76 3.16-4.99 4.717-5.16 6.526-.49 4.26 3.35 5.59 5.857 5.614 3.24.03 6.91-1.91 5.16-6.414l3.638-1.068c.735 4.2-.016 8.142-3.425 9.893-4.545 2.28-10.38 1.385-13.32-2.207-1.98-2.41-2.43-5.74-1.37-8.35 3.1-6.67 13.62-9.602 14.49-17.32h-11.63v4.3h-3.427v-7.906z" fill="#d40000"/></g></svg>