<svg xmlns="http://www.w3.org/2000/svg" height="312.808" width="224.225"><g transform="translate(-6703.887 2747.31)"><rect ry="10.63" rx="10.63" width="223.228" height="311.811" x="6704.386" y="-2746.811" fill="#fff" stroke="#000" stroke-width=".997"/><path d="M6739.206-2691.764c9.92-9.682 16.436-20.238 22.667-30.39 5.465 11.17 13.306 20.943 21.786 30.39-9.08 9.368-16.11 19.386-21.76 29.917-6.27-10.795-12.87-20.57-22.7-29.917zm0 198.847c9.92-9.682 16.436-20.238 22.667-30.39 5.465 11.17 13.306 20.943 21.786 30.39-9.08 9.368-16.11 19.386-21.76 29.917-6.27-10.795-12.87-20.57-22.7-29.917zm111.534-198.847c9.92-9.682 16.435-20.238 22.666-30.39 5.464 11.17 13.306 20.943 21.786 30.39-9.073 9.368-16.105 19.386-21.76 29.917-6.267-10.795-12.865-20.57-22.693-29.917zm0 198.847c9.92-9.682 16.435-20.238 22.666-30.39 5.464 11.17 13.306 20.943 21.786 30.39-9.073 9.368-16.105 19.386-21.76 29.917-6.267-10.795-12.865-20.57-22.693-29.917zm49.188-5.19c4.064-3.966 6.733-8.29 9.285-12.45 2.24 4.577 5.45 8.58 8.925 12.45-3.717 3.838-6.598 7.94-8.914 12.255-2.567-4.422-5.27-8.427-9.296-12.255zM6712.71-2683.22c4.063-3.966 6.732-8.29 9.285-12.448 2.238 4.575 5.45 8.58 8.924 12.448-3.72 3.838-6.6 7.942-8.92 12.256-2.57-4.422-5.27-8.427-9.3-12.256zm9.51-17.217v-2.813h2.586v-4.636h-12.925v-3.27l13.99-21.1 2.29.008v21.09h3.954v3.272h-3.953l-.076 4.636h2.166v2.813zm2.586-24.097l-8.88 13.377h8.88zm184.972 243.16v2.813h-2.585v4.63h12.925v3.27l-13.985 21.1-2.285-.01v-21.09h-3.953v-3.27h3.953l.076-4.64h-2.167v-2.813zm-2.585 24.097l8.88-13.377h-8.88z" fill="#d40000"/></g></svg>