<svg xmlns="http://www.w3.org/2000/svg" width="224.225" height="312.808"><g transform="translate(-6927.116 2747.31)"><rect ry="10.63" rx="10.63" width="223.228" height="311.811" x="6927.614" y="-2746.811" fill="#fff" stroke="#000" stroke-width=".997"/><path d="M6961.493-2689.907c9.92-9.68 16.436-20.237 22.667-30.39 5.464 11.17 13.306 20.944 21.786 30.39-9.073 9.37-16.105 19.387-21.76 29.918-6.267-10.79-12.865-20.57-22.693-29.91zm0 196.652c9.92-9.682 16.436-20.238 22.667-30.39 5.464 11.17 13.306 20.943 21.786 30.39-9.073 9.368-16.105 19.386-21.76 29.918-6.267-10.796-12.865-20.572-22.693-29.918zm110.68-196.652c9.92-9.68 16.437-20.237 22.668-30.39 5.47 11.17 13.31 20.944 21.79 30.39-9.07 9.37-16.1 19.387-21.76 29.918-6.26-10.79-12.86-20.57-22.69-29.91zm-55.243 99.263c9.922-9.682 16.437-20.238 22.668-30.39 5.465 11.17 13.306 20.943 21.786 30.39-9.073 9.368-16.105 19.386-21.76 29.917-6.266-10.795-12.865-20.57-22.693-29.917zm55.244 97.39c9.92-9.683 16.436-20.24 22.667-30.39 5.47 11.17 13.31 20.942 21.79 30.39-9.07 9.367-16.1 19.385-21.76 29.917-6.26-10.796-12.86-20.572-22.69-29.918zm51.226-4.506c4.065-3.966 6.734-8.29 9.287-12.448 2.238 4.575 5.45 8.58 8.924 12.448-3.71 3.838-6.59 7.942-8.91 12.256-2.57-4.423-5.27-8.427-9.29-12.256zm-186.707-185.857c4.064-3.966 6.733-8.29 9.286-12.45 2.23 4.577 5.45 8.58 8.92 12.45-3.72 3.837-6.6 7.94-8.92 12.255-2.57-4.422-5.27-8.427-9.297-12.255zm-.9-25.656l3.22-.03c.613 1.946 1.973 3.928 3.817 4.475 5.212 1.224 8.568-1.687 9.673-5.047 1.34-4.073-.03-9.795-3.618-11.827-2.975-1.686-7.394-.264-9.422 3.338l-2.257-1.38 1.212-13.42h14.73v3.17h-11.938l-.187 5.592c2.565-1.803 6.518-1.785 9.085-.52 4.865 2.32 7.125 7.592 6.178 13.81-1.31 6.183-4.198 9.687-10.718 10.19-7.244.063-9.803-4.918-9.775-8.35zm206.87 236.735l-3.22.03c-.612-1.946-1.972-3.928-3.817-4.475-5.212-1.224-8.567 1.687-9.672 5.047-1.34 4.073.03 9.795 3.617 11.827 2.98 1.69 7.4.27 9.43-3.33l2.26 1.38-1.21 13.42h-14.73v-3.17h11.936l.188-5.59c-2.565 1.804-6.517 1.786-9.085.52-4.863-2.32-7.123-7.59-6.176-13.81 1.31-6.182 4.197-9.686 10.72-10.19 7.242-.062 9.8 4.92 9.772 8.35z" fill="#d40000"/></g></svg>