<svg xmlns="http://www.w3.org/2000/svg" width="224.225" height="312.808"><g transform="translate(-6480.66 2435.498)"><rect ry="10.63" rx="10.63" width="223.228" height="311.811" x="6481.158" y="-2435" fill="#fff" stroke="#000" stroke-width=".997"/><path d="M6513.833-2377.342c9.92-9.682 16.436-20.238 22.667-30.39 5.464 11.17 13.306 20.943 21.786 30.39-9.073 9.368-16.105 19.386-21.76 29.917-6.267-10.795-12.865-20.57-22.693-29.917zm0 65.33c9.92-9.68 16.436-20.237 22.667-30.39 5.464 11.17 13.306 20.944 21.786 30.39-9.073 9.37-16.105 19.387-21.76 29.918-6.267-10.796-12.865-20.572-22.693-29.918zm0 66.897c9.92-9.68 16.436-20.237 22.667-30.39 5.464 11.17 13.306 20.944 21.786 30.39-9.073 9.37-16.105 19.387-21.76 29.918-6.267-10.796-12.865-20.572-22.693-29.918zm0 65.105c9.92-9.68 16.436-20.237 22.667-30.388 5.464 11.17 13.306 20.942 21.786 30.39-9.073 9.367-16.105 19.385-21.76 29.916-6.267-10.795-12.865-20.57-22.693-29.917zm56.444-98.864c9.92-9.682 16.436-20.238 22.667-30.39 5.464 11.17 13.306 20.943 21.786 30.39-9.073 9.368-16.105 19.386-21.76 29.917-6.266-10.795-12.865-20.57-22.693-29.917zm55.088-98.468c9.92-9.682 16.436-20.238 22.667-30.39 5.465 11.17 13.306 20.943 21.787 30.39-9.08 9.368-16.11 19.386-21.76 29.917-6.27-10.795-12.87-20.57-22.7-29.917zm0 65.33c9.92-9.68 16.436-20.237 22.667-30.39 5.465 11.17 13.306 20.944 21.787 30.39-9.08 9.37-16.11 19.387-21.76 29.918-6.27-10.796-12.87-20.572-22.7-29.918zm0 66.897c9.92-9.68 16.436-20.237 22.667-30.39 5.465 11.17 13.306 20.944 21.787 30.39-9.08 9.37-16.11 19.387-21.76 29.918-6.27-10.796-12.87-20.572-22.7-29.918zm0 65.105c9.92-9.68 16.436-20.237 22.667-30.388 5.465 11.17 13.306 20.942 21.787 30.39-9.08 9.367-16.11 19.385-21.76 29.916-6.27-10.795-12.87-20.57-22.7-29.917zm52.76-8.21c4.063-3.967 6.732-8.29 9.284-12.45 2.23 4.576 5.45 8.58 8.92 12.45-3.72 3.837-6.6 7.94-8.92 12.255-2.567-4.423-5.27-8.427-9.296-12.256zm-188.815-185.858c4.063-3.966 6.73-8.29 9.284-12.45 2.238 4.577 5.45 8.58 8.925 12.45-3.72 3.837-6.6 7.94-8.92 12.255-2.57-4.422-5.27-8.427-9.3-12.255zm.123-21.572l3.027-.94c1.142 2.994 3.45 3.877 5.892 3.688 4.382-.34 5.836-5.15 6.165-9.4-1.708 1.774-4.274 2.676-6.46 2.588-6.982-.37-8.77-5.855-8.834-11.6-.194-4.848 1.847-8.357 5.348-9.965 1.86-.81 6.1-.81 7.96.15 4.29 2.22 5.87 6.05 5.58 15.19.01 7.53-1.62 16.29-9.83 16.48-4.746.65-8.35-2.98-8.84-6.18zm11.888-8.243c1.43-.886 2.23-1.716 2.87-2.962.53-1.023.7-1.553.56-3.67-.384-5.456-3.3-8.548-7.524-7.934-2.357.35-3.643 1.64-4.383 4.05-1.365 4.45.366 9.66 3.61 10.86 1.46.54 3.714.39 4.878-.34zm194.15 241.353l-3.02.942c-1.14-2.995-3.45-3.878-5.89-3.69-4.38.342-5.835 5.15-6.164 9.4 1.707-1.773 4.274-2.675 6.46-2.587 6.98.37 8.77 5.855 8.834 11.6.194 4.848-1.848 8.357-5.348 9.965-1.852.816-6.095.816-7.96-.15-4.282-2.215-5.867-6.047-5.58-15.19-.004-7.524 1.625-16.287 9.838-16.475 4.75-.644 8.354 2.98 8.84 6.185zm-11.88 8.244c-1.425.886-2.23 1.716-2.87 2.962-.523 1.023-.7 1.553-.55 3.67.384 5.456 3.3 8.548 7.524 7.934 2.356-.343 3.643-1.638 4.38-4.048 1.366-4.45-.365-9.657-3.61-10.857-1.46-.54-3.713-.384-4.88.34z" fill="#d40000"/></g></svg>