<svg xmlns="http://www.w3.org/2000/svg" height="312.808" width="224.225"><rect ry="10.63" rx="10.63" width="223.228" height="311.811" x="6704.386" y="-2746.811" fill="#fff" stroke="#000" stroke-width=".997" transform="translate(-6703.887 2747.31)"/><path d="M18.91 46.872V44.06h2.585v-4.637H8.57v-3.27l13.985-21.1 2.286.01v21.09h3.96v3.27h-3.96l-.07 4.636h2.165v2.81zm2.585-24.097l-8.88 13.377h8.88zm184.972 243.16v2.814h-2.585v4.63h12.925v3.27l-13.985 21.1-2.285-.01v-21.09h-3.953v-3.27h3.953l.076-4.64h-2.167v-2.814zm-2.585 24.098l8.88-13.377h-8.88zM154.302 83.88c2.88-5.776 4.977-11.7 5.35-18.037.34-2.332-1.075-2.37-1.29-.73-4.075 15.594-25.76 11.37-25.016-3.296.605-11.894 12.42-14.453 18.583-10.564 2.43 1.433 2.29.575.96-.912-9.157-10.21-3.61-23.36 8.76-23.6 13.38.8 16.85 14.87 8.643 23.15-1.02 1-3.284 4.19.123 1.96 8.287-5.89 19.787.445 19.553 9.52-.433 16.74-20.84 17.99-25.204 4.01-.42-1.55-1.63-2.33-1.296.304.606 4.767 1.858 11.954 5.44 18.206zm-99.532 0c2.88-5.776 4.977-11.7 5.35-18.037.34-2.332-1.076-2.37-1.29-.73-4.076 15.594-25.762 11.37-25.016-3.296.605-11.894 12.42-14.453 18.582-10.564 2.433 1.433 2.296.575.968-.912-9.155-10.21-3.61-23.36 8.76-23.6 13.38.8 16.852 14.87 8.645 23.15-1.02 1-3.29 4.19.12 1.96 8.28-5.89 19.78.445 19.55 9.52-.437 16.74-20.84 17.99-25.207 4.01-.42-1.55-1.63-2.33-1.295.304.605 4.767 1.856 11.954 5.437 18.206zm114.235 141.706c-2.88 5.775-4.975 11.7-5.348 18.037-.34 2.332 1.075 2.37 1.288.73 4.077-15.594 25.763-11.372 25.018 3.295-.605 11.895-12.42 14.454-18.583 10.565-2.433-1.433-2.296-.575-.968.91 9.155 10.213 3.61 23.363-8.76 23.604-13.38-.794-16.852-14.87-8.645-23.148 1.02-1 3.283-4.2-.123-1.96-8.287 5.89-19.787-.45-19.553-9.52.44-16.74 20.84-17.99 25.21-4.01.42 1.55 1.63 2.33 1.298-.308-.604-4.766-1.856-11.953-5.437-18.205zm-99.532 0c-2.88 5.775-4.976 11.7-5.348 18.037-.342 2.332 1.074 2.37 1.288.73 4.076-15.594 25.762-11.372 25.017 3.295-.605 11.895-12.42 14.454-18.583 10.565-2.433-1.433-2.296-.575-.967.91 9.154 10.213 3.61 23.363-8.762 23.604-13.38-.794-16.85-14.87-8.644-23.148 1.02-1 3.284-4.2-.123-1.96-8.28 5.89-19.78-.45-19.55-9.52.44-16.74 20.84-17.99 25.21-4.01.42 1.55 1.63 2.33 1.296-.308-.605-4.766-1.857-11.953-5.44-18.205zM14.46 75.92c1.19-2.445 2.35-4.72 2.983-7.4.42-2.528-.438-1.59-.925.068-.722 2.297-2.723 3.343-4.58 3.37-3.37.044-5.053-2.606-4.948-5.455-.368-3 2.67-5.12 4.96-4.957 1.724.123 3.225 1.052 4.134 1.775.597.32 1.234.46.345-.35-1.68-1.83-3.08-2.963-3.05-5.71.03-2.58 2.23-5.27 5.15-5.183 3.65.105 5.31 2.89 5.302 5.48-.01 1.89-.955 3.627-2.41 4.703-.947.766-.68 1.34.395.615 1.035-.892 2.267-1.283 3.545-1.31 3.49-.055 4.856 2.96 4.656 5.764-.187 2.624-2.423 5.33-5.37 5.02-2.63-.3-4.01-2.51-4.804-4.776-.263-.696-.677-.884-.665.152.607 5.058 2.49 8.205 2.505 8.2zm195.306 161.26c-1.192 2.444-2.352 4.72-2.984 7.4-.42 2.527.438 1.588.925-.07.722-2.296 2.723-3.343 4.58-3.368 3.37-.045 5.053 2.605 4.948 5.454.368 3-2.67 5.12-4.96 4.957-1.724-.123-3.225-1.052-4.134-1.775-.59-.315-1.23-.455-.34.358 1.68 1.833 3.08 2.964 3.05 5.71-.03 2.58-2.233 5.27-5.155 5.185-3.65-.1-5.312-2.89-5.303-5.48.01-1.88.954-3.62 2.41-4.7.946-.76.68-1.34-.396-.61-1.035.89-2.267 1.28-3.545 1.31-3.49.057-4.855-2.96-4.655-5.762.184-2.626 2.42-5.33 5.37-5.023 2.63.3 4.01 2.51 4.8 4.777.264.695.678.883.666-.153-.61-5.057-2.49-8.204-2.506-8.2z"/></svg>