<svg xmlns="http://www.w3.org/2000/svg" width="224.225" height="312.808"><g transform="translate(-6034.202 2747.31)"><rect y="-2746.811" x="6034.701" height="311.811" width="223.228" rx="10.63" ry="10.63" fill="#fff" stroke="#000" stroke-width=".997"/><path d="M6041.936-2700.745v-2.737h2.66l5.665-29.272h3.23l6.245 29.272h2.148v2.737h-7.317v-2.737h1.975l-.787-4.486h-7.387l-.57 4.486h1.98v2.737zm13.178-10.416l-3.21-15.68-3.005 15.67zm195.58 230.09v2.734h-2.66l-5.665 29.273h-3.23l-6.245-29.27h-2.148v-2.737h7.317v2.738h-1.975l.787 4.49h7.386l.57-4.488h-1.977v-2.735zm-13.178 10.413l3.208 15.67 3.007-15.67z" fill="#d40000"/></g><path d="M8.78 61.253c-1.583-3.473-1.757-9.406 2.97-10.208 3.563-.46 5.012 1.198 5.3 3.74.143.745.562.79.695-.057.205-2.61 2.788-4.132 4.807-3.75 5.526.946 5.204 7.03 3.398 11.156-2.73 5.48-5.6 8.937-8.245 14.452-3.038-5.74-6.507-10.405-8.925-15.333zm91.283 66.404c7.144-.474 10.868 5.628 11.595 10.437.433.764.67.548.837-.043.35-6.17 5.875-11.22 10.992-10.53 8.328.11 13.39 9.38 11.967 17.22-1.74 9.59-6.9 15.35-10.808 21.3-4.42 6.15-10.373 15.04-12.29 19.318 0 0-6.048-9.204-13.917-20.03-5.27-7.237-9.48-15.08-9.87-21.834-.45-7.716 2.72-14.632 11.49-15.83zM197.16 251.94c-1.584 3.472-1.757 9.405 2.97 10.208 3.563.458 5.012-1.198 5.3-3.742.143-.743.562-.79.695.058.205 2.61 2.787 4.133 4.807 3.75 5.526-.945 5.204-7.028 3.398-11.155-2.73-5.48-5.6-8.94-8.245-14.46-3.038 5.74-6.507 10.404-8.926 15.332z" fill="#d40000"/></svg>