<svg xmlns="http://www.w3.org/2000/svg" width="224.225" height="312.808"><g transform="translate(-6034.202 2747.31)"><rect y="-2746.811" x="6034.701" height="311.811" width="223.228" rx="10.63" ry="10.63" fill="#fff" stroke="#000" stroke-width=".997"/><path d="M6123.944-2590.774c9.92-9.682 16.436-20.238 22.667-30.39 5.47 11.17 13.31 20.943 21.79 30.39-9.07 9.368-16.102 19.386-21.76 29.917-6.264-10.795-12.862-20.57-22.69-29.917zm106.986 93c4.063-3.965 6.732-8.29 9.285-12.45 2.238 4.578 5.45 8.58 8.924 12.45-3.72 3.84-6.6 7.94-8.92 12.256-2.568-4.422-5.27-8.427-9.297-12.255zm-188.38-185.686c4.063-3.966 6.732-8.29 9.285-12.45 2.238 4.577 5.45 8.58 8.924 12.45-3.72 3.838-6.6 7.94-8.92 12.255-2.568-4.422-5.27-8.427-9.297-12.255zm-.614-17.285v-2.737h2.66l5.665-29.272h3.23l6.243 29.272h2.148v2.737h-7.317v-2.737h1.975l-.788-4.486h-7.387l-.57 4.486h1.98v2.737zm13.178-10.416l-3.21-15.678-3.005 15.67zm195.58 230.09v2.736h-2.66l-5.665 29.273h-3.23l-6.243-29.27h-2.148v-2.737h7.317v2.737h-1.975l.788 4.49h7.386l.57-4.488h-1.977v-2.735zm-13.178 10.415l3.208 15.67 3.007-15.67z" fill="#d40000"/></g></svg>