<svg xmlns="http://www.w3.org/2000/svg" width="224.225" height="312.808"><g transform="translate(-7150.344 2747.31)"><rect ry="10.63" rx="10.63" width="223.228" height="311.811" x="7150.843" y="-2746.811" fill="#fff" stroke="#000" stroke-width=".997"/><path d="M7184.604-2689.466c9.92-9.68 16.436-20.237 22.667-30.39 5.47 11.17 13.31 20.943 21.79 30.39-9.07 9.37-16.1 19.386-21.76 29.918-6.26-10.796-12.86-20.572-22.69-29.918zm0 98.894c9.92-9.682 16.436-20.238 22.667-30.39 5.47 11.17 13.31 20.943 21.79 30.39-9.07 9.368-16.1 19.386-21.76 29.918-6.26-10.796-12.86-20.572-22.69-29.918zm0 98.598c9.92-9.68 16.436-20.237 22.667-30.39 5.47 11.17 13.31 20.944 21.79 30.39-9.07 9.37-16.1 19.387-21.76 29.918-6.26-10.796-12.86-20.57-22.69-29.918zm111.533-197.492c9.92-9.68 16.436-20.237 22.667-30.39 5.464 11.17 13.306 20.943 21.786 30.39-9.073 9.37-16.105 19.386-21.76 29.918-6.266-10.796-12.865-20.572-22.693-29.918zm0 98.894c9.92-9.682 16.436-20.238 22.667-30.39 5.464 11.17 13.306 20.943 21.786 30.39-9.073 9.368-16.105 19.386-21.76 29.918-6.266-10.796-12.865-20.572-22.693-29.918zm0 98.598c9.92-9.68 16.436-20.237 22.667-30.39 5.464 11.17 13.306 20.944 21.786 30.39-9.073 9.37-16.105 19.387-21.76 29.918-6.266-10.796-12.865-20.57-22.693-29.918zm51.74-7.01c4.063-3.965 6.732-8.29 9.284-12.45 2.24 4.578 5.46 8.58 8.93 12.45-3.712 3.84-6.6 7.94-8.91 12.257-2.566-4.423-5.27-8.427-9.295-12.256zM7159.06-2684.84c4.065-3.967 6.733-8.29 9.286-12.45 2.238 4.577 5.45 8.58 8.925 12.45-3.71 3.837-6.59 7.94-8.91 12.255-2.56-4.422-5.27-8.427-9.29-12.256zm.023-25.97c-.41-2.748-.402-9.846-.066-11.943 1.03-6.43 3.532-9.37 7.722-10.333 4.06-.935 9.78.106 11.04 5.482l-3.41.063c-1.84-3.64-6.498-2.67-9.118-1.09-2.093 1.26-3.038 6.52-2.634 6.842-.003 0 3.957-2.878 7.076-2.665 6.667.68 9.416 6.355 9.184 11.72-.21 6.45-2.293 11.602-9.36 11.946-6.72-.252-9.8-3.85-10.443-10.03zm16.57-1.706c.037-4.475-2.034-7.822-5.95-8.192-3.915-.37-7.863 3.382-7.59 7.943.275 4.576 2.08 8.43 6.827 8.41 5.106-.023 6.687-4.976 6.713-8.16zM7365.83-2471c.41 2.747.403 9.845.067 11.942-1.03 6.43-3.532 9.37-7.722 10.333-4.07.935-9.79-.106-11.044-5.482l3.41-.063c1.84 3.633 6.5 2.662 9.12 1.082 2.095-1.262 3.04-6.52 2.636-6.843.003 0-3.957 2.87-7.076 2.66-6.668-.68-9.417-6.36-9.185-11.72.21-6.45 2.293-11.607 9.36-11.95 6.72.253 9.8 3.85 10.443 10.03zm-16.57 1.705c-.036 4.475 2.035 7.822 5.95 8.192 3.916.37 7.864-3.382 7.59-7.943-.274-4.576-2.078-8.43-6.826-8.41-5.106.023-6.687 4.976-6.713 8.16z" fill="#d40000"/></g></svg>