<svg xmlns="http://www.w3.org/2000/svg" width="224.218" height="312.801"><g transform="translate(-6034.206 2435.495)"><rect ry="10.63" rx="10.63" width="223.228" height="311.811" x="6034.701" y="-2435" fill="#fff" stroke="#000" stroke-width=".99" stroke-miterlimit="3.8"/><path d="M6067.71-2376.21c9.92-9.682 16.437-20.238 22.668-30.39 5.464 11.17 13.306 20.943 21.786 30.39-9.073 9.368-16.105 19.386-21.76 29.917-6.267-10.795-12.865-20.57-22.693-29.917zm0 100.248c9.92-9.682 16.437-20.237 22.668-30.39 5.464 11.17 13.306 20.943 21.786 30.39-9.073 9.37-16.105 19.386-21.76 29.918-6.267-10.796-12.865-20.572-22.693-29.918zm0 98.6c9.92-9.683 16.437-20.24 22.668-30.39 5.464 11.17 13.306 20.942 21.786 30.39-9.073 9.367-16.105 19.385-21.76 29.916-6.267-10.795-12.865-20.57-22.693-29.917zm56.435-148.724c9.92-9.682 16.436-20.238 22.667-30.39 5.464 11.17 13.306 20.943 21.786 30.39-9.073 9.368-16.105 19.386-21.76 29.918-6.267-10.796-12.865-20.572-22.693-29.918zm55.1-50.124c9.92-9.682 16.435-20.238 22.666-30.39 5.468 11.17 13.31 20.943 21.79 30.39-9.073 9.368-16.105 19.386-21.76 29.917-6.267-10.795-12.865-20.57-22.693-29.917zm0 100.248c9.92-9.682 16.435-20.237 22.666-30.39 5.468 11.17 13.31 20.943 21.79 30.39-9.073 9.37-16.105 19.386-21.76 29.918-6.267-10.796-12.865-20.572-22.693-29.918zm0 98.6c9.92-9.683 16.435-20.24 22.666-30.39 5.468 11.17 13.31 20.942 21.79 30.39-9.073 9.367-16.105 19.385-21.76 29.916-6.267-10.795-12.865-20.57-22.693-29.917zm52.665-7.224c4.065-3.966 6.734-8.29 9.287-12.448 2.238 4.575 5.45 8.58 8.924 12.448-3.712 3.838-6.593 7.942-8.91 12.256-2.57-4.422-5.27-8.427-9.296-12.256zm-188.814-185.857c4.064-3.966 6.733-8.29 9.286-12.45 2.238 4.577 5.45 8.58 8.924 12.45-3.717 3.837-6.597 7.94-8.913 12.255-2.568-4.422-5.27-8.427-9.297-12.255zm3.947-18.047c2.132-11.09 4.41-19.41 10.38-28.447h-12.135v3.89h-3.225v-7.33h17.754l2.188 3.44c-6.34 6.797-12.148 28.768-11.12 28.447zm198.544 218.79c-2.132 11.09-4.41 19.41-10.38 28.448h12.134v-3.89h3.23v7.33h-17.754l-2.19-3.44c6.343-6.797 12.15-28.768 11.12-28.447z" fill="#d40000"/></g></svg>