<svg xmlns="http://www.w3.org/2000/svg" width="224.225" height="312.808"><g transform="translate(-6703.887 2747.31)"><rect y="-2746.811" x="6704.386" height="311.811" width="223.228" rx="10.63" ry="10.63" fill="#fff" stroke="#000" stroke-width=".997"/><path d="M6722.22-2700.437v-2.813h2.586v-4.636h-12.925v-3.27l13.99-21.1 2.29.008v21.09h3.954v3.272h-3.953l-.076 4.636h2.166v2.813zm2.586-24.097l-8.88 13.377h8.88zm184.972 243.16v2.813h-2.585v4.63h12.925v3.27l-13.985 21.1-2.285-.01v-21.09h-3.953v-3.27h3.953l.076-4.64h-2.167v-2.813zm-2.585 24.097l8.88-13.377h-8.88z"/></g><path d="M55.405 66.76c.015-2.026-1.587-2.064-1.57-.586-.133 7.43-6.415 11.087-10.98 10.22-7.035-1.34-9.28-8.323-9.214-12.437.21-12.697 12.99-22.057 24.52-38.334 8.45 14.69 22.4 26.23 23.23 37.586 1.098 15.09-18.01 20.72-20.74 3.13-.174-1.25-1.64-1.8-1.524-.07.417 4.82-.173 6.83 5.268 18.72H50.167c3.15-5.557 5.025-12.377 5.24-18.238zm111.533 0c.015-2.026-1.587-2.064-1.57-.586-.133 7.43-6.415 11.087-10.98 10.22-7.036-1.34-9.28-8.323-9.214-12.437.207-12.696 12.988-22.058 24.52-38.334 8.45 14.69 22.397 26.23 23.223 37.586 1.098 15.09-18.01 20.72-20.737 3.13-.176-1.25-1.64-1.8-1.526-.07.414 4.82-.175 6.83 5.266 18.72h-14.222c3.15-5.558 5.025-12.378 5.24-18.24zM55.416 242.73c.015 2.027-1.587 2.066-1.57.587-.133-7.43-6.415-11.086-10.98-10.22-7.036 1.34-9.28 8.323-9.214 12.437.207 12.696 12.988 22.058 24.52 38.334 8.45-14.69 22.397-26.23 23.223-37.585 1.098-15.1-18.01-20.73-20.737-3.133-.176 1.243-1.64 1.8-1.526.065.414-4.823-.175-6.832 5.266-18.72H50.176c3.15 5.555 5.025 12.375 5.24 18.236zm111.532 0c.015 2.027-1.586 2.066-1.568.587-.134-7.43-6.417-11.086-10.98-10.22-7.037 1.34-9.283 8.323-9.215 12.437.207 12.696 12.987 22.058 24.52 38.334 8.45-14.69 22.397-26.23 23.223-37.585 1.097-15.1-18.01-20.73-20.737-3.133-.17 1.243-1.64 1.8-1.52.065.418-4.823-.17-6.832 5.27-18.72h-14.22c3.15 5.555 5.024 12.375 5.24 18.236zM17.5 70.55c.01-.872-.896-.465-1.018-.19-1.163 1.985-2.865 2.447-4.548 1.73-1.667-.708-2.604-2.28-2.454-4.52.31-3.44 3.035-7.2 4.355-9.328 1.252-1.93 2.628-4.222 4.077-7.154 1.697 3.363 2.558 4.32 4.405 7.392 1.626 2.704 3.892 5.353 4.067 8.622 0 2.485-1.046 4.832-3.4 5.26-1.33.24-2.578-.442-3.503-2.037-.28-.407-.84-.195-.83.362.166 2.093.956 3.983 2.83 6.21h-6.89c1.41-1.575 2.85-3.702 2.917-6.348zm187.218 172c.01.87-.895.464-1.017.19-1.16-1.986-2.86-2.448-4.54-1.732-1.67.71-2.603 2.28-2.452 4.522.31 3.438 3.035 7.2 4.355 9.327 1.25 1.93 2.628 4.222 4.076 7.154 1.7-3.36 2.56-4.32 4.406-7.39 1.627-2.7 3.893-5.35 4.068-8.62 0-2.48-1.045-4.83-3.4-5.26-1.33-.24-2.577.44-3.502 2.04-.28.41-.85.198-.84-.36.168-2.092.958-3.982 2.83-6.21h-6.885c1.41 1.576 2.85 3.7 2.916 6.35z"/></svg>