<svg xmlns="http://www.w3.org/2000/svg" width="224.225" height="312.808"><g transform="rotate(180 3464.056 -1061.345)"><rect ry="10.63" rx="10.63" width="223.228" height="311.811" x="6704.386" y="-2435" fill="#fff" stroke="#000" stroke-width=".997"/><path d="M6712.014-2389.656v-31.506h3.11v31.506zm12.33-31.506c-2.995 0-5.402 2.686-5.402 6.022v19.462c0 3.336 2.407 6.022 5.402 6.022h1.745c2.99 0 5.4-2.686 5.4-6.022v-19.462c0-3.336-2.41-6.022-5.41-6.022h-1.746zm.9 2.978c1.77 0 3.192 1.337 3.192 3v19.724c0 1.665-1.423 3.006-3.19 3.006-1.77 0-3.193-1.34-3.193-3.006v-19.723c0-1.664 1.423-3 3.192-3zm194.742 249.65v31.507h-3.11v-31.506zm-12.33 31.507c2.994 0 5.402-2.686 5.402-6.022v-19.46c0-3.33-2.408-6.02-5.402-6.02h-1.745c-2.99 0-5.4 2.69-5.4 6.02v19.46c0 3.34 2.41 6.03 5.41 6.03h1.746zm-.9-2.978c-1.77 0-3.192-1.337-3.192-3v-19.724c0-1.66 1.423-3 3.19-3 1.77 0 3.193 1.34 3.193 3.01v19.72c0 1.664-1.423 3-3.192 3z"/></g><path d="M53.434 69.02c.015-2.027-1.587-2.066-1.568-.587-.135 7.43-6.417 11.086-10.98 10.22-7.037-1.34-9.283-8.323-9.216-12.437.208-12.696 12.988-22.058 24.52-38.334 8.45 14.69 22.398 26.23 23.223 37.585 1.098 15.098-18.008 20.73-20.736 3.133-.176-1.243-1.64-1.8-1.527-.065.415 4.823-.174 6.83 5.266 18.72H48.194c3.15-5.555 5.026-12.375 5.24-18.236zm55.716 32.664c.015-2.026-1.587-2.064-1.57-.586-.133 7.43-6.415 11.087-10.98 10.22-7.035-1.34-9.28-8.323-9.214-12.436.207-12.697 12.988-22.06 24.52-38.335 8.45 14.69 22.397 26.23 23.223 37.586 1.09 15.098-18.01 20.73-20.74 3.132-.18-1.243-1.64-1.8-1.53-.065.412 4.823-.178 6.832 5.263 18.72h-14.22c3.15-5.555 5.024-12.375 5.24-18.236zm55.817-32.664c.015-2.027-1.587-2.066-1.57-.587-.133 7.43-6.415 11.086-10.98 10.22-7.035-1.34-9.28-8.323-9.214-12.437.207-12.696 12.988-22.058 24.52-38.334 8.45 14.69 22.398 26.23 23.223 37.585 1.098 15.098-18.01 20.73-20.737 3.133-.18-1.243-1.64-1.8-1.53-.065.41 4.823-.18 6.83 5.26 18.72h-14.22c3.15-5.555 5.026-12.375 5.24-18.236zm0 65.33c.015-2.026-1.587-2.065-1.57-.587-.133 7.43-6.415 11.087-10.98 10.22-7.035-1.338-9.28-8.323-9.214-12.436.207-12.697 12.988-22.06 24.52-38.335 8.45 14.69 22.398 26.23 23.223 37.586 1.098 15.098-18.01 20.73-20.737 3.133-.18-1.24-1.64-1.8-1.53-.06.41 4.82-.18 6.83 5.26 18.72h-14.22c3.15-5.55 5.026-12.37 5.24-18.232zm-111.533 0c.015-2.026-1.587-2.065-1.568-.587-.135 7.43-6.417 11.087-10.98 10.22-7.037-1.338-9.283-8.323-9.216-12.436.208-12.697 12.988-22.06 24.52-38.335 8.45 14.69 22.398 26.23 23.223 37.586 1.098 15.098-18.008 20.73-20.736 3.133-.176-1.24-1.64-1.8-1.527-.06.415 4.82-.174 6.83 5.266 18.72H48.194c3.15-5.55 5.026-12.37 5.24-18.232zm111.544 44.134c.015 2.025-1.587 2.064-1.57.585-.133-7.43-6.415-11.09-10.98-10.22-7.035 1.33-9.28 8.32-9.214 12.43.207 12.693 12.988 22.06 24.52 38.332 8.45-14.69 22.397-26.23 23.223-37.586 1.098-15.098-18.01-20.73-20.737-3.133-.176 1.243-1.64 1.8-1.526.065.415-4.823-.175-6.83 5.266-18.72h-14.222c3.15 5.555 5.025 12.374 5.24 18.236zm0 65.33c.015 2.026-1.587 2.065-1.57.586-.133-7.43-6.415-11.086-10.98-10.22-7.035 1.34-9.28 8.323-9.214 12.437.207 12.696 12.988 22.058 24.52 38.334 8.45-14.69 22.397-26.22 23.223-37.58 1.098-15.1-18.01-20.73-20.737-3.13-.176 1.245-1.64 1.8-1.526.067.415-4.823-.175-6.832 5.266-18.72h-14.222c3.15 5.555 5.025 12.375 5.24 18.236zm-55.35-32.664c.015 2.025-1.587 2.063-1.568.585-.135-7.43-6.417-11.087-10.98-10.22-7.037 1.34-9.283 8.323-9.216 12.436.208 12.7 12.988 22.06 24.52 38.34 8.45-14.69 22.398-26.23 23.223-37.58 1.098-15.098-18.008-20.73-20.736-3.13-.17 1.24-1.64 1.8-1.52.063.418-4.823-.17-6.832 5.27-18.72H104.4c3.15 5.555 5.024 12.375 5.24 18.236zm-56.183-32.666c.015 2.025-1.587 2.064-1.57.585-.133-7.43-6.415-11.09-10.98-10.22-7.035 1.33-9.28 8.32-9.214 12.43.21 12.693 12.99 22.06 24.52 38.332 8.45-14.69 22.4-26.23 23.23-37.586 1.1-15.098-18.01-20.73-20.734-3.133-.176 1.243-1.64 1.8-1.526.065.415-4.823-.175-6.83 5.266-18.72h-14.23c3.15 5.555 5.027 12.374 5.24 18.236zm0 65.33c.015 2.026-1.587 2.065-1.57.586-.133-7.43-6.415-11.086-10.98-10.22-7.035 1.34-9.28 8.323-9.214 12.437.21 12.696 12.99 22.058 24.52 38.334 8.45-14.69 22.4-26.22 23.23-37.58 1.1-15.1-18.01-20.73-20.734-3.13-.176 1.245-1.64 1.8-1.526.067.415-4.823-.175-6.832 5.266-18.72h-14.23c3.15 5.555 5.027 12.375 5.24 18.236zM17.288 70.368c.01-.87-.896-.464-1.018-.19-1.163 1.986-2.865 2.448-4.548 1.732-1.667-.71-2.604-2.28-2.454-4.522.31-3.438 3.035-7.2 4.355-9.327 1.252-1.93 2.628-4.22 4.077-7.15 1.697 3.37 2.558 4.32 4.405 7.39 1.626 2.71 3.892 5.36 4.067 8.62 0 2.49-1.046 4.84-3.4 5.26-1.33.25-2.578-.44-3.503-2.03-.29-.405-.85-.193-.84.36.16 2.096.95 3.986 2.83 6.21h-6.89c1.41-1.572 2.85-3.7 2.91-6.35zm188.815 172.746c.01.87-.895.465-1.018.19-1.163-1.985-2.865-2.447-4.548-1.732-1.667.71-2.604 2.28-2.454 4.523.31 3.437 3.036 7.2 4.355 9.326 1.252 1.93 2.628 4.23 4.077 7.16 1.697-3.36 2.56-4.32 4.405-7.39 1.626-2.702 3.893-5.35 4.068-8.62 0-2.484-1.046-4.83-3.4-5.26-1.33-.24-2.578.44-3.504 2.037-.28.408-.848.196-.84-.36.166-2.094.957-3.984 2.83-6.212h-6.886c1.41 1.577 2.848 3.705 2.915 6.35z"/></svg>