<svg xmlns="http://www.w3.org/2000/svg" width="224.225" height="312.808"><g transform="translate(-6927.116 2747.31)"><rect ry="10.63" rx="10.63" width="223.228" height="311.811" x="6927.614" y="-2746.811" fill="#fff" stroke="#000" stroke-width=".997"/><path d="M6935.793-2709.273l3.22-.03c.613 1.946 1.973 3.928 3.817 4.475 5.212 1.224 8.568-1.687 9.673-5.047 1.34-4.073-.03-9.795-3.618-11.827-2.975-1.686-7.394-.264-9.422 3.338l-2.257-1.38 1.212-13.42h14.73v3.17h-11.938l-.187 5.592c2.565-1.803 6.518-1.785 9.085-.52 4.865 2.32 7.125 7.592 6.178 13.81-1.31 6.183-4.198 9.687-10.718 10.19-7.244.063-9.803-4.918-9.775-8.35zm206.87 236.735l-3.22.03c-.612-1.946-1.972-3.928-3.817-4.475-5.212-1.224-8.567 1.687-9.672 5.047-1.34 4.073.03 9.795 3.617 11.827 2.98 1.69 7.4.27 9.43-3.33l2.26 1.38-1.21 13.42h-14.73v-3.17h11.936l.188-5.59c-2.565 1.804-6.517 1.786-9.085.52-4.863-2.32-7.123-7.59-6.176-13.81 1.31-6.182 4.197-9.686 10.72-10.19 7.242-.062 9.8 4.92 9.772 8.35z"/></g><path d="M54.463 68.618c.015-2.026-1.587-2.065-1.57-.586-.133 7.43-6.415 11.086-10.98 10.22-7.035-1.34-9.28-8.323-9.214-12.437.2-12.695 12.98-22.058 24.52-38.335 8.45 14.69 22.39 26.23 23.22 37.59 1.1 15.1-18.01 20.73-20.74 3.13-.18-1.243-1.64-1.8-1.53-.065.414 4.823-.176 6.832 5.265 18.72H49.22c3.15-5.555 5.027-12.375 5.24-18.236zm110.68 0c.016-2.026-1.586-2.065-1.567-.586-.135 7.43-6.417 11.086-10.98 10.22-7.037-1.34-9.283-8.323-9.216-12.437.208-12.696 12.988-22.058 24.52-38.334 8.45 14.69 22.398 26.23 23.223 37.59 1.098 15.1-18.008 20.73-20.736 3.138-.176-1.243-1.64-1.8-1.527-.065.415 4.823-.174 6.83 5.266 18.72h-14.222c3.15-5.555 5.026-12.375 5.24-18.236zM109.9 167.88c.016-2.026-1.585-2.064-1.567-.586-.134 7.43-6.417 11.087-10.98 10.22-7.037-1.34-9.283-8.323-9.215-12.436.207-12.697 12.987-22.06 24.52-38.335 8.45 14.69 22.397 26.23 23.223 37.586 1.1 15.09-18 20.72-20.73 3.13-.173-1.25-1.64-1.8-1.523-.07.414 4.82-.175 6.83 5.265 18.72h-14.22c3.148-5.558 5.024-12.378 5.238-18.24zm-55.426 74.513c.015 2.026-1.587 2.065-1.57.586-.133-7.43-6.415-11.09-10.98-10.22-7.036 1.33-9.28 8.32-9.214 12.43.207 12.693 12.988 22.06 24.52 38.33 8.45-14.69 22.397-26.23 23.223-37.585 1.098-15.098-18.01-20.73-20.737-3.133-.176 1.243-1.64 1.8-1.526.065.414-4.824-.175-6.83 5.266-18.72H49.234c3.15 5.555 5.025 12.374 5.24 18.235zm110.68 0c.016 2.026-1.586 2.065-1.57.586-.132-7.43-6.414-11.09-10.98-10.22-7.034 1.33-9.28 8.32-9.213 12.43.21 12.693 12.99 22.06 24.52 38.33 8.45-14.69 22.4-26.23 23.23-37.585 1.1-15.098-18.01-20.73-20.734-3.133-.176 1.243-1.64 1.8-1.526.065.415-4.824-.175-6.83 5.266-18.72H159.92c3.15 5.555 5.026 12.374 5.24 18.235zm-146.9-172.24c.01-.873-.894-.466-1.017-.19-1.163 1.984-2.864 2.446-4.547 1.73-1.668-.71-2.605-2.28-2.454-4.52.31-3.44 3.035-7.2 4.355-9.328 1.26-1.93 2.63-4.222 4.08-7.154 1.7 3.37 2.56 4.32 4.41 7.4 1.628 2.705 3.89 5.354 4.07 8.62 0 2.487-1.046 4.83-3.4 5.26-1.33.24-2.578-.44-3.503-2.035-.28-.407-.85-.195-.84.36.167 2.094.957 3.984 2.83 6.21h-6.89c1.41-1.573 2.85-3.7 2.916-6.346zm186.71 172.744c.01.872-.896.465-1.02.19-1.162-1.985-2.863-2.447-4.547-1.73-1.667.708-2.604 2.28-2.453 4.52.31 3.44 3.035 7.2 4.355 9.327 1.25 1.93 2.62 4.222 4.07 7.154 1.693-3.363 2.56-4.32 4.4-7.39 1.626-2.706 3.893-5.354 4.068-8.624 0-2.485-1.046-4.832-3.4-5.26-1.33-.24-2.578.442-3.503 2.038-.28.406-.85.194-.84-.362.166-2.093.956-3.983 2.83-6.212h-6.887c1.41 1.576 2.85 3.704 2.917 6.35z"/></svg>