<svg xmlns="http://www.w3.org/2000/svg" width="224.225" height="312.808"><g transform="translate(-7150.344 2747.31)"><rect ry="10.63" rx="10.63" width="223.228" height="311.811" x="7150.843" y="-2746.811" fill="#fff" stroke="#000" stroke-width=".997"/><path d="M7159.083-2710.81c-.41-2.748-.402-9.846-.066-11.943 1.03-6.43 3.532-9.37 7.722-10.333 4.06-.935 9.78.106 11.04 5.482l-3.41.063c-1.84-3.64-6.498-2.67-9.118-1.09-2.093 1.26-3.038 6.52-2.634 6.842-.003 0 3.957-2.878 7.076-2.665 6.667.68 9.416 6.355 9.184 11.72-.21 6.45-2.293 11.602-9.36 11.946-6.72-.252-9.8-3.85-10.443-10.03zm16.57-1.706c.037-4.475-2.034-7.822-5.95-8.192-3.915-.37-7.863 3.382-7.59 7.943.275 4.576 2.08 8.43 6.827 8.41 5.106-.023 6.687-4.976 6.713-8.16zM7365.83-2471c.41 2.747.403 9.845.067 11.942-1.03 6.43-3.532 9.37-7.722 10.333-4.07.935-9.79-.106-11.044-5.482l3.41-.063c1.84 3.633 6.5 2.662 9.12 1.082 2.095-1.262 3.04-6.52 2.636-6.843.003 0-3.957 2.87-7.076 2.66-6.668-.68-9.417-6.36-9.185-11.72.21-6.45 2.293-11.607 9.36-11.95 6.72.253 9.8 3.85 10.443 10.03zm-16.57 1.705c-.036 4.475 2.035 7.822 5.95 8.192 3.916.37 7.864-3.382 7.59-7.943-.274-4.576-2.078-8.43-6.826-8.41-5.106.023-6.687 4.976-6.713 8.16z"/></g><path d="M54.346 69.06c.015-2.027-1.587-2.066-1.57-.587-.133 7.428-6.415 11.086-10.98 10.22-7.035-1.34-9.28-8.324-9.214-12.437.207-12.696 12.988-22.058 24.52-38.334 8.45 14.69 22.397 26.23 23.223 37.585 1.098 15.098-18.01 20.73-20.737 3.133-.176-1.243-1.64-1.8-1.526-.065.415 4.823-.175 6.83 5.266 18.72H49.106c3.15-5.555 5.025-12.375 5.24-18.236zm111.534 0c.014-2.027-1.588-2.066-1.57-.587-.134 7.428-6.416 11.086-10.98 10.22-7.037-1.34-9.282-8.324-9.215-12.437.207-12.696 12.988-22.058 24.52-38.334 8.45 14.69 22.397 26.23 23.223 37.585 1.098 15.098-18.01 20.73-20.737 3.133-.17-1.243-1.64-1.8-1.52-.065.418 4.823-.17 6.83 5.27 18.72h-14.22c3.15-5.555 5.024-12.375 5.24-18.236zM54.357 145.076c.015 2.026-1.587 2.065-1.57.586-.133-7.428-6.415-11.086-10.98-10.22-7.036 1.34-9.28 8.324-9.214 12.437.207 12.69 12.988 22.05 24.52 38.33 8.45-14.69 22.397-26.23 23.223-37.59 1.098-15.1-18.01-20.73-20.737-3.134-.18 1.243-1.64 1.8-1.53.065.41-4.823-.18-6.83 5.26-18.72H49.11c3.15 5.556 5.025 12.375 5.24 18.236zm111.533 0c.014 2.026-1.587 2.065-1.57.586-.133-7.428-6.416-11.086-10.98-10.22-7.036 1.34-9.282 8.324-9.214 12.437.207 12.69 12.987 22.05 24.52 38.33 8.45-14.69 22.397-26.23 23.223-37.59 1.09-15.1-18.01-20.73-20.74-3.134-.18 1.243-1.64 1.8-1.53.065.41-4.823-.178-6.83 5.262-18.72h-14.22c3.15 5.556 5.024 12.375 5.24 18.236zm0 98.6c.014 2.025-1.587 2.063-1.57.585-.133-7.42-6.416-11.08-10.98-10.21-7.036 1.34-9.282 8.32-9.214 12.437.207 12.696 12.987 22.058 24.52 38.334 8.45-14.69 22.397-26.23 23.223-37.586 1.09-15.097-18.01-20.73-20.74-3.13-.18 1.242-1.64 1.8-1.53.064.41-4.823-.178-6.832 5.262-18.72h-14.22c3.15 5.555 5.024 12.375 5.24 18.236zm-111.533 0c.015 2.025-1.587 2.063-1.57.585-.133-7.42-6.415-11.08-10.98-10.21-7.036 1.34-9.28 8.32-9.214 12.437.207 12.696 12.988 22.058 24.52 38.334 8.45-14.69 22.397-26.23 23.223-37.586 1.098-15.097-18.01-20.73-20.737-3.13-.18 1.242-1.64 1.8-1.53.064.41-4.823-.18-6.832 5.26-18.72H49.11c3.15 5.555 5.025 12.375 5.24 18.236zM17.394 68.926c.01-.87-.895-.463-1.018-.19-1.163 1.987-2.865 2.45-4.548 1.733-1.667-.71-2.604-2.28-2.454-4.53.31-3.438 3.036-7.2 4.355-9.327 1.25-1.928 2.62-4.22 4.07-7.153 1.694 3.365 2.56 4.32 4.402 7.393 1.626 2.702 3.893 5.35 4.07 8.62 0 2.485-1.048 4.832-3.4 5.26-1.333.242-2.58-.44-3.506-2.037-.28-.408-.848-.196-.84.36.166 2.094.957 3.984 2.83 6.21h-6.88c1.41-1.574 2.846-3.7 2.913-6.347zm188.816 172.75c.01.87-.896.464-1.02.19-1.162-1.986-2.863-2.448-4.547-1.733-1.667.71-2.604 2.28-2.453 4.523.31 3.437 3.035 7.2 4.355 9.326 1.252 1.93 2.627 4.225 4.076 7.157 1.7-3.37 2.56-4.32 4.41-7.4 1.63-2.703 3.898-5.352 4.07-8.62 0-2.484-1.043-4.83-3.4-5.258-1.33-.242-2.58.44-3.5 2.036-.28.41-.85.195-.84-.36.167-2.095.957-3.985 2.83-6.21h-6.89c1.41 1.574 2.85 3.702 2.915 6.35z"/></svg>